<svg width="856" height="861" viewBox="0 0 856 861" fill="none" xmlns="http://www.w3.org/2000/svg">
<path d="M615.605 142.902C613.439 144.029 612.401 145.382 603.422 158.778C596.112 169.648 595.841 170.144 595.57 172.896C595.074 177.541 596.518 179.436 600.714 179.436C604.866 179.436 608.972 177.045 615.334 170.911C624.81 161.8 627.382 156.974 625.848 151.065C624.585 146.059 621.155 141.954 618.313 141.999C617.726 142.045 616.508 142.451 615.605 142.902Z" fill="black"/>
<path d="M558.117 177.587C548.957 183.225 530.276 216.962 509.383 265.765C506.947 271.448 504.51 276.59 503.969 277.221L502.976 278.349L502.299 276.59C501.532 274.74 501.126 272.711 499.907 264.998C498.96 258.954 497.426 256.112 494.989 256.112C492.642 256.112 488.717 262.382 486.145 270.32C484.61 275.011 482.851 278.664 482.038 278.664C481.768 278.664 481.136 277.717 480.594 276.499C479.782 274.74 479.602 273.523 479.602 269.644C479.602 266.847 479.872 264.051 480.233 262.833C481.452 258.864 480.233 257.375 474.909 256.383C470.848 255.616 467.87 253.812 468.276 252.369C469.133 249.347 469.99 232.613 469.765 222.961C469.449 208.303 468.05 202.078 464.621 200.049C463.357 199.327 463.041 199.282 461.642 199.868C455.821 202.304 450.903 221.608 449.188 248.715C448.827 254.759 448.376 255.977 445.894 257.466C444.541 258.277 444.45 258.277 443.322 257.511C441.382 256.158 438.404 254.759 437.411 254.759C436.869 254.759 435.967 255.256 435.38 255.887C434.433 256.789 434.252 257.421 434.252 259.811C434.252 261.39 434.568 264.457 434.929 266.712C435.29 268.922 435.606 271.944 435.606 273.387C435.606 275.778 435.471 276.184 434.252 277.311L432.899 278.574V284.618C432.899 290.978 432.583 294 431.951 294C431.274 294 428.567 289.94 425.904 284.889C424.506 282.182 422.836 279.657 422.249 279.296C421.257 278.619 421.031 278.619 419.046 279.612C417.466 280.378 416.564 281.235 415.797 282.633L414.759 284.618L413.179 283.085C410.517 280.514 408.622 277.221 407.359 273.026C404.606 263.735 403.523 263.194 397.206 267.839C393.686 270.501 391.701 271.087 390.979 269.779C390.753 269.283 390.257 267.073 389.896 264.863C389.264 261.074 388.858 260.172 383.578 250.249C376.719 237.349 375.095 234.418 373.019 231.531C367.65 224.044 357.767 213.535 352.849 210.062C344.185 203.927 338.409 206.634 339.176 216.376C340.034 227.066 347.524 241.318 357.677 251.602C362.505 256.473 363.408 257.691 363.408 259.18C363.408 260.397 361.693 261.254 358.264 261.75C352.939 262.562 351.947 266.216 355.241 272.936C356.188 274.966 358.805 279.16 360.971 282.273C368.011 292.331 369.455 294.451 369.229 294.586C369.139 294.631 368.191 295.263 367.153 295.939C364.852 297.382 363.679 299.412 364.085 301.216C364.265 301.938 365.529 303.607 367.018 305.095C369.816 307.801 370.583 309.515 369.725 311.094C369.094 312.312 367.559 312.673 365.348 312.086C362.37 311.274 359.888 309.29 357.722 305.907C354.338 300.81 351.676 298.51 348.968 298.42C347.299 298.375 346.216 299.322 345.133 301.667C344.591 302.885 344.005 303.471 343.463 303.471C342.922 303.471 339.898 300.765 335.973 296.796C326.722 287.505 321.533 283.761 317.201 283.31C315.487 283.084 315.171 283.22 314.313 284.302C312.192 286.963 313.591 292.195 319.232 302.93C322.075 308.433 322.436 309.335 322.21 311.004C321.984 313.124 320.856 315.198 319.909 315.198C319.593 315.198 316.163 311.41 312.283 306.719C304.115 296.886 302.31 295.082 298.7 292.917C295.226 290.842 292.203 289.715 285.66 288.091C282.682 287.369 279.478 286.332 278.53 285.836C277.537 285.34 272.935 281.145 268.287 276.499C248.568 256.699 233.361 245.603 225.149 244.972C222.486 244.746 222.216 244.791 220.862 246.009C218.876 247.768 218.606 249.978 219.914 253.857C223.479 264.547 238.776 282.047 258.721 298.284C260.842 299.998 267.249 305.997 272.935 311.59C278.665 317.228 285.479 323.497 288.141 325.527C291.436 328.008 293.015 329.541 293.015 330.128C293.015 330.624 292.067 332.022 290.894 333.285C287.194 337.209 288.457 339.78 295 341.81C298.971 343.072 300.686 344.651 300.686 347.132C300.686 348.079 300.37 349.252 300.009 349.748C297.888 352.544 300.235 354.89 310.613 360.437C314.719 362.647 319.096 365.173 320.315 366.075C322.345 367.564 322.481 367.744 321.533 367.879C319.683 368.15 311.696 366.662 307.59 365.309C305.424 364.587 296.85 361.655 288.593 358.769C259.037 348.44 236.024 341.584 229.3 341.043C225.374 340.727 224.427 341.133 224.427 343.118C224.427 345.192 227.991 347.989 238.009 353.807C245.048 357.821 272.754 372.164 283.449 377.261C287.465 379.155 290.714 380.914 290.668 381.14C290.578 381.365 289.179 382.628 287.6 383.891C285.93 385.244 284.306 387.003 283.81 387.996L282.952 389.8L284.125 393.183C285.66 397.513 285.705 399.272 284.261 400.219C281.599 401.978 275.146 401.437 262.827 398.415C234.038 391.333 206.287 391.694 190.764 399.317C182.281 403.466 178.536 409.104 180.657 414.652C182.326 419.072 188.644 422.545 197.894 424.169C201.504 424.8 203.805 424.845 214.048 424.53C220.636 424.304 230.067 424.169 235.031 424.169C244.01 424.169 244.101 424.169 252.088 426.063C261.518 428.318 265.264 428.86 270.453 428.769C276.409 428.634 278.756 430.483 278.756 435.4C278.756 438.602 277.628 440.451 275.056 441.534C267.881 444.511 262.647 448.615 260.616 452.855C259.353 455.606 259.353 456.914 260.661 458.448C261.473 459.35 262.24 459.711 263.955 459.846C266.211 460.071 267.43 459.756 278.214 455.967C282.591 454.433 291.12 453.486 295.858 453.982C298.339 454.253 298.43 454.298 297.708 455.065C296.354 456.553 289.721 459.44 281.373 462.191C268.197 466.566 262.962 469.498 263.323 472.43C263.549 474.369 265.038 474.956 269.099 474.685C272.664 474.459 276.184 473.422 279.478 471.663C281.418 470.626 281.869 470.581 289.134 470.716C297.572 470.851 299.016 471.167 296.625 472.385C293.917 473.783 289.585 475.271 280.064 477.978C256.374 484.788 244.191 490.02 239.227 495.523C237.152 497.823 236.7 499.672 237.828 501.612C241.799 508.558 265.67 506.483 282.411 497.733C284.893 496.425 290.804 492.681 295.497 489.434C308.718 480.323 319.096 474.775 324.286 474.054C325.955 473.828 325.955 473.873 325.504 475.046C324.331 478.203 321.082 482.713 315.396 489.073C310.703 494.305 310.162 495.117 310.162 496.786C310.162 500.349 313.005 501.251 323.473 500.89L331.144 500.62L329.565 501.431C328.708 501.928 325.73 502.92 323.022 503.732C309.395 507.611 304.16 509.821 301.363 512.753C300.641 513.564 297.617 515.82 294.73 517.759C288.773 521.773 287.6 522.856 287.6 524.344C287.6 526.193 290.533 526.78 295.181 525.878C296.986 525.517 297.076 525.562 296.805 526.464C296.354 527.817 294.639 530.433 293.647 531.29C293.15 531.651 291.345 532.824 289.54 533.861C278.575 540.266 265.895 554.338 264.767 561.329C264.497 562.953 264.632 563.359 265.715 564.396C266.708 565.434 267.159 565.569 268.558 565.343C271.085 564.938 275.101 562.727 280.606 558.713C286.788 554.203 288.006 553.075 288.818 551.091C289.766 548.926 291.571 546.58 292.383 546.58C293.286 546.58 293.24 546.761 291.21 550.414C290.217 552.218 289.405 554.293 289.405 555.015C289.405 556.774 290.668 557.856 292.654 557.856C295.091 557.856 298.43 555.105 307.906 545.227C316.073 536.703 316.254 536.567 316.524 537.875C317.201 541.168 318.826 541.168 321.894 537.92C325.549 534.041 324.827 536.432 318.059 550.369C315.441 555.781 312.779 561.916 312.192 564.035C308.853 575.492 311.425 585.324 317.111 582.934C319.187 582.077 321.533 578.829 324.376 572.966C326.993 567.463 329.565 563.855 333.446 560.111L335.973 557.631L335.747 559.705C335.567 560.833 334.529 564.261 333.401 567.283C332.273 570.35 331.144 574.274 330.919 576.078C330.648 577.837 329.926 583.114 329.249 587.85C327.625 599.216 327.489 610.447 328.933 612.883C329.43 613.74 330.377 614.732 331.054 615.048C337.011 617.934 348.472 597.638 355.511 571.838C357.271 565.208 357.813 563.72 358.399 563.72C359.031 563.72 360.61 567.824 361.197 571.117C361.874 575.041 363.227 576.755 366.025 577.115C368.642 577.476 371.666 576.259 372.839 574.409C373.29 573.597 373.922 571.748 374.238 570.26C374.508 568.771 375.637 563.99 376.719 559.66C377.802 555.33 378.795 550.865 378.976 549.738C379.472 546.535 380.194 543.874 380.555 543.874C381.503 543.874 383.714 551.767 384.932 559.66C386.105 567.238 386.06 587.129 384.887 594.39C384.075 599.487 384.075 599.622 384.932 603.862L385.834 608.147L384.797 613.018C380.51 632.819 382.179 646.485 389.129 648.56C396.8 650.86 404.019 636.968 404.019 619.964V615.544L405.373 617.077C408.306 620.46 411.104 620.19 412.954 616.401C413.992 614.326 414.759 610.628 415.706 602.779C416.519 596.014 418.775 592.857 420.986 595.473C422.204 596.871 422.746 599.848 422.34 603.321C421.527 610.628 421.527 612.251 422.249 615.093C423.152 618.656 423.152 620.46 422.204 626.594C421.573 630.834 421.527 632.368 421.979 637.013C423.016 647.883 426.175 653.476 431.319 653.476C434.974 653.476 439.667 648.695 441.878 642.651C444.586 635.254 444.225 627.812 440.795 620.641C438.765 616.311 438.765 615.86 440.84 616.175C442.51 616.446 443.999 617.122 447.925 619.378C449.414 620.235 450.407 620.55 451.174 620.37C453.249 619.829 453.385 618.791 452.076 611.665C450.542 603.276 450.542 595.924 452.166 594.345C453.43 593.037 454.739 593.398 457.401 595.743C460.875 598.81 461.778 601.246 462.229 609.094C462.5 612.793 463.086 617.754 463.583 620.099C464.44 624.249 464.846 628.669 465.839 645.132C466.38 654.062 466.832 656.227 469.72 663.85C475.856 680.268 482.896 689.83 489.89 691.408C493.184 692.13 495.576 691.408 498.328 688.837C502.886 684.598 505.187 677.877 505.232 668.811C505.232 659.34 503.111 652.754 497.471 644.951C492.462 638.051 487.904 627.857 485.648 618.521C485.197 616.536 484.791 614.236 484.791 613.424V611.981L488.311 611.936C490.206 611.936 492.507 611.71 493.364 611.394C495.621 610.628 495.621 609.094 493.455 603.591C489.664 594.074 486.686 582.889 487.679 581.896C488.807 580.769 495.395 587.038 503.111 596.645C507.714 602.328 509.97 604.313 513.309 605.486C518.544 607.335 522.063 605.08 521.883 600.073C521.747 597.096 520.439 593.849 516.107 585.775C510.151 574.635 506.135 565.749 506.541 564.532C506.631 564.261 508.165 565.659 509.97 567.599C516.693 574.996 524.906 586.001 530.276 594.796C534.111 601.066 535.51 602.779 537.811 603.862C539.887 604.854 539.932 604.854 544.67 602.915C546.475 602.193 546.972 602.554 549.318 606.523C551.258 609.861 558.613 618.25 562.675 621.723C568.135 626.414 572.421 628.579 575.129 628.038C581.852 626.684 579.37 615.273 569.985 604.403C568.631 602.87 568.27 602.103 568.27 600.66C568.27 598.675 568.36 598.63 571.88 599.577C575.219 600.479 577.43 600.434 578.694 599.442C580.995 597.547 579.28 593.714 573.098 586.948C571.158 584.828 569.669 583.114 569.804 583.114C569.94 583.114 572.06 583.881 574.452 584.873C580.679 587.354 587.222 589.384 590.02 589.699C592.05 589.925 592.592 589.835 593.675 588.978C596.788 586.542 594.442 583.43 578.423 568.907C565.608 557.27 553.83 545.047 553.83 543.333C553.83 542.701 555.996 543.243 564.705 546.174C569.037 547.618 573.143 548.835 573.82 548.835C574.858 548.835 576.392 547.437 576.392 546.49C576.392 546.31 575.264 544.866 573.91 543.243C571.654 540.627 570.526 538.687 570.526 537.514C570.526 536.612 573.234 537.199 576.663 538.822C580.859 540.897 584.695 543.288 591.689 548.339C594.532 550.369 598.232 552.85 599.947 553.887C608.926 559.209 626.795 564.622 635.459 564.622C639.881 564.622 641.957 564.035 643.356 562.321C646.108 559.074 644.123 553.887 637.761 547.482C628.33 537.965 613.8 529.26 596.382 522.63C587.087 519.112 582.258 515.774 582.258 512.843C582.258 511.084 583.747 510.768 590.155 511.219C593.359 511.399 598.277 511.58 601.03 511.625C605.362 511.625 606.219 511.49 607.031 510.768C610.686 507.475 604.188 502.514 589.523 497.417C580.228 494.17 577.295 492.275 579.325 490.787C580.995 489.614 583.477 489.208 591.283 488.893C599.947 488.577 602.158 487.991 603.421 485.645C604.008 484.608 603.963 484.292 603.196 482.759C601.977 480.233 598.187 477.842 589.433 474.099C580.724 470.4 576.257 467.784 577.43 467.153C578.784 466.386 585.146 466.16 591.734 466.747C599.721 467.378 600.624 467.559 611.138 470.671C636.768 478.203 663.707 483.525 685.592 485.465C704.814 487.179 714.922 485.42 714.922 480.323C714.922 472.43 683.922 458.899 622.644 440.136C600.263 433.28 591.238 430.123 591.915 429.446C592.05 429.311 595.344 429.446 599.27 429.762C607.483 430.393 610.777 430.032 613.213 428.183C614.386 427.281 614.747 426.695 614.747 425.567C614.747 421.372 609.874 419.388 599.631 419.388C593.765 419.388 590.381 418.937 587.583 417.719C585.643 416.907 585.191 416.095 586.184 415.238C586.726 414.787 589.072 414.652 595.073 414.562C599.586 414.517 604.234 414.246 605.497 413.975C612.536 412.397 613.935 408.157 608.926 403.466C606.129 400.85 604.008 399.768 600.263 399.136C594.577 398.189 589.072 398.866 580.634 401.572C574.678 403.466 572.918 403.602 572.512 402.068C572.015 400.038 572.512 398.099 573.73 397.152C575.49 395.844 578.017 395.528 586.319 395.483C598.187 395.438 605.632 394.31 616.778 390.927C625.938 388.086 628.826 385.335 625.803 382.313C624.584 381.095 622.915 380.373 616.959 378.614C612.672 377.351 610.596 376.043 611.408 375.186C612.311 374.284 616.507 373.427 622.825 372.931C656.848 370.135 676.071 364.632 680.899 356.423C682.659 353.446 682.253 351.236 679.59 348.755C675.845 345.373 668.715 344.02 659.51 344.922C653.825 345.463 644.033 347.673 641.596 348.936C640.874 349.297 636.903 351.823 632.842 354.574C624.133 360.392 619.846 362.557 617.139 362.557C614.838 362.557 614.657 362.287 613.664 357.37C612.401 351.146 610.506 348.575 607.347 348.575C606.715 348.575 602.79 350.109 598.638 352.003C590.967 355.476 583.612 358.227 583.161 357.731C583.025 357.596 585.913 354.619 589.568 351.101C593.223 347.628 596.517 344.065 596.924 343.253C597.33 342.396 597.6 340.953 597.51 339.915C597.33 337.299 595.705 336.172 592.276 336.217C590.065 336.217 588.891 336.623 584.063 339.013C580.995 340.547 578.062 341.81 577.611 341.81C576.257 341.81 579.009 338.382 585.191 332.428C591.87 325.933 595.209 323.407 600.849 320.566C611.318 315.334 624.765 306.899 632.391 300.9C647.823 288.632 653.328 276.86 645.296 273.252C638.031 269.914 623.366 276.635 608.43 290.121C605.632 292.647 602.248 294.902 601.301 294.902C600.263 294.902 597.6 291.699 597.104 289.85C596.878 288.903 596.202 287.595 595.615 286.918C594.577 285.746 594.532 285.7 591.554 286.152C589.659 286.422 588.576 286.467 588.576 286.197C588.576 285.926 590.381 283.851 592.592 281.596C595.615 278.484 597.104 276.499 598.413 273.838C600.714 269.283 603.692 265.765 608.972 261.299C611.273 259.36 616.101 254.85 619.711 251.377C625.171 246.054 627.517 244.16 633.519 240.236C642.589 234.192 644.574 232.523 648.816 227.246C657.028 217.008 660.999 209.069 660.142 204.604C660.007 203.747 659.239 202.484 658.518 201.763C654.817 198.199 645.567 201.041 634.106 209.205C627.833 213.67 622.644 218.767 616.417 226.57C609.423 235.275 605.587 239.605 602.88 241.77C601.662 242.717 600.533 243.483 600.398 243.483C600.218 243.483 600.082 241.77 600.082 239.65C600.082 236.086 599.992 235.771 598.819 234.598C597.781 233.561 597.194 233.335 595.434 233.38C589.884 233.425 581.536 241.093 572.557 254.308C567.052 262.382 565.563 263.645 564.028 261.435C562.99 259.991 563.171 258.864 564.705 256.564C565.923 254.804 566.059 254.263 565.788 252.504C565.247 248.715 563.351 247.317 560.509 248.49C557.215 249.843 550.942 257.601 541.512 271.899C538.669 276.229 535.736 280.559 534.969 281.506C532.442 284.663 527.433 288.136 525.402 288.136C524.635 288.136 524.5 287.866 524.5 286.287C524.5 283.941 526.576 277.762 529.148 272.26C530.276 269.959 533.209 263.69 535.781 258.368C557.801 212.046 567.999 180.428 561.953 177.181C560.734 176.504 559.651 176.64 558.117 177.587Z" fill="black"/>
<path d="M260.255 206.904C258.089 208.212 256.826 210.647 256.555 213.94C256.374 216.466 256.51 217.142 257.683 219.668C258.45 221.247 259.894 223.457 260.977 224.674C263.865 227.922 276.59 238.115 279.884 239.739C285.073 242.445 289.856 241.408 289.856 237.619C289.856 236.807 288.457 233.47 286.427 229.365C281.057 218.676 277.808 214.03 273.07 210.286C267.971 206.272 263.278 205.054 260.255 206.904Z" fill="black"/>
<path d="M147.175 263.284C143.61 264.457 141.399 267.614 141.038 272.215C140.632 277.311 143.475 281.28 149.747 284.438C158.23 288.632 180.07 294.947 189.997 296.029C192.389 296.3 193.156 296.21 194.826 295.353C197.939 293.864 197.939 292.917 195.006 290.166C190.313 285.791 181.018 278.033 175.919 274.154C166.398 266.983 158.591 263.374 152.003 263.059C150.018 262.968 147.852 263.059 147.175 263.284Z" fill="black"/>
<path d="M247.079 580.182C241.844 582.978 235.527 587.398 232.549 590.33C229.751 593.036 226.547 598.81 226.006 602.012C225.374 605.755 227.766 607.334 231.511 605.665C238.099 602.779 244.732 595.291 251.23 583.61C254.524 577.656 253.441 576.754 247.079 580.182Z" fill="black"/>
<path d="M332.227 631.24C327.625 633.54 318.781 643.643 315.035 650.905C312.553 655.686 313.05 660.557 316.434 665.023C320.585 670.525 326.632 670.706 328.798 665.338C329.159 664.391 329.926 661.595 330.422 659.114C331.957 652.123 334.393 643.914 336.875 637.329C338.094 634.036 338.996 631.014 338.861 630.654C338.455 629.571 335.025 629.887 332.227 631.24Z" fill="black"/>
<path d="M282.727 679.501C282.23 679.952 280.561 682.342 279.026 684.823C275.416 690.686 272.077 695.242 267.384 700.97C263.007 706.202 262.331 707.555 262.331 710.757C262.331 713.779 263.639 716.305 266.031 717.839C267.61 718.921 268.377 719.102 271.085 719.102C273.747 719.102 274.649 718.876 276.409 717.884C280.696 715.313 282.817 711.344 286.652 698.579C290.172 686.807 290.352 682.793 287.51 679.726C286.336 678.508 284.035 678.418 282.727 679.501Z" fill="black"/>
</svg>
