<svg width="256" height="193" viewBox="0 0 256 193" fill="none" xmlns="http://www.w3.org/2000/svg">
<path opacity="0.4" d="M249.5 1H6.5C3.46243 1 1 3.46243 1 6.5V186.5C1 189.538 3.46243 192 6.5 192H249.5C252.538 192 255 189.538 255 186.5V6.5C255 3.46243 252.538 1 249.5 1Z" stroke="#718095"/>
<rect x="45" y="61" width="92" height="82" rx="5" fill="#718095" fill-opacity="0.35"/>
<rect x="138" y="61" width="21" height="82" rx="5" fill="#718095" fill-opacity="0.35"/>
<rect x="160" y="61" width="21" height="82" rx="5" fill="#718095" fill-opacity="0.35"/>
<rect x="182" y="61" width="21" height="82" rx="5" fill="#718095" fill-opacity="0.35"/>
<rect x="52" y="68" width="78" height="68" rx="3" fill="white"/>
<rect x="58" y="74" width="66" height="57" rx="3" fill="#718095"/>
<rect x="97" y="32" width="61" height="6" rx="3" fill="#D1D5DB"/>
<rect x="73" y="41" width="110" height="2" rx="1" fill="#3C4148"/>
<rect x="86" y="44" width="81" height="2" rx="1" fill="#3C4148"/>
</svg>
