<svg width="233" height="175" viewBox="0 0 233 175" fill="none" xmlns="http://www.w3.org/2000/svg">
<path d="M189.902 42H43.9024C38.9858 42 35 44.5116 35 47.6098V128.39C35 131.488 38.9858 134 43.9024 134H189.902C194.819 134 198.805 131.488 198.805 128.39V47.6098C198.805 44.5116 194.819 42 189.902 42Z" fill="url(#paint0_radial_3209_43)" fill-opacity="0.31"/>
<mask id="mask0_3209_43" style="mask-type:alpha" maskUnits="userSpaceOnUse" x="53" y="68" width="123" height="48">
<path d="M54.1415 97.3006C54.7086 118.004 65.3846 116.431 103.453 112.562C138.408 117.012 175.86 104.295 175.236 92.2143C174.737 82.5494 166.706 74.1984 162.752 71.231C145.691 70.3832 106.601 76.9215 90.9693 71.231C67.2793 62.6068 52.9565 79.716 54.1415 97.3006Z" fill="#D9D9D9" stroke="black"/>
</mask>
<g mask="url(#mask0_3209_43)">
<path d="M54.3222 105.239V91.1607H56.7169V105.239H54.3222ZM48.4639 99.3942V97.0052H62.5753V99.3942H48.4639Z" fill="white" fill-opacity="0.75"/>
<path d="M74.3918 105.708V78.4051H76.145V105.708H74.3918ZM80.2929 86.596C80.1646 85.5152 79.6443 84.6762 78.7321 84.079C77.8198 83.4817 76.7009 83.1831 75.3753 83.1831C74.406 83.1831 73.5579 83.3395 72.831 83.6524C72.1111 83.9652 71.5481 84.3954 71.1419 84.9429C70.7428 85.4904 70.5432 86.1125 70.5432 86.8093C70.5432 87.3923 70.6822 87.8936 70.9601 88.3131C71.2452 88.7255 71.6087 89.0703 72.0506 89.3476C72.4924 89.6178 72.9557 89.8418 73.4403 90.0195C73.925 90.1902 74.3704 90.3288 74.7766 90.4355L77.0002 91.0327C77.5704 91.182 78.2047 91.3882 78.9031 91.6513C79.6087 91.9144 80.2822 92.2734 80.9236 92.7285C81.5722 93.1764 82.1067 93.7523 82.5272 94.4562C82.9477 95.1601 83.1579 96.024 83.1579 97.0479C83.1579 98.2282 82.8479 99.2947 82.2279 100.247C81.6149 101.2 80.7169 101.957 79.5339 102.519C78.3579 103.081 76.929 103.362 75.247 103.362C73.6791 103.362 72.3214 103.109 71.1739 102.604C70.0336 102.1 69.1356 101.396 68.4799 100.493C67.8314 99.5898 67.4644 98.541 67.3788 97.3465H70.1156C70.1869 98.1713 70.4648 98.8539 70.9494 99.3942C71.4412 99.9275 72.0613 100.326 72.8096 100.589C73.565 100.845 74.3775 100.973 75.247 100.973C76.259 100.973 77.1677 100.809 77.9731 100.482C78.7784 100.148 79.4163 99.6858 79.8867 99.0956C80.357 98.4984 80.5922 97.8016 80.5922 97.0052C80.5922 96.28 80.3891 95.6899 79.9829 95.2348C79.5766 94.7798 79.0421 94.41 78.3793 94.1256C77.7165 93.8412 77.0002 93.5924 76.2305 93.3791L73.5365 92.6112C71.8261 92.1206 70.4719 91.4202 69.4742 90.5101C68.4764 89.6 67.9775 88.4091 67.9775 86.9373C67.9775 85.7143 68.3089 84.6478 68.9717 83.7377C69.6416 82.8205 70.5396 82.1095 71.6657 81.6047C72.7989 81.0927 74.0639 80.8368 75.4608 80.8368C76.872 80.8368 78.1263 81.0892 79.2239 81.594C80.3214 82.0917 81.1909 82.7743 81.8323 83.6417C82.4809 84.5092 82.823 85.4939 82.8586 86.596H80.2929Z" fill="white" fill-opacity="0.67"/>
<path d="M82.4737 80.979V78.8033L92.0951 63.616H93.6773V66.9862H92.6083L85.3388 78.462V78.6326H98.2956V80.979H82.4737ZM92.7793 85.4584V63.616H95.3023V85.4584H92.7793Z" fill="white"/>
<path d="M94.8462 115.79C93.5918 115.79 92.4622 115.541 91.4573 115.044C90.4524 114.546 89.647 113.863 89.0412 112.996C88.4355 112.128 88.104 111.14 88.047 110.031H90.6127C90.7125 111.019 91.1615 111.837 91.9597 112.484C92.7651 113.124 93.7272 113.444 94.8462 113.444C95.7442 113.444 96.5424 113.234 97.2408 112.815C97.9464 112.395 98.4987 111.819 98.8978 111.087C99.3041 110.347 99.5072 109.512 99.5072 108.581C99.5072 107.628 99.2969 106.778 98.8765 106.032C98.4631 105.278 97.8929 104.684 97.166 104.25C96.439 103.817 95.6087 103.596 94.6751 103.589C94.0052 103.582 93.3174 103.685 92.6119 103.899C91.9063 104.105 91.3254 104.371 90.8693 104.698L88.3891 104.4L89.7147 93.6492H101.089V95.9956H91.9384L91.1686 102.437H91.2969C91.7459 102.082 92.309 101.787 92.986 101.552C93.6631 101.318 94.3687 101.2 95.1027 101.2C96.4426 101.2 97.6364 101.52 98.684 102.16C99.7388 102.793 100.566 103.66 101.164 104.762C101.77 105.864 102.073 107.123 102.073 108.538C102.073 109.931 101.759 111.176 101.132 112.271C100.512 113.359 99.6569 114.219 98.5664 114.852C97.476 115.477 96.2359 115.79 94.8462 115.79Z" fill="white"/>
<path d="M109.898 103.276C108.644 103.276 107.514 103.028 106.509 102.53C105.505 102.032 104.699 101.35 104.093 100.482C103.488 99.6147 103.156 98.6263 103.099 97.5172H105.665C105.765 98.5055 106.214 99.3231 107.012 99.9702C107.817 100.61 108.779 100.93 109.898 100.93C110.796 100.93 111.595 100.72 112.293 100.301C112.999 99.8813 113.551 99.3054 113.95 98.573C114.356 97.8336 114.559 96.9981 114.559 96.0667C114.559 95.1139 114.349 94.2643 113.929 93.5177C113.515 92.764 112.945 92.1703 112.218 91.7366C111.491 91.3029 110.661 91.0825 109.727 91.0754C109.057 91.0683 108.37 91.1714 107.664 91.3847C106.958 91.5909 106.378 91.8575 105.921 92.1846L103.441 91.8859L104.767 81.1354H116.142V83.4817H106.991L106.221 89.9235H106.349C106.798 89.568 107.361 89.273 108.038 89.0383C108.715 88.8037 109.421 88.6864 110.155 88.6864C111.495 88.6864 112.689 89.0063 113.736 89.6462C114.791 90.279 115.618 91.1465 116.216 92.2485C116.822 93.3506 117.125 94.6091 117.125 96.024C117.125 97.4176 116.811 98.6619 116.184 99.7569C115.564 100.845 114.709 101.705 113.619 102.338C112.528 102.964 111.288 103.276 109.898 103.276Z" fill="white"/>
<path d="M134.458 97.4887L134.287 98.6406C134.166 99.4511 133.98 100.319 133.731 101.243C133.489 102.167 133.236 103.038 132.972 103.856C132.708 104.674 132.491 105.324 132.32 105.808H130.395C130.488 105.353 130.609 104.752 130.759 104.005C130.909 103.259 131.058 102.423 131.208 101.499C131.365 100.582 131.493 99.6431 131.593 98.6832L131.721 97.4887H134.458Z" fill="white"/>
<path d="M86.7927 98.7401L86.6216 99.8919C86.5005 100.703 86.3152 101.57 86.0657 102.494C85.8234 103.419 85.5704 104.29 85.3067 105.107C85.043 105.925 84.8256 106.575 84.6546 107.059H82.7303C82.823 106.604 82.9441 106.003 83.0938 105.257C83.2435 104.51 83.3931 103.675 83.5428 102.75C83.6996 101.833 83.8279 100.894 83.9276 99.9346L84.0559 98.7401H86.7927Z" fill="white"/>
<path d="M118.85 90.99V88.8143L128.471 73.6271H130.053V76.9973H128.984L121.715 88.4731V88.6437H134.672V90.99H118.85ZM129.155 95.4694V73.6271H131.678V95.4694H129.155Z" fill="white"/>
<path d="M139.432 85.4584V83.5386L146.659 75.6464C147.507 74.722 148.206 73.9186 148.755 73.236C149.303 72.5463 149.71 71.8993 149.973 71.295C150.244 70.6835 150.379 70.0436 150.379 69.3752C150.379 68.6073 150.194 67.9425 149.824 67.3808C149.46 66.8191 148.961 66.3854 148.327 66.0797C147.693 65.7739 146.98 65.6211 146.189 65.6211C145.348 65.6211 144.614 65.7953 143.987 66.1437C143.367 66.485 142.885 66.9649 142.543 67.5835C142.208 68.202 142.041 68.9273 142.041 69.7592H139.518C139.518 68.4793 139.814 67.3559 140.405 66.389C140.997 65.422 141.802 64.6683 142.821 64.1279C143.848 63.5876 144.999 63.3174 146.274 63.3174C147.557 63.3174 148.694 63.5876 149.685 64.1279C150.675 64.6683 151.452 65.3971 152.015 66.3143C152.578 67.2315 152.86 68.2518 152.86 69.3752C152.86 70.1787 152.714 70.9643 152.421 71.7322C152.136 72.493 151.637 73.3427 150.925 74.2812C150.219 75.2126 149.239 76.3503 147.985 77.6941L143.067 82.9414V83.112H153.245V85.4584H139.432Z" fill="white" fill-opacity="0.62"/>
<path d="M149.339 118.293C147.928 118.293 146.67 118.051 145.565 117.568C144.468 117.084 143.595 116.412 142.946 115.552C142.305 114.685 141.955 113.679 141.898 112.534H144.592C144.649 113.238 144.892 113.846 145.319 114.358C145.747 114.862 146.306 115.253 146.998 115.531C147.689 115.808 148.455 115.947 149.296 115.947C150.237 115.947 151.071 115.783 151.798 115.456C152.525 115.129 153.095 114.674 153.508 114.091C153.922 113.508 154.128 112.832 154.128 112.065C154.128 111.261 153.929 110.554 153.53 109.942C153.13 109.324 152.546 108.84 151.776 108.492C151.007 108.143 150.066 107.969 148.954 107.969H147.201V105.623H148.954C149.824 105.623 150.586 105.466 151.242 105.153C151.905 104.841 152.421 104.4 152.792 103.831C153.17 103.262 153.359 102.594 153.359 101.826C153.359 101.086 153.195 100.443 152.867 99.8955C152.539 99.348 152.076 98.9214 151.477 98.6157C150.885 98.3099 150.187 98.1571 149.382 98.1571C148.626 98.1571 147.914 98.2957 147.244 98.573C146.581 98.8432 146.039 99.2378 145.619 99.7569C145.198 100.269 144.97 100.887 144.934 101.613H142.369C142.412 100.468 142.757 99.4653 143.406 98.605C144.054 97.7376 144.902 97.0621 145.95 96.5786C147.005 96.0951 148.163 95.8534 149.424 95.8534C150.779 95.8534 151.94 96.1271 152.91 96.6746C153.879 97.215 154.624 97.9296 155.144 98.8183C155.664 99.7071 155.924 100.667 155.924 101.698C155.924 102.928 155.6 103.977 154.951 104.844C154.31 105.712 153.437 106.312 152.332 106.647V106.817C153.715 107.045 154.795 107.631 155.571 108.577C156.348 109.516 156.737 110.678 156.737 112.065C156.737 113.252 156.412 114.318 155.764 115.264C155.122 116.203 154.246 116.942 153.134 117.482C152.022 118.023 150.757 118.293 149.339 118.293Z" fill="white" fill-opacity="0.73"/>
<path d="M165.389 97.0194C163.778 97.0194 162.406 96.5822 161.273 95.7076C160.14 94.826 159.274 93.5497 158.675 91.8788C158.077 90.2008 157.777 88.1744 157.777 85.7996C157.777 83.4391 158.077 81.4234 158.675 79.7525C159.281 78.0745 160.151 76.7947 161.284 75.913C162.424 75.0242 163.792 74.5798 165.389 74.5798C166.985 74.5798 168.35 75.0242 169.483 75.913C170.624 76.7947 171.493 78.0745 172.092 79.7525C172.698 81.4234 173 83.4391 173 85.7996C173 88.1744 172.701 90.2008 172.102 91.8788C171.504 93.5497 170.638 94.826 169.505 95.7076C168.371 96.5822 167 97.0194 165.389 97.0194ZM165.389 94.6731C166.985 94.6731 168.225 93.9052 169.109 92.3694C169.993 90.8336 170.435 88.6437 170.435 85.7996C170.435 83.9084 170.232 82.2979 169.825 80.9683C169.426 79.6387 168.849 78.6255 168.094 77.9287C167.345 77.2319 166.444 76.8835 165.389 76.8835C163.807 76.8835 162.57 77.6621 161.679 79.2192C160.788 80.7692 160.343 82.9627 160.343 85.7996C160.343 87.6909 160.543 89.2978 160.942 90.6203C161.341 91.9428 161.914 92.9489 162.663 93.6386C163.418 94.3283 164.327 94.6731 165.389 94.6731Z" fill="#FDFDFD" fill-opacity="0.79"/>
</g>
<defs>
<radialGradient id="paint0_radial_3209_43" cx="0" cy="0" r="1" gradientUnits="userSpaceOnUse" gradientTransform="translate(116.902 88.6479) rotate(90) scale(45.3521 80.7489)">
<stop stop-color="#718095" stop-opacity="0.94"/>
<stop offset="0.710652" stop-color="#718095"/>
</radialGradient>
</defs>
</svg>
