<svg width="233" height="175" viewBox="0 0 233 175" fill="none" xmlns="http://www.w3.org/2000/svg">
<g clip-path="url(#clip0_2728_9)">
<path d="M38.064 85.3643C37.7336 85.3643 37.4658 85.6356 37.4658 85.9705C37.4658 86.3053 37.7336 86.5767 38.064 86.5767C38.3944 86.5767 38.6622 86.3053 38.6622 85.9705C38.6624 85.6358 38.3944 85.3643 38.064 85.3643Z" fill="#718095" fill-opacity="0.62"/>
<path d="M125.063 144.846C125.299 144.846 125.49 144.652 125.49 144.414C125.49 144.175 125.299 143.981 125.063 143.981C124.828 143.981 124.637 144.175 124.637 144.414C124.637 144.652 124.828 144.846 125.063 144.846Z" fill="#718095" fill-opacity="0.62"/>
<path d="M81.3196 168.435C81.3196 168.219 81.1462 168.043 80.9322 168.043C80.7183 168.043 80.5449 168.219 80.5449 168.435C80.5449 168.652 80.7183 168.828 80.9322 168.828C81.1462 168.828 81.3196 168.652 81.3196 168.435Z" fill="#718095" fill-opacity="0.62"/>
<path d="M93.4264 143.409C93.4264 142.894 93.0139 142.476 92.5052 142.476C91.9965 142.476 91.584 142.894 91.584 143.409C91.584 143.925 91.9963 144.343 92.5052 144.343C93.0141 144.343 93.4264 143.925 93.4264 143.409Z" fill="#718095" fill-opacity="0.62"/>
<path d="M41.5483 90.2448C41.7648 90.2448 41.9403 90.0669 41.9403 89.8475C41.9403 89.6281 41.7648 89.4502 41.5483 89.4502C41.3318 89.4502 41.1562 89.6281 41.1562 89.8475C41.1562 90.0669 41.3318 90.2448 41.5483 90.2448Z" fill="#718095" fill-opacity="0.62"/>
<path d="M37.4022 168.689C37.0063 168.689 36.6855 169.015 36.6855 169.416C36.6855 169.817 37.0065 170.142 37.4022 170.142C37.7982 170.142 38.1189 169.817 38.1189 169.416C38.1189 169.015 37.798 168.689 37.4022 168.689Z" fill="#718095" fill-opacity="0.62"/>
<path d="M65.8359 112.748C65.8359 113.006 66.0425 113.215 66.2972 113.215C66.5518 113.215 66.7584 113.006 66.7584 112.748C66.7584 112.49 66.5518 112.28 66.2972 112.28C66.0423 112.28 65.8359 112.49 65.8359 112.748Z" fill="#718095" fill-opacity="0.62"/>
<path d="M113.334 121.76C113.334 121.584 113.193 121.441 113.02 121.441C112.846 121.441 112.705 121.584 112.705 121.76C112.705 121.936 112.846 122.079 113.02 122.079C113.193 122.079 113.334 121.936 113.334 121.76Z" fill="#718095" fill-opacity="0.62"/>
<path d="M74.1722 112.238C74.1722 112.091 74.0545 111.972 73.9093 111.972C73.7642 111.972 73.6465 112.091 73.6465 112.238C73.6465 112.385 73.7642 112.504 73.9093 112.504C74.0545 112.504 74.1722 112.385 74.1722 112.238Z" fill="#718095" fill-opacity="0.62"/>
<path d="M126.459 102.119C126.768 101.988 126.914 101.628 126.785 101.315C126.655 101.001 126.3 100.853 125.991 100.984C125.681 101.115 125.536 101.476 125.665 101.789C125.794 102.103 126.15 102.25 126.459 102.119Z" fill="#718095" fill-opacity="0.62"/>
<path d="M36.4629 132.224C36.4629 132.618 36.7781 132.938 37.1669 132.938C37.5556 132.938 37.8709 132.618 37.8709 132.224C37.8709 131.83 37.5556 131.511 37.1669 131.511C36.7781 131.511 36.4629 131.83 36.4629 132.224Z" fill="#718095" fill-opacity="0.62"/>
<path d="M65.8662 160.052C65.8662 160.617 66.3186 161.076 66.8769 161.076C67.4349 161.076 67.8875 160.617 67.8875 160.052C67.8875 159.486 67.4351 159.027 66.8769 159.027C66.3186 159.027 65.8662 159.486 65.8662 160.052Z" fill="#718095" fill-opacity="0.62"/>
<path d="M108.998 89.0391C108.502 89.0391 108.1 89.4465 108.1 89.9492C108.1 90.4519 108.502 90.8593 108.998 90.8593C109.494 90.8593 109.896 90.4519 109.896 89.9492C109.896 89.4465 109.494 89.0391 108.998 89.0391Z" fill="#718095" fill-opacity="0.62"/>
<path d="M126.158 168.496C126.158 168.641 126.274 168.759 126.418 168.759C126.561 168.759 126.677 168.641 126.677 168.496C126.677 168.351 126.561 168.233 126.418 168.233C126.274 168.233 126.158 168.351 126.158 168.496Z" fill="#718095" fill-opacity="0.62"/>
<path d="M112.931 150.451C113.195 150.451 113.408 150.234 113.408 149.967C113.408 149.7 113.195 149.483 112.931 149.483C112.668 149.483 112.454 149.7 112.454 149.967C112.454 150.234 112.668 150.451 112.931 150.451Z" fill="#718095" fill-opacity="0.62"/>
<path d="M83.6001 153.291C84.1364 153.291 84.5712 152.85 84.5712 152.306C84.5712 151.763 84.1364 151.322 83.6001 151.322C83.0637 151.322 82.6289 151.763 82.6289 152.306C82.6289 152.85 83.0637 153.291 83.6001 153.291Z" fill="#718095" fill-opacity="0.62"/>
<path d="M45.1211 141.813C45.1211 142.023 45.2894 142.194 45.4971 142.194C45.7047 142.194 45.8732 142.023 45.8732 141.813C45.8732 141.602 45.7049 141.432 45.4971 141.432C45.2894 141.432 45.1211 141.602 45.1211 141.813Z" fill="#718095" fill-opacity="0.62"/>
<path d="M91.1726 92.2537C91.3806 92.2537 91.5492 92.0828 91.5492 91.872C91.5492 91.6611 91.3806 91.4902 91.1726 91.4902C90.9645 91.4902 90.7959 91.6611 90.7959 91.872C90.7959 92.0828 90.9645 92.2537 91.1726 92.2537Z" fill="#718095" fill-opacity="0.62"/>
<path d="M128.852 157.313C128.615 157.313 128.423 157.508 128.423 157.749C128.423 157.989 128.615 158.184 128.852 158.184C129.09 158.184 129.282 157.989 129.282 157.749C129.282 157.508 129.09 157.313 128.852 157.313Z" fill="#718095" fill-opacity="0.62"/>
<path d="M40.8965 118.411C40.8965 118.768 41.1823 119.058 41.535 119.058C41.8875 119.058 42.1735 118.768 42.1735 118.411C42.1735 118.053 41.8877 117.764 41.535 117.764C41.1823 117.764 40.8965 118.053 40.8965 118.411Z" fill="#718095" fill-opacity="0.62"/>
<path d="M53.2284 89.8193C53.0726 89.8193 52.9463 89.9473 52.9463 90.1054C52.9463 90.2633 53.0726 90.3913 53.2284 90.3913C53.3842 90.3913 53.5107 90.2633 53.5107 90.1054C53.5107 89.9473 53.3844 89.8193 53.2284 89.8193Z" fill="#718095" fill-opacity="0.62"/>
<path d="M105.078 122.239C105.276 122.239 105.435 122.077 105.435 121.877C105.435 121.678 105.276 121.516 105.078 121.516C104.881 121.516 104.722 121.678 104.722 121.877C104.722 122.077 104.881 122.239 105.078 122.239Z" fill="#718095" fill-opacity="0.62"/>
<path d="M78.2761 75.3789C77.7316 75.3789 77.29 75.8264 77.29 76.3782C77.29 76.9301 77.7316 77.3776 78.2761 77.3776C78.8207 77.3776 79.2622 76.9301 79.2622 76.3782C79.2622 75.8264 78.8209 75.3789 78.2761 75.3789Z" fill="#718095" fill-opacity="0.62"/>
<path d="M63.167 138.626C63.167 138.811 63.3146 138.96 63.4968 138.96C63.679 138.96 63.8266 138.811 63.8266 138.626C63.8266 138.442 63.679 138.292 63.4968 138.292C63.3146 138.292 63.167 138.442 63.167 138.626Z" fill="#718095" fill-opacity="0.62"/>
<path d="M77.5242 87.6886C77.5242 87.5386 77.4043 87.417 77.2562 87.417C77.1082 87.417 76.9883 87.5386 76.9883 87.6886C76.9883 87.8386 77.1082 87.9601 77.2562 87.9601C77.4043 87.9601 77.5242 87.8386 77.5242 87.6886Z" fill="#718095" fill-opacity="0.62"/>
<path d="M64.6713 169.608C65.0517 169.608 65.3601 169.296 65.3601 168.91C65.3601 168.524 65.0517 168.212 64.6713 168.212C64.2908 168.212 63.9824 168.524 63.9824 168.91C63.9824 169.296 64.2908 169.608 64.6713 169.608Z" fill="#718095" fill-opacity="0.62"/>
<path d="M99.543 119.156C99.543 119.413 99.7485 119.621 100.002 119.621C100.256 119.621 100.461 119.413 100.461 119.156C100.461 118.899 100.256 118.69 100.002 118.69C99.7485 118.69 99.543 118.899 99.543 119.156Z" fill="#718095" fill-opacity="0.62"/>
<path d="M90.9038 120.144C91.4386 120.144 91.8721 119.705 91.8721 119.163C91.8721 118.621 91.4386 118.182 90.9038 118.182C90.3691 118.182 89.9355 118.621 89.9355 119.163C89.9355 119.705 90.3691 120.144 90.9038 120.144Z" fill="#718095" fill-opacity="0.62"/>
<path d="M101.166 77.4637C101.166 77.3182 101.05 77.2002 100.906 77.2002C100.763 77.2002 100.646 77.3182 100.646 77.4637C100.646 77.6091 100.763 77.7271 100.906 77.7271C101.05 77.7271 101.166 77.6093 101.166 77.4637Z" fill="#718095" fill-opacity="0.62"/>
<path d="M120.521 138.268C120.521 138.782 120.932 139.199 121.439 139.199C121.947 139.199 122.358 138.782 122.358 138.268C122.358 137.754 121.947 137.337 121.439 137.337C120.932 137.337 120.521 137.754 120.521 138.268Z" fill="#718095" fill-opacity="0.62"/>
<path d="M98.0593 88.0017C98.0593 87.7019 97.8196 87.459 97.5238 87.459C97.228 87.459 96.9883 87.7019 96.9883 88.0017C96.9883 88.3015 97.228 88.5444 97.5238 88.5444C97.8196 88.5444 98.0593 88.3015 98.0593 88.0017Z" fill="#718095" fill-opacity="0.62"/>
<path d="M46.7516 77.8805C46.9018 77.8805 47.0236 77.7571 47.0236 77.6048C47.0236 77.4525 46.9018 77.3291 46.7516 77.3291C46.6013 77.3291 46.4795 77.4525 46.4795 77.6048C46.4795 77.7571 46.6013 77.8805 46.7516 77.8805Z" fill="#718095" fill-opacity="0.62"/>
<path d="M52.2832 126.622C52.2832 126.935 52.5332 127.188 52.8415 127.188C53.1498 127.188 53.3997 126.935 53.3997 126.622C53.3997 126.31 53.1498 126.057 52.8415 126.057C52.5332 126.057 52.2832 126.31 52.2832 126.622Z" fill="#718095" fill-opacity="0.62"/>
<path d="M63.83 123.837C63.6828 123.837 63.5635 123.958 63.5635 124.107C63.5635 124.256 63.6828 124.377 63.83 124.377C63.9772 124.377 64.0965 124.256 64.0965 124.107C64.0965 123.958 63.9772 123.837 63.83 123.837Z" fill="#718095" fill-opacity="0.62"/>
<path d="M71.2295 135.318C71.3941 135.318 71.5274 135.182 71.5274 135.016C71.5274 134.849 71.3939 134.714 71.2295 134.714C71.0651 134.714 70.9316 134.849 70.9316 135.016C70.9316 135.183 71.0651 135.318 71.2295 135.318Z" fill="#718095" fill-opacity="0.62"/>
<path d="M124.623 79.8652C124.451 79.8652 124.312 80.0061 124.312 80.18C124.312 80.3538 124.451 80.4947 124.623 80.4947C124.795 80.4947 124.934 80.3538 124.934 80.18C124.934 80.0061 124.794 79.8652 124.623 79.8652Z" fill="#718095" fill-opacity="0.62"/>
<path d="M47.4023 134.776C47.4023 135.284 47.8093 135.697 48.3113 135.697C48.8132 135.697 49.2204 135.285 49.2204 134.776C49.2204 134.267 48.8134 133.854 48.3113 133.854C47.8091 133.854 47.4023 134.267 47.4023 134.776Z" fill="#718095" fill-opacity="0.62"/>
<path d="M126.942 131.623C126.942 131.827 127.106 131.993 127.308 131.993C127.509 131.993 127.673 131.827 127.673 131.623C127.673 131.419 127.509 131.253 127.308 131.253C127.106 131.253 126.942 131.419 126.942 131.623Z" fill="#718095" fill-opacity="0.62"/>
<path d="M51.9835 114.883C51.9835 114.443 51.6318 114.087 51.1978 114.087C50.764 114.087 50.4121 114.443 50.4121 114.883C50.4121 115.323 50.7638 115.679 51.1978 115.679C51.6316 115.679 51.9835 115.323 51.9835 114.883Z" fill="#718095" fill-opacity="0.62"/>
<path d="M85.9514 98.7988C85.4205 98.7988 84.9902 99.2349 84.9902 99.7728C84.9902 100.311 85.4205 100.747 85.9514 100.747C86.4822 100.747 86.9125 100.311 86.9125 99.7728C86.9125 99.2349 86.4822 98.7988 85.9514 98.7988Z" fill="#718095" fill-opacity="0.62"/>
<path d="M43.4052 110.019C43.8577 110.019 44.2245 109.647 44.2245 109.189C44.2245 108.73 43.8577 108.358 43.4052 108.358C42.9527 108.358 42.5859 108.73 42.5859 109.189C42.5859 109.647 42.9527 110.019 43.4052 110.019Z" fill="#718095" fill-opacity="0.62"/>
<path d="M100.947 137.487C100.947 137.712 101.127 137.894 101.349 137.894C101.571 137.894 101.751 137.712 101.751 137.487C101.751 137.262 101.571 137.08 101.349 137.08C101.127 137.08 100.947 137.262 100.947 137.487Z" fill="#718095" fill-opacity="0.62"/>
<path d="M33.963 146.713C34.2678 146.713 34.5149 146.463 34.5149 146.154C34.5149 145.845 34.2678 145.595 33.963 145.595C33.6582 145.595 33.4111 145.845 33.4111 146.154C33.4111 146.463 33.6582 146.713 33.963 146.713Z" fill="#718095" fill-opacity="0.62"/>
<path d="M129.068 105.751C129.068 105.551 128.908 105.389 128.71 105.389C128.513 105.389 128.353 105.551 128.353 105.751C128.353 105.951 128.513 106.114 128.71 106.114C128.908 106.114 129.068 105.951 129.068 105.751Z" fill="#718095" fill-opacity="0.62"/>
<path d="M106.856 78.7108C107.232 78.7108 107.537 78.4015 107.537 78.0199C107.537 77.6384 107.232 77.3291 106.856 77.3291C106.479 77.3291 106.174 77.6384 106.174 78.0199C106.174 78.4015 106.479 78.7108 106.856 78.7108Z" fill="#718095" fill-opacity="0.62"/>
<path d="M89.196 157.333C89.196 157.163 89.0601 157.025 88.8925 157.025C88.7248 157.025 88.5889 157.163 88.5889 157.333C88.5889 157.503 88.7248 157.641 88.8925 157.641C89.0601 157.641 89.196 157.503 89.196 157.333Z" fill="#718095" fill-opacity="0.62"/>
<path d="M60.2549 155.656C60.2549 156.131 60.635 156.517 61.1038 156.517C61.5726 156.517 61.9528 156.131 61.9528 155.656C61.9528 155.181 61.5726 154.796 61.1038 154.796C60.635 154.796 60.2549 155.181 60.2549 155.656Z" fill="#718095" fill-opacity="0.62"/>
<path d="M128.761 115.399C128.999 115.399 129.192 115.203 129.192 114.962C129.192 114.722 128.999 114.526 128.761 114.526C128.524 114.526 128.331 114.722 128.331 114.962C128.331 115.203 128.524 115.399 128.761 115.399Z" fill="#718095" fill-opacity="0.62"/>
<path d="M118.623 78.5251C118.892 78.4112 119.02 78.0977 118.907 77.8248C118.795 77.5519 118.485 77.423 118.216 77.5369C117.947 77.6508 117.82 77.9644 117.932 78.2373C118.044 78.5102 118.354 78.6391 118.623 78.5251Z" fill="#718095" fill-opacity="0.62"/>
<path d="M71.5666 144.573C72.0113 144.573 72.3716 144.208 72.3716 143.757C72.3716 143.307 72.0113 142.941 71.5666 142.941C71.1222 142.941 70.7617 143.307 70.7617 143.757C70.7617 144.208 71.122 144.573 71.5666 144.573Z" fill="#718095" fill-opacity="0.62"/>
<path d="M35.4666 116.959C35.4666 116.557 35.1446 116.23 34.7475 116.23C34.3503 116.23 34.0283 116.557 34.0283 116.959C34.0283 117.362 34.3503 117.688 34.7475 117.688C35.1446 117.688 35.4666 117.362 35.4666 116.959Z" fill="#718095" fill-opacity="0.62"/>
<path d="M127.791 92.263C127.791 92.0902 127.653 91.9502 127.483 91.9502C127.312 91.9502 127.174 92.0902 127.174 92.263C127.174 92.4359 127.312 92.5759 127.483 92.5759C127.653 92.5759 127.791 92.4359 127.791 92.263Z" fill="#718095" fill-opacity="0.62"/>
<path d="M57.7725 116.887C57.7725 117.137 57.9721 117.339 58.2183 117.339C58.4646 117.339 58.6642 117.137 58.6642 116.887C58.6642 116.638 58.4646 116.436 58.2183 116.436C57.9721 116.436 57.7725 116.638 57.7725 116.887Z" fill="#718095" fill-opacity="0.62"/>
<path d="M109.024 98.7203C109.535 98.7203 109.949 98.3007 109.949 97.783C109.949 97.2653 109.535 96.8457 109.024 96.8457C108.514 96.8457 108.1 97.2653 108.1 97.783C108.1 98.3007 108.514 98.7203 109.024 98.7203Z" fill="#718095" fill-opacity="0.62"/>
<path d="M73.1699 164.472C73.1699 164.656 73.3175 164.806 73.4995 164.806C73.6815 164.806 73.8291 164.656 73.8291 164.472C73.8291 164.287 73.6815 164.138 73.4995 164.138C73.3175 164.138 73.1699 164.287 73.1699 164.472Z" fill="#718095" fill-opacity="0.62"/>
<path d="M54.1797 140.918C54.1797 141.083 54.3119 141.217 54.4751 141.217C54.6382 141.217 54.7705 141.083 54.7705 140.918C54.7705 140.752 54.6382 140.618 54.4751 140.618C54.3119 140.618 54.1797 140.752 54.1797 140.918Z" fill="#718095" fill-opacity="0.62"/>
<path d="M92.1858 163.258C92.577 163.258 92.8941 162.937 92.8941 162.54C92.8941 162.144 92.577 161.822 92.1858 161.822C91.7947 161.822 91.4775 162.144 91.4775 162.54C91.4775 162.937 91.7947 163.258 92.1858 163.258Z" fill="#718095" fill-opacity="0.62"/>
<path d="M81.9176 122.81C81.7506 122.81 81.6152 122.947 81.6152 123.116C81.6152 123.285 81.7506 123.422 81.9176 123.422C82.0846 123.422 82.22 123.285 82.22 123.116C82.2198 122.947 82.0844 122.81 81.9176 122.81Z" fill="#718095" fill-opacity="0.62"/>
<path d="M40.4766 162.298C40.4766 162.827 40.8995 163.255 41.4211 163.255C41.9427 163.255 42.3656 162.827 42.3656 162.298C42.3656 161.769 41.9427 161.341 41.4211 161.341C40.8995 161.341 40.4766 161.769 40.4766 162.298Z" fill="#718095" fill-opacity="0.62"/>
<path d="M34.2465 162.888C34.477 162.888 34.6639 162.699 34.6639 162.465C34.6639 162.232 34.477 162.042 34.2465 162.042C34.016 162.042 33.8291 162.231 33.8291 162.465C33.8289 162.699 34.0158 162.888 34.2465 162.888Z" fill="#718095" fill-opacity="0.62"/>
<path d="M60.7808 74C60.4671 74 60.2129 74.2577 60.2129 74.5755C60.2129 74.8933 60.4671 75.151 60.7808 75.151C61.0944 75.151 61.3486 74.8933 61.3486 74.5755C61.3488 74.2577 61.0944 74 60.7808 74Z" fill="#718095" fill-opacity="0.62"/>
<path d="M117.131 89.1321C117.411 89.1321 117.637 88.9025 117.637 88.6193C117.637 88.3361 117.411 88.1064 117.131 88.1064C116.852 88.1064 116.625 88.3361 116.625 88.6193C116.625 88.9025 116.852 89.1321 117.131 89.1321Z" fill="#718095" fill-opacity="0.62"/>
<path d="M100.365 158.389C100.206 158.389 100.077 158.519 100.077 158.681C100.077 158.842 100.206 158.972 100.365 158.972C100.524 158.972 100.653 158.842 100.653 158.681C100.653 158.519 100.524 158.389 100.365 158.389Z" fill="#718095" fill-opacity="0.62"/>
<path d="M54.9714 81.0647C54.9714 80.7011 54.6805 80.4062 54.3216 80.4062C53.9628 80.4062 53.6719 80.7011 53.6719 81.0647C53.6719 81.4284 53.9628 81.7232 54.3216 81.7232C54.6805 81.7232 54.9714 81.4284 54.9714 81.0647Z" fill="#718095" fill-opacity="0.62"/>
<path d="M81.8672 134.112C81.8672 134.51 82.1859 134.833 82.579 134.833C82.9722 134.833 83.2908 134.51 83.2908 134.112C83.2908 133.713 82.972 133.391 82.579 133.391C82.1859 133.39 81.8672 133.713 81.8672 134.112Z" fill="#718095" fill-opacity="0.62"/>
<path d="M42.6374 151.99C42.2767 151.99 41.9844 152.286 41.9844 152.652C41.9844 153.018 42.2767 153.314 42.6374 153.314C42.9981 153.314 43.2904 153.018 43.2904 152.652C43.2904 152.287 42.9981 151.99 42.6374 151.99Z" fill="#718095" fill-opacity="0.62"/>
<path d="M41.0816 79.2822C40.8726 79.2822 40.7031 79.454 40.7031 79.6656C40.7031 79.8772 40.8726 80.0492 41.0816 80.0492C41.2906 80.0492 41.4602 79.8774 41.4602 79.6656C41.4602 79.4538 41.2906 79.2822 41.0816 79.2822Z" fill="#718095" fill-opacity="0.62"/>
<path d="M61.5035 91.7967C61.98 91.7967 62.3663 91.4052 62.3663 90.9223C62.3663 90.4394 61.98 90.0479 61.5035 90.0479C61.0269 90.0479 60.6406 90.4394 60.6406 90.9223C60.6406 91.4052 61.0269 91.7967 61.5035 91.7967Z" fill="#718095" fill-opacity="0.62"/>
<path d="M118.445 98.2975C118.841 98.2975 119.161 97.9724 119.161 97.5716C119.161 97.1706 118.84 96.8457 118.445 96.8457C118.049 96.8457 117.729 97.1708 117.729 97.5716C117.729 97.9724 118.049 98.2975 118.445 98.2975Z" fill="#718095" fill-opacity="0.62"/>
<path d="M72.2314 102.206C72.6284 102.206 72.9502 101.88 72.9502 101.477C72.9502 101.075 72.6284 100.749 72.2314 100.749C71.8345 100.749 71.5127 101.075 71.5127 101.477C71.5127 101.88 71.8345 102.206 72.2314 102.206Z" fill="#718095" fill-opacity="0.62"/>
<path d="M47.7382 102.604C47.3466 102.604 47.0293 102.925 47.0293 103.322C47.0293 103.719 47.3466 104.04 47.7382 104.04C48.1296 104.04 48.4471 103.719 48.4471 103.322C48.4471 102.925 48.1296 102.604 47.7382 102.604Z" fill="#718095" fill-opacity="0.62"/>
<path d="M122.132 120.583C122.609 120.583 122.995 120.192 122.995 119.709C122.995 119.226 122.609 118.835 122.132 118.835C121.656 118.835 121.27 119.226 121.27 119.709C121.27 120.192 121.656 120.583 122.132 120.583Z" fill="#718095" fill-opacity="0.62"/>
<path d="M56.3555 163.489C56.6823 163.489 56.9473 163.22 56.9473 162.889C56.9473 162.558 56.6823 162.289 56.3555 162.289C56.0286 162.289 55.7637 162.558 55.7637 162.889C55.7637 163.22 56.0286 163.489 56.3555 163.489Z" fill="#718095" fill-opacity="0.62"/>
<path d="M116.467 129.943C116.467 130.094 116.588 130.217 116.738 130.217C116.887 130.217 117.009 130.094 117.009 129.943C117.009 129.791 116.888 129.668 116.738 129.668C116.588 129.668 116.467 129.791 116.467 129.943Z" fill="#718095" fill-opacity="0.62"/>
<path d="M113.196 164.713C113.196 164.977 113.408 165.191 113.668 165.191C113.929 165.191 114.14 164.977 114.14 164.713C114.14 164.449 113.928 164.235 113.668 164.235C113.407 164.235 113.196 164.449 113.196 164.713Z" fill="#718095" fill-opacity="0.62"/>
<path d="M35.8563 96.5755C35.8563 96.0112 35.4049 95.5537 34.8481 95.5537C34.2912 95.5537 33.8398 96.0112 33.8398 96.5755C33.8398 97.1397 34.2912 97.5972 34.8481 97.5972C35.4049 97.5974 35.8563 97.1399 35.8563 96.5755Z" fill="#718095" fill-opacity="0.62"/>
<path d="M115.247 109.343C115.247 108.904 114.896 108.548 114.463 108.548C114.03 108.548 113.679 108.904 113.679 109.343C113.679 109.782 114.03 110.137 114.463 110.137C114.896 110.137 115.247 109.781 115.247 109.343Z" fill="#718095" fill-opacity="0.62"/>
<path d="M100.248 166.244C100.049 166.244 99.8887 166.407 99.8887 166.608C99.8887 166.809 100.049 166.971 100.248 166.971C100.446 166.971 100.606 166.809 100.606 166.608C100.606 166.407 100.446 166.244 100.248 166.244Z" fill="#718095" fill-opacity="0.62"/>
<path d="M76.5788 97.9126C76.5788 97.724 76.4279 97.5713 76.242 97.5713C76.0559 97.5713 75.9053 97.7242 75.9053 97.9126C75.9053 98.1009 76.0561 98.2538 76.242 98.2538C76.4281 98.2538 76.5788 98.1009 76.5788 97.9126Z" fill="#718095" fill-opacity="0.62"/>
<path d="M127.584 150.443C128.021 150.443 128.376 150.084 128.376 149.641C128.376 149.198 128.021 148.839 127.584 148.839C127.147 148.839 126.793 149.198 126.793 149.641C126.793 150.084 127.147 150.443 127.584 150.443Z" fill="#718095" fill-opacity="0.62"/>
<path d="M112.944 137.893C113.162 137.893 113.339 137.713 113.339 137.492C113.339 137.27 113.162 137.091 112.944 137.091C112.725 137.091 112.548 137.27 112.548 137.492C112.548 137.713 112.725 137.893 112.944 137.893Z" fill="#718095" fill-opacity="0.62"/>
<path d="M87.1122 167.643C87.5458 167.643 87.8973 167.287 87.8973 166.847C87.8973 166.408 87.5458 166.052 87.1122 166.052C86.6786 166.052 86.3271 166.408 86.3271 166.847C86.3271 167.287 86.6786 167.643 87.1122 167.643Z" fill="#718095" fill-opacity="0.62"/>
<path d="M95.1451 109.148C95.6427 109.148 96.046 108.74 96.046 108.235C96.046 107.731 95.6427 107.322 95.1451 107.322C94.6475 107.322 94.2441 107.731 94.2441 108.235C94.2441 108.74 94.6475 109.148 95.1451 109.148Z" fill="#718095" fill-opacity="0.62"/>
<path d="M99.3014 128.811C99.3014 128.629 99.1556 128.481 98.9759 128.481C98.7961 128.481 98.6504 128.629 98.6504 128.811C98.6504 128.993 98.7961 129.141 98.9759 129.141C99.1556 129.141 99.3014 128.993 99.3014 128.811Z" fill="#718095" fill-opacity="0.62"/>
<path d="M33 125.712C33 125.933 33.1771 126.113 33.3957 126.113C33.6143 126.113 33.7914 125.933 33.7914 125.712C33.7914 125.49 33.6143 125.311 33.3957 125.311C33.1771 125.311 33 125.49 33 125.712Z" fill="#718095" fill-opacity="0.62"/>
<path d="M104.703 147.484C104.703 147.031 104.341 146.664 103.894 146.664C103.447 146.664 103.085 147.031 103.085 147.484C103.085 147.937 103.447 148.304 103.894 148.304C104.341 148.304 104.703 147.937 104.703 147.484Z" fill="#718095" fill-opacity="0.62"/>
<path d="M57.9676 102.23C58.1152 102.23 58.2349 102.109 58.2349 101.959C58.2349 101.81 58.1152 101.688 57.9676 101.688C57.8199 101.688 57.7002 101.81 57.7002 101.959C57.7002 102.109 57.8199 102.23 57.9676 102.23Z" fill="#718095" fill-opacity="0.62"/>
<path d="M107.715 109.277C107.715 109.046 107.53 108.858 107.302 108.858C107.074 108.858 106.889 109.046 106.889 109.277C106.889 109.508 107.074 109.695 107.302 109.695C107.53 109.695 107.715 109.508 107.715 109.277Z" fill="#718095" fill-opacity="0.62"/>
<path d="M41.9717 125C41.9717 125.329 42.2345 125.595 42.5588 125.595C42.8831 125.595 43.1459 125.329 43.1459 125C43.1459 124.672 42.8831 124.405 42.5588 124.405C42.2345 124.405 41.9717 124.672 41.9717 125Z" fill="#718095" fill-opacity="0.62"/>
<path d="M55.8203 149.755C55.6531 149.755 55.5176 149.892 55.5176 150.062C55.5176 150.231 55.6531 150.369 55.8203 150.369C55.9876 150.369 56.1231 150.231 56.1231 150.062C56.1229 149.892 55.9874 149.755 55.8203 149.755Z" fill="#718095" fill-opacity="0.62"/>
<path d="M37.6928 105.547C37.8673 105.547 38.0087 105.404 38.0087 105.227C38.0087 105.051 37.8673 104.907 37.6928 104.907C37.5184 104.907 37.377 105.051 37.377 105.227C37.377 105.404 37.5184 105.547 37.6928 105.547Z" fill="#718095" fill-opacity="0.62"/>
<path d="M90.7686 84.0319C90.7686 84.4987 91.142 84.8773 91.6028 84.8773C92.0636 84.8773 92.437 84.4989 92.437 84.0319C92.437 83.5649 92.0636 83.1865 91.6028 83.1865C91.142 83.1865 90.7686 83.5649 90.7686 84.0319Z" fill="#718095" fill-opacity="0.62"/>
<path d="M52.8154 168.354C52.8154 168.636 53.0406 168.864 53.3184 168.864C53.5962 168.864 53.8214 168.636 53.8214 168.354C53.8214 168.073 53.5962 167.845 53.3184 167.845C53.0406 167.845 52.8154 168.073 52.8154 168.354Z" fill="#718095" fill-opacity="0.62"/>
<path d="M68.2284 83.1865C67.9152 83.1865 67.6611 83.444 67.6611 83.7614C67.6611 84.0788 67.9152 84.3363 68.2284 84.3363C68.5416 84.3363 68.7956 84.0788 68.7956 83.7614C68.7956 83.444 68.5418 83.1865 68.2284 83.1865Z" fill="#718095" fill-opacity="0.62"/>
<path d="M75.0631 160.846C75.2986 160.846 75.4895 160.652 75.4895 160.414C75.4895 160.175 75.2986 159.981 75.0631 159.981C74.8276 159.981 74.6367 160.175 74.6367 160.414C74.6367 160.652 74.8276 160.846 75.0631 160.846Z" fill="#718095" fill-opacity="0.62"/>
<path d="M43.4264 159.409C43.4264 158.894 43.0139 158.476 42.5052 158.476C41.9965 158.476 41.584 158.894 41.584 159.409C41.584 159.925 41.9963 160.343 42.5052 160.343C43.0141 160.343 43.4264 159.925 43.4264 159.409Z" fill="#718095" fill-opacity="0.62"/>
<path d="M15.8359 128.748C15.8359 129.006 16.0425 129.215 16.2972 129.215C16.5518 129.215 16.7584 129.006 16.7584 128.748C16.7584 128.49 16.5518 128.28 16.2972 128.28C16.0423 128.28 15.8359 128.49 15.8359 128.748Z" fill="#718095" fill-opacity="0.62"/>
<path d="M63.334 137.76C63.334 137.584 63.1931 137.441 63.0195 137.441C62.8459 137.441 62.7051 137.584 62.7051 137.76C62.7051 137.936 62.8459 138.079 63.0195 138.079C63.1931 138.079 63.334 137.936 63.334 137.76Z" fill="#718095" fill-opacity="0.62"/>
<path d="M24.1722 128.238C24.1722 128.091 24.0545 127.972 23.9093 127.972C23.7642 127.972 23.6465 128.091 23.6465 128.238C23.6465 128.385 23.7642 128.504 23.9093 128.504C24.0545 128.504 24.1722 128.385 24.1722 128.238Z" fill="#718095" fill-opacity="0.62"/>
<path d="M76.459 118.119C76.7683 117.988 76.9141 117.628 76.7848 117.315C76.6555 117.001 76.2999 116.853 75.9907 116.984C75.6814 117.115 75.5355 117.476 75.6648 117.789C75.7942 118.103 76.1497 118.25 76.459 118.119Z" fill="#718095" fill-opacity="0.62"/>
<path d="M58.9977 105.039C58.5017 105.039 58.0996 105.447 58.0996 105.949C58.0996 106.452 58.5017 106.859 58.9977 106.859C59.4937 106.859 59.8958 106.452 59.8958 105.949C59.8958 105.447 59.4937 105.039 58.9977 105.039Z" fill="#718095" fill-opacity="0.62"/>
<path d="M62.9313 166.451C63.1948 166.451 63.4085 166.234 63.4085 165.967C63.4085 165.7 63.1948 165.483 62.9313 165.483C62.6676 165.483 62.4541 165.7 62.4541 165.967C62.4541 166.234 62.6676 166.451 62.9313 166.451Z" fill="#718095" fill-opacity="0.62"/>
<path d="M33.6001 169.291C34.1364 169.291 34.5712 168.85 34.5712 168.306C34.5712 167.763 34.1364 167.322 33.6001 167.322C33.0637 167.322 32.6289 167.763 32.6289 168.306C32.6289 168.85 33.0637 169.291 33.6001 169.291Z" fill="#718095" fill-opacity="0.62"/>
<path d="M41.1726 108.254C41.3806 108.254 41.5492 108.083 41.5492 107.872C41.5492 107.661 41.3806 107.49 41.1726 107.49C40.9645 107.49 40.7959 107.661 40.7959 107.872C40.7959 108.083 40.9645 108.254 41.1726 108.254Z" fill="#718095" fill-opacity="0.62"/>
<path d="M78.8523 173.313C78.6151 173.313 78.4229 173.508 78.4229 173.749C78.4229 173.989 78.6151 174.184 78.8523 174.184C79.0896 174.184 79.2818 173.989 79.2818 173.749C79.2818 173.508 79.0896 173.313 78.8523 173.313Z" fill="#718095" fill-opacity="0.62"/>
<path d="M3.22838 105.819C3.0726 105.819 2.94629 105.947 2.94629 106.105C2.94629 106.263 3.0726 106.391 3.22838 106.391C3.38417 106.391 3.51068 106.263 3.51068 106.105C3.51068 105.947 3.38437 105.819 3.22838 105.819Z" fill="#718095" fill-opacity="0.62"/>
<path d="M55.0785 138.239C55.2756 138.239 55.4353 138.077 55.4353 137.877C55.4353 137.678 55.2756 137.516 55.0785 137.516C54.8814 137.516 54.7217 137.678 54.7217 137.877C54.7217 138.077 54.8814 138.239 55.0785 138.239Z" fill="#718095" fill-opacity="0.62"/>
<path d="M28.2761 91.3789C27.7316 91.3789 27.29 91.8264 27.29 92.3782C27.29 92.9301 27.7316 93.3776 28.2761 93.3776C28.8207 93.3776 29.2622 92.9301 29.2622 92.3782C29.2622 91.8264 28.8209 91.3789 28.2761 91.3789Z" fill="#718095" fill-opacity="0.62"/>
<path d="M13.167 154.626C13.167 154.811 13.3146 154.96 13.4968 154.96C13.679 154.96 13.8266 154.811 13.8266 154.626C13.8266 154.442 13.679 154.292 13.4968 154.292C13.3146 154.292 13.167 154.442 13.167 154.626Z" fill="#718095" fill-opacity="0.62"/>
<path d="M27.5242 103.689C27.5242 103.539 27.4043 103.417 27.2562 103.417C27.1082 103.417 26.9883 103.539 26.9883 103.689C26.9883 103.839 27.1082 103.96 27.2562 103.96C27.4043 103.96 27.5242 103.839 27.5242 103.689Z" fill="#718095" fill-opacity="0.62"/>
<path d="M49.543 135.156C49.543 135.413 49.7485 135.621 50.0021 135.621C50.2558 135.621 50.4613 135.413 50.4613 135.156C50.4613 134.899 50.2558 134.69 50.0021 134.69C49.7485 134.69 49.543 134.899 49.543 135.156Z" fill="#718095" fill-opacity="0.62"/>
<path d="M40.9038 136.144C41.4386 136.144 41.8721 135.705 41.8721 135.163C41.8721 134.621 41.4386 134.182 40.9038 134.182C40.3691 134.182 39.9355 134.621 39.9355 135.163C39.9355 135.705 40.3691 136.144 40.9038 136.144Z" fill="#718095" fill-opacity="0.62"/>
<path d="M51.1665 93.4637C51.1665 93.3182 51.0502 93.2002 50.9065 93.2002C50.763 93.2002 50.6465 93.3182 50.6465 93.4637C50.6465 93.6091 50.763 93.7271 50.9065 93.7271C51.0502 93.7271 51.1665 93.6093 51.1665 93.4637Z" fill="#718095" fill-opacity="0.62"/>
<path d="M70.5205 154.268C70.5205 154.782 70.9318 155.199 71.4393 155.199C71.9467 155.199 72.358 154.782 72.358 154.268C72.358 153.754 71.9465 153.337 71.4393 153.337C70.932 153.337 70.5205 153.754 70.5205 154.268Z" fill="#718095" fill-opacity="0.62"/>
<path d="M48.0593 104.002C48.0593 103.702 47.8196 103.459 47.5238 103.459C47.228 103.459 46.9883 103.702 46.9883 104.002C46.9883 104.301 47.228 104.544 47.5238 104.544C47.8196 104.544 48.0593 104.301 48.0593 104.002Z" fill="#718095" fill-opacity="0.62"/>
<path d="M2.2832 142.622C2.2832 142.935 2.53316 143.188 2.84145 143.188C3.14975 143.188 3.3997 142.935 3.3997 142.622C3.3997 142.31 3.14975 142.057 2.84145 142.057C2.53316 142.057 2.2832 142.31 2.2832 142.622Z" fill="#718095" fill-opacity="0.62"/>
<path d="M13.83 139.837C13.6828 139.837 13.5635 139.958 13.5635 140.107C13.5635 140.256 13.6828 140.377 13.83 140.377C13.9772 140.377 14.0965 140.256 14.0965 140.107C14.0965 139.958 13.9772 139.837 13.83 139.837Z" fill="#718095" fill-opacity="0.62"/>
<path d="M21.2295 151.318C21.3941 151.318 21.5274 151.182 21.5274 151.016C21.5274 150.849 21.3939 150.714 21.2295 150.714C21.0651 150.714 20.9316 150.849 20.9316 151.016C20.9316 151.183 21.0651 151.318 21.2295 151.318Z" fill="#718095" fill-opacity="0.62"/>
<path d="M74.623 95.8652C74.4515 95.8652 74.3125 96.0061 74.3125 96.18C74.3125 96.3538 74.4515 96.4947 74.623 96.4947C74.7946 96.4947 74.9336 96.3538 74.9336 96.18C74.9336 96.0061 74.7944 95.8652 74.623 95.8652Z" fill="#718095" fill-opacity="0.62"/>
<path d="M76.9424 147.623C76.9424 147.827 77.1059 147.993 77.3076 147.993C77.5092 147.993 77.6728 147.827 77.6728 147.623C77.6728 147.419 77.5092 147.253 77.3076 147.253C77.1059 147.253 76.9424 147.419 76.9424 147.623Z" fill="#718095" fill-opacity="0.62"/>
<path d="M1.98348 130.883C1.98348 130.443 1.63178 130.087 1.19779 130.087C0.764009 130.087 0.412109 130.443 0.412109 130.883C0.412109 131.323 0.763804 131.679 1.19779 131.679C1.63158 131.679 1.98348 131.323 1.98348 130.883Z" fill="#718095" fill-opacity="0.62"/>
<path d="M35.9514 114.799C35.4205 114.799 34.9902 115.235 34.9902 115.773C34.9902 116.311 35.4205 116.747 35.9514 116.747C36.4822 116.747 36.9125 116.311 36.9125 115.773C36.9125 115.235 36.4822 114.799 35.9514 114.799Z" fill="#718095" fill-opacity="0.62"/>
<path d="M50.9473 153.487C50.9473 153.712 51.127 153.894 51.3489 153.894C51.5706 153.894 51.7506 153.712 51.7506 153.487C51.7506 153.262 51.5708 153.08 51.3489 153.08C51.1272 153.08 50.9473 153.262 50.9473 153.487Z" fill="#718095" fill-opacity="0.62"/>
<path d="M79.0678 121.751C79.0678 121.551 78.9077 121.389 78.7102 121.389C78.5126 121.389 78.3525 121.551 78.3525 121.751C78.3525 121.951 78.5126 122.114 78.7102 122.114C78.9077 122.114 79.0678 121.951 79.0678 121.751Z" fill="#718095" fill-opacity="0.62"/>
<path d="M56.8555 94.7108C57.232 94.7108 57.5372 94.4015 57.5372 94.0199C57.5372 93.6384 57.232 93.3291 56.8555 93.3291C56.479 93.3291 56.1738 93.6384 56.1738 94.0199C56.1738 94.4015 56.479 94.7108 56.8555 94.7108Z" fill="#718095" fill-opacity="0.62"/>
<path d="M39.196 173.333C39.196 173.163 39.0601 173.025 38.8925 173.025C38.7248 173.025 38.5889 173.163 38.5889 173.333C38.5889 173.503 38.7248 173.641 38.8925 173.641C39.0601 173.641 39.196 173.503 39.196 173.333Z" fill="#718095" fill-opacity="0.62"/>
<path d="M10.2549 171.656C10.2549 172.131 10.635 172.517 11.1038 172.517C11.5726 172.517 11.9528 172.131 11.9528 171.656C11.9528 171.181 11.5726 170.796 11.1038 170.796C10.635 170.796 10.2549 171.181 10.2549 171.656Z" fill="#718095" fill-opacity="0.62"/>
<path d="M78.7614 131.399C78.999 131.399 79.1917 131.203 79.1917 130.962C79.1917 130.722 78.999 130.526 78.7614 130.526C78.5237 130.526 78.3311 130.722 78.3311 130.962C78.3309 131.203 78.5237 131.399 78.7614 131.399Z" fill="#718095" fill-opacity="0.62"/>
<path d="M68.6231 94.5251C68.8924 94.4112 69.0196 94.0977 68.9072 93.8248C68.7948 93.5519 68.4854 93.423 68.2161 93.5369C67.9468 93.6508 67.8196 93.9644 67.932 94.2373C68.0444 94.5102 68.3539 94.6391 68.6231 94.5251Z" fill="#718095" fill-opacity="0.62"/>
<path d="M21.5666 160.573C22.0113 160.573 22.3716 160.208 22.3716 159.757C22.3716 159.307 22.0113 158.941 21.5666 158.941C21.1222 158.941 20.7617 159.307 20.7617 159.757C20.7617 160.208 21.122 160.573 21.5666 160.573Z" fill="#718095" fill-opacity="0.62"/>
<path d="M77.7912 108.263C77.7912 108.09 77.6531 107.95 77.4825 107.95C77.312 107.95 77.1738 108.09 77.1738 108.263C77.1738 108.436 77.312 108.576 77.4825 108.576C77.6531 108.576 77.7912 108.436 77.7912 108.263Z" fill="#718095" fill-opacity="0.62"/>
<path d="M7.77246 132.887C7.77246 133.137 7.97205 133.339 8.21832 133.339C8.46459 133.339 8.66419 133.137 8.66419 132.887C8.66419 132.638 8.46459 132.436 8.21832 132.436C7.97205 132.436 7.77246 132.638 7.77246 132.887Z" fill="#718095" fill-opacity="0.62"/>
<path d="M59.0245 114.72C59.5353 114.72 59.9494 114.301 59.9494 113.783C59.9494 113.265 59.5353 112.846 59.0245 112.846C58.5137 112.846 58.0996 113.265 58.0996 113.783C58.0996 114.301 58.5137 114.72 59.0245 114.72Z" fill="#718095" fill-opacity="0.62"/>
<path d="M4.17969 156.918C4.17969 157.083 4.31193 157.217 4.47509 157.217C4.63824 157.217 4.77049 157.083 4.77049 156.918C4.77049 156.752 4.63824 156.618 4.47509 156.618C4.31193 156.618 4.17969 156.752 4.17969 156.918Z" fill="#718095" fill-opacity="0.62"/>
<path d="M31.9176 138.81C31.7506 138.81 31.6152 138.947 31.6152 139.116C31.6152 139.285 31.7506 139.422 31.9176 139.422C32.0846 139.422 32.22 139.285 32.22 139.116C32.2198 138.947 32.0844 138.81 31.9176 138.81Z" fill="#718095" fill-opacity="0.62"/>
<path d="M10.7808 90C10.4671 90 10.2129 90.2577 10.2129 90.5755C10.2129 90.8933 10.4671 91.151 10.7808 91.151C11.0944 91.151 11.3486 90.8933 11.3486 90.5755C11.3488 90.2577 11.0944 90 10.7808 90Z" fill="#718095" fill-opacity="0.62"/>
<path d="M67.1311 105.132C67.4105 105.132 67.6371 104.903 67.6371 104.619C67.6371 104.336 67.4105 104.106 67.1311 104.106C66.8516 104.106 66.625 104.336 66.625 104.619C66.625 104.903 66.8516 105.132 67.1311 105.132Z" fill="#718095" fill-opacity="0.62"/>
<path d="M50.3652 174.389C50.2061 174.389 50.0771 174.519 50.0771 174.681C50.0771 174.842 50.2061 174.972 50.3652 174.972C50.5242 174.972 50.6532 174.842 50.6532 174.681C50.6532 174.519 50.5242 174.389 50.3652 174.389Z" fill="#718095" fill-opacity="0.62"/>
<path d="M4.97139 97.0647C4.97139 96.7011 4.68049 96.4062 4.32163 96.4062C3.96277 96.4062 3.67188 96.7011 3.67188 97.0647C3.67188 97.4284 3.96277 97.7232 4.32163 97.7232C4.68049 97.7232 4.97139 97.4284 4.97139 97.0647Z" fill="#718095" fill-opacity="0.62"/>
<path d="M31.8672 150.112C31.8672 150.51 32.1859 150.833 32.579 150.833C32.9722 150.833 33.2908 150.51 33.2908 150.112C33.2908 149.713 32.972 149.391 32.579 149.391C32.1859 149.39 31.8672 149.713 31.8672 150.112Z" fill="#718095" fill-opacity="0.62"/>
<path d="M11.5035 107.797C11.98 107.797 12.3663 107.405 12.3663 106.922C12.3663 106.439 11.98 106.048 11.5035 106.048C11.0269 106.048 10.6406 106.439 10.6406 106.922C10.6406 107.405 11.0269 107.797 11.5035 107.797Z" fill="#718095" fill-opacity="0.62"/>
<path d="M68.4448 114.298C68.8405 114.298 69.1611 113.972 69.1611 113.572C69.1611 113.171 68.8403 112.846 68.4448 112.846C68.0491 112.846 67.7285 113.171 67.7285 113.572C67.7285 113.972 68.0493 114.298 68.4448 114.298Z" fill="#718095" fill-opacity="0.62"/>
<path d="M22.2314 118.206C22.6284 118.206 22.9502 117.88 22.9502 117.477C22.9502 117.075 22.6284 116.749 22.2314 116.749C21.8345 116.749 21.5127 117.075 21.5127 117.477C21.5127 117.88 21.8345 118.206 22.2314 118.206Z" fill="#718095" fill-opacity="0.62"/>
<path d="M72.1322 136.583C72.6086 136.583 72.9948 136.192 72.9948 135.709C72.9948 135.226 72.6086 134.835 72.1322 134.835C71.6558 134.835 71.2695 135.226 71.2695 135.709C71.2695 136.192 71.6558 136.583 72.1322 136.583Z" fill="#718095" fill-opacity="0.62"/>
<path d="M66.4668 145.943C66.4668 146.094 66.5882 146.217 66.7378 146.217C66.8875 146.217 67.0089 146.094 67.0089 145.943C67.0089 145.791 66.8877 145.668 66.7378 145.668C66.5882 145.668 66.4668 145.791 66.4668 145.943Z" fill="#718095" fill-opacity="0.62"/>
<path d="M65.2472 125.343C65.2472 124.904 64.8961 124.548 64.463 124.548C64.0298 124.548 63.6787 124.904 63.6787 125.343C63.6787 125.782 64.0298 126.137 64.463 126.137C64.8961 126.137 65.2472 125.781 65.2472 125.343Z" fill="#718095" fill-opacity="0.62"/>
<path d="M26.5788 113.913C26.5788 113.724 26.4279 113.571 26.242 113.571C26.0559 113.571 25.9053 113.724 25.9053 113.913C25.9053 114.101 26.0561 114.254 26.242 114.254C26.4281 114.254 26.5788 114.101 26.5788 113.913Z" fill="#718095" fill-opacity="0.62"/>
<path d="M77.5844 166.443C78.0214 166.443 78.3758 166.084 78.3758 165.641C78.3758 165.198 78.0214 164.839 77.5844 164.839C77.1473 164.839 76.793 165.198 76.793 165.641C76.793 166.084 77.1473 166.443 77.5844 166.443Z" fill="#718095" fill-opacity="0.62"/>
<path d="M62.9436 153.893C63.1621 153.893 63.3393 153.713 63.3393 153.492C63.3393 153.27 63.1621 153.091 62.9436 153.091C62.725 153.091 62.5479 153.27 62.5479 153.492C62.5479 153.713 62.725 153.893 62.9436 153.893Z" fill="#718095" fill-opacity="0.62"/>
<path d="M45.1451 125.148C45.6427 125.148 46.046 124.74 46.046 124.235C46.046 123.731 45.6427 123.322 45.1451 123.322C44.6475 123.322 44.2441 123.731 44.2441 124.235C44.2441 124.74 44.6475 125.148 45.1451 125.148Z" fill="#718095" fill-opacity="0.62"/>
<path d="M49.3014 144.811C49.3014 144.629 49.1556 144.481 48.9759 144.481C48.7961 144.481 48.6504 144.629 48.6504 144.811C48.6504 144.993 48.7961 145.141 48.9759 145.141C49.1556 145.141 49.3014 144.993 49.3014 144.811Z" fill="#718095" fill-opacity="0.62"/>
<path d="M54.7034 163.484C54.7034 163.031 54.3411 162.664 53.8942 162.664C53.4473 162.664 53.085 163.031 53.085 163.484C53.085 163.937 53.4473 164.304 53.8942 164.304C54.3411 164.304 54.7034 163.937 54.7034 163.484Z" fill="#718095" fill-opacity="0.62"/>
<path d="M7.96755 118.23C8.11521 118.23 8.23491 118.109 8.23491 117.959C8.23491 117.81 8.11521 117.688 7.96755 117.688C7.8199 117.688 7.7002 117.81 7.7002 117.959C7.7002 118.109 7.8199 118.23 7.96755 118.23Z" fill="#718095" fill-opacity="0.62"/>
<path d="M57.7149 125.277C57.7149 125.046 57.53 124.858 57.3018 124.858C57.0737 124.858 56.8887 125.046 56.8887 125.277C56.8887 125.508 57.0735 125.695 57.3018 125.695C57.53 125.695 57.7149 125.508 57.7149 125.277Z" fill="#718095" fill-opacity="0.62"/>
<path d="M5.82035 165.755C5.6531 165.755 5.51758 165.892 5.51758 166.062C5.51758 166.231 5.6531 166.369 5.82035 166.369C5.9876 166.369 6.12312 166.231 6.12312 166.062C6.12291 165.892 5.98739 165.755 5.82035 165.755Z" fill="#718095" fill-opacity="0.62"/>
<path d="M40.7686 100.032C40.7686 100.499 41.142 100.877 41.6028 100.877C42.0636 100.877 42.437 100.499 42.437 100.032C42.437 99.5649 42.0636 99.1865 41.6028 99.1865C41.142 99.1865 40.7686 99.5649 40.7686 100.032Z" fill="#718095" fill-opacity="0.62"/>
<path d="M18.2284 99.1865C17.9152 99.1865 17.6611 99.444 17.6611 99.7614C17.6611 100.079 17.9152 100.336 18.2284 100.336C18.5416 100.336 18.7956 100.079 18.7956 99.7614C18.7956 99.444 18.5418 99.1865 18.2284 99.1865Z" fill="#718095" fill-opacity="0.62"/>
<path d="M88.5982 99.6318C88.2678 99.6318 88 99.9032 88 100.238C88 100.573 88.2678 100.844 88.5982 100.844C88.9286 100.844 89.1963 100.573 89.1963 100.238C89.1965 99.9034 88.9286 99.6318 88.5982 99.6318Z" fill="#718095" fill-opacity="0.62"/>
<path d="M185.839 161.293C186.074 161.293 186.265 161.1 186.265 160.861C186.265 160.622 186.074 160.429 185.839 160.429C185.603 160.429 185.412 160.622 185.412 160.861C185.412 161.1 185.603 161.293 185.839 161.293Z" fill="#718095" fill-opacity="0.62"/>
<path d="M154.205 159.856C154.205 159.341 153.792 158.923 153.284 158.923C152.775 158.923 152.362 159.341 152.362 159.856C152.362 160.372 152.775 160.79 153.284 160.79C153.792 160.79 154.205 160.372 154.205 159.856Z" fill="#718095" fill-opacity="0.62"/>
<path d="M102.325 106.692C102.541 106.692 102.717 106.514 102.717 106.295C102.717 106.075 102.541 105.897 102.325 105.897C102.108 105.897 101.933 106.075 101.933 106.295C101.933 106.514 102.108 106.692 102.325 106.692Z" fill="#718095" fill-opacity="0.62"/>
<path d="M126.613 129.193C126.613 129.451 126.82 129.66 127.074 129.66C127.329 129.66 127.536 129.451 127.536 129.193C127.536 128.935 127.329 128.726 127.074 128.726C126.82 128.726 126.613 128.935 126.613 129.193Z" fill="#718095" fill-opacity="0.62"/>
<path d="M174.113 138.207C174.113 138.031 173.972 137.889 173.799 137.889C173.625 137.889 173.484 138.031 173.484 138.207C173.484 138.383 173.625 138.526 173.799 138.526C173.972 138.526 174.113 138.383 174.113 138.207Z" fill="#718095" fill-opacity="0.62"/>
<path d="M134.95 128.686C134.95 128.539 134.832 128.42 134.687 128.42C134.542 128.42 134.424 128.539 134.424 128.686C134.424 128.833 134.542 128.953 134.687 128.953C134.832 128.953 134.95 128.833 134.95 128.686Z" fill="#718095" fill-opacity="0.62"/>
<path d="M181.232 113.356C181.542 113.225 181.688 112.864 181.558 112.551C181.429 112.237 181.073 112.09 180.764 112.221C180.455 112.352 180.309 112.712 180.438 113.026C180.568 113.339 180.923 113.487 181.232 113.356Z" fill="#718095" fill-opacity="0.62"/>
<path d="M97.2383 148.67C97.2383 149.063 97.5535 149.383 97.9423 149.383C98.331 149.383 98.6463 149.063 98.6463 148.67C98.6463 148.276 98.331 147.956 97.9423 147.956C97.5535 147.956 97.2383 148.276 97.2383 148.67Z" fill="#718095" fill-opacity="0.62"/>
<path d="M167.849 105.485C167.353 105.485 166.951 105.893 166.951 106.395C166.951 106.898 167.353 107.306 167.849 107.306C168.345 107.306 168.747 106.898 168.747 106.395C168.747 105.893 168.345 105.485 167.849 105.485Z" fill="#718095" fill-opacity="0.62"/>
<path d="M173.709 166.899C173.972 166.899 174.186 166.682 174.186 166.415C174.186 166.148 173.972 165.932 173.709 165.932C173.445 165.932 173.231 166.148 173.231 166.415C173.231 166.682 173.445 166.899 173.709 166.899Z" fill="#718095" fill-opacity="0.62"/>
<path d="M144.374 169.737C144.911 169.737 145.346 169.296 145.346 168.753C145.346 168.209 144.911 167.769 144.374 167.769C143.838 167.769 143.403 168.209 143.403 168.753C143.403 169.296 143.838 169.737 144.374 169.737Z" fill="#718095" fill-opacity="0.62"/>
<path d="M105.899 158.262C105.899 158.472 106.068 158.643 106.275 158.643C106.483 158.643 106.652 158.473 106.652 158.262C106.652 158.052 106.483 157.881 106.275 157.881C106.068 157.881 105.899 158.052 105.899 158.262Z" fill="#718095" fill-opacity="0.62"/>
<path d="M151.951 108.7C152.159 108.7 152.328 108.529 152.328 108.318C152.328 108.107 152.159 107.937 151.951 107.937C151.743 107.937 151.574 108.107 151.574 108.318C151.574 108.529 151.743 108.7 151.951 108.7Z" fill="#718095" fill-opacity="0.62"/>
<path d="M189.628 173.759C189.39 173.759 189.198 173.954 189.198 174.194C189.198 174.434 189.39 174.629 189.628 174.629C189.865 174.629 190.057 174.434 190.057 174.194C190.057 173.954 189.865 173.759 189.628 173.759Z" fill="#718095" fill-opacity="0.62"/>
<path d="M101.673 134.858C101.673 135.215 101.959 135.505 102.311 135.505C102.664 135.505 102.95 135.215 102.95 134.858C102.95 134.501 102.664 134.211 102.311 134.211C101.959 134.211 101.673 134.501 101.673 134.858Z" fill="#718095" fill-opacity="0.62"/>
<path d="M114.004 106.268C113.848 106.268 113.722 106.396 113.722 106.554C113.722 106.712 113.848 106.84 114.004 106.84C114.16 106.84 114.286 106.712 114.286 106.554C114.286 106.396 114.16 106.268 114.004 106.268Z" fill="#718095" fill-opacity="0.62"/>
<path d="M165.857 138.684C166.054 138.684 166.214 138.522 166.214 138.323C166.214 138.123 166.054 137.961 165.857 137.961C165.66 137.961 165.5 138.123 165.5 138.323C165.5 138.522 165.66 138.684 165.857 138.684Z" fill="#718095" fill-opacity="0.62"/>
<path d="M142.903 95.7295C142.359 95.7295 141.917 96.177 141.917 96.7288C141.917 97.2807 142.359 97.7282 142.903 97.7282C143.448 97.7282 143.889 97.2807 143.889 96.7288C143.889 96.177 143.448 95.7295 142.903 95.7295Z" fill="#718095" fill-opacity="0.62"/>
<path d="M123.943 155.072C123.943 155.256 124.091 155.406 124.273 155.406C124.455 155.406 124.603 155.256 124.603 155.072C124.603 154.887 124.455 154.737 124.273 154.737C124.091 154.737 123.943 154.887 123.943 155.072Z" fill="#718095" fill-opacity="0.62"/>
<path d="M138.302 104.135C138.302 103.985 138.182 103.863 138.034 103.863C137.886 103.863 137.766 103.985 137.766 104.135C137.766 104.285 137.886 104.406 138.034 104.406C138.182 104.406 138.302 104.285 138.302 104.135Z" fill="#718095" fill-opacity="0.62"/>
<path d="M160.319 135.605C160.319 135.862 160.525 136.07 160.779 136.07C161.032 136.07 161.238 135.862 161.238 135.605C161.238 135.348 161.032 135.14 160.779 135.14C160.525 135.14 160.319 135.348 160.319 135.605Z" fill="#718095" fill-opacity="0.62"/>
<path d="M151.677 136.59C152.212 136.59 152.646 136.15 152.646 135.608C152.646 135.066 152.212 134.627 151.677 134.627C151.143 134.627 150.709 135.066 150.709 135.608C150.709 136.15 151.143 136.59 151.677 136.59Z" fill="#718095" fill-opacity="0.62"/>
<path d="M161.943 93.909C161.943 93.7636 161.827 93.6455 161.683 93.6455C161.539 93.6455 161.423 93.7636 161.423 93.909C161.423 94.0544 161.539 94.1725 161.683 94.1725C161.827 94.1725 161.943 94.0546 161.943 93.909Z" fill="#718095" fill-opacity="0.62"/>
<path d="M181.298 154.718C181.298 155.232 181.709 155.649 182.217 155.649C182.724 155.649 183.135 155.232 183.135 154.718C183.135 154.204 182.724 153.787 182.217 153.787C181.709 153.787 181.298 154.204 181.298 154.718Z" fill="#718095" fill-opacity="0.62"/>
<path d="M158.834 104.446C158.834 104.146 158.594 103.903 158.298 103.903C158.002 103.903 157.763 104.146 157.763 104.446C157.763 104.746 158.002 104.989 158.298 104.989C158.594 104.989 158.834 104.746 158.834 104.446Z" fill="#718095" fill-opacity="0.62"/>
<path d="M99.7057 89.5514C99.8559 89.5514 99.9777 89.428 99.9777 89.2757C99.9777 89.1234 99.8559 89 99.7057 89C99.5554 89 99.4336 89.1234 99.4336 89.2757C99.4336 89.428 99.5554 89.5514 99.7057 89.5514Z" fill="#718095" fill-opacity="0.62"/>
<path d="M113.061 143.069C113.061 143.381 113.311 143.634 113.619 143.634C113.927 143.634 114.177 143.381 114.177 143.069C114.177 142.756 113.927 142.503 113.619 142.503C113.311 142.503 113.061 142.756 113.061 143.069Z" fill="#718095" fill-opacity="0.62"/>
<path d="M124.604 140.283C124.457 140.283 124.338 140.404 124.338 140.553C124.338 140.702 124.457 140.823 124.604 140.823C124.752 140.823 124.871 140.702 124.871 140.553C124.871 140.404 124.752 140.283 124.604 140.283Z" fill="#718095" fill-opacity="0.62"/>
<path d="M132.009 151.764C132.173 151.764 132.307 151.629 132.307 151.462C132.307 151.295 132.173 151.16 132.009 151.16C131.844 151.16 131.711 151.295 131.711 151.462C131.711 151.629 131.844 151.764 132.009 151.764Z" fill="#718095" fill-opacity="0.62"/>
<path d="M185.401 96.3135C185.23 96.3135 185.091 96.4543 185.091 96.6282C185.091 96.802 185.23 96.9429 185.401 96.9429C185.573 96.9429 185.712 96.802 185.712 96.6282C185.712 96.4543 185.573 96.3135 185.401 96.3135Z" fill="#718095" fill-opacity="0.62"/>
<path d="M108.183 151.225C108.183 151.734 108.59 152.146 109.092 152.146C109.593 152.146 110.001 151.734 110.001 151.225C110.001 150.716 109.594 150.304 109.092 150.304C108.589 150.304 108.183 150.716 108.183 151.225Z" fill="#718095" fill-opacity="0.62"/>
<path d="M187.721 148.07C187.721 148.275 187.884 148.44 188.086 148.44C188.288 148.44 188.451 148.275 188.451 148.07C188.451 147.866 188.288 147.7 188.086 147.7C187.884 147.7 187.721 147.866 187.721 148.07Z" fill="#718095" fill-opacity="0.62"/>
<path d="M112.762 131.328C112.762 130.889 112.41 130.532 111.976 130.532C111.542 130.532 111.19 130.889 111.19 131.328C111.19 131.768 111.542 132.125 111.976 132.125C112.41 132.124 112.762 131.768 112.762 131.328Z" fill="#718095" fill-opacity="0.62"/>
<path d="M146.799 120.678C146.268 120.678 145.838 121.114 145.838 121.652C145.838 122.19 146.268 122.626 146.799 122.626C147.33 122.626 147.76 122.19 147.76 121.652C147.76 121.114 147.33 120.678 146.799 120.678Z" fill="#718095" fill-opacity="0.62"/>
<path d="M104.184 126.468C104.636 126.468 105.003 126.096 105.003 125.638C105.003 125.179 104.636 124.808 104.184 124.808C103.731 124.808 103.364 125.179 103.364 125.638C103.364 126.096 103.731 126.468 104.184 126.468Z" fill="#718095" fill-opacity="0.62"/>
<path d="M161.724 153.936C161.724 154.161 161.903 154.343 162.125 154.343C162.347 154.343 162.527 154.161 162.527 153.936C162.527 153.712 162.347 153.529 162.125 153.529C161.904 153.529 161.724 153.711 161.724 153.936Z" fill="#718095" fill-opacity="0.62"/>
<path d="M94.7404 163.163C95.0452 163.163 95.2923 162.912 95.2923 162.603C95.2923 162.294 95.0452 162.044 94.7404 162.044C94.4356 162.044 94.1885 162.294 94.1885 162.603C94.1885 162.912 94.4356 163.163 94.7404 163.163Z" fill="#718095" fill-opacity="0.62"/>
<path d="M189.845 122.199C189.845 121.999 189.685 121.837 189.488 121.837C189.29 121.837 189.13 121.999 189.13 122.199C189.13 122.4 189.29 122.562 189.488 122.562C189.685 122.562 189.845 122.4 189.845 122.199Z" fill="#718095" fill-opacity="0.62"/>
<path d="M169.558 97.1112C169.934 97.1112 170.239 96.8019 170.239 96.4203C170.239 96.0388 169.934 95.7295 169.558 95.7295C169.181 95.7295 168.876 96.0388 168.876 96.4203C168.876 96.8019 169.181 97.1112 169.558 97.1112Z" fill="#718095" fill-opacity="0.62"/>
<path d="M149.972 173.78C149.972 173.61 149.836 173.473 149.669 173.473C149.501 173.473 149.365 173.61 149.365 173.78C149.365 173.95 149.501 174.088 149.669 174.088C149.836 174.088 149.972 173.95 149.972 173.78Z" fill="#718095" fill-opacity="0.62"/>
<path d="M121.033 172.104C121.033 172.579 121.413 172.964 121.882 172.964C122.351 172.964 122.731 172.579 122.731 172.104C122.731 171.628 122.351 171.243 121.882 171.243C121.413 171.243 121.033 171.628 121.033 172.104Z" fill="#718095" fill-opacity="0.62"/>
<path d="M189.54 131.846C189.777 131.846 189.97 131.651 189.97 131.41C189.97 131.169 189.777 130.974 189.54 130.974C189.302 130.974 189.109 131.169 189.109 131.41C189.109 131.651 189.302 131.846 189.54 131.846Z" fill="#718095" fill-opacity="0.62"/>
<path d="M181.325 94.9714C181.595 94.8575 181.722 94.5439 181.609 94.2711C181.497 93.9982 181.188 93.8693 180.918 93.9832C180.649 94.0971 180.522 94.4107 180.634 94.6836C180.747 94.9565 181.056 95.0853 181.325 94.9714Z" fill="#718095" fill-opacity="0.62"/>
<path d="M132.341 161.02C132.786 161.02 133.146 160.655 133.146 160.204C133.146 159.754 132.786 159.389 132.341 159.389C131.897 159.389 131.536 159.754 131.536 160.204C131.536 160.655 131.896 161.02 132.341 161.02Z" fill="#718095" fill-opacity="0.62"/>
<path d="M96.244 133.408C96.244 133.006 95.922 132.68 95.5248 132.68C95.1277 132.68 94.8057 133.006 94.8057 133.408C94.8057 133.811 95.1277 134.137 95.5248 134.137C95.922 134.138 96.244 133.811 96.244 133.408Z" fill="#718095" fill-opacity="0.62"/>
<path d="M188.567 108.711C188.567 108.538 188.428 108.398 188.258 108.398C188.087 108.398 187.949 108.538 187.949 108.711C187.949 108.884 188.087 109.024 188.258 109.024C188.428 109.024 188.567 108.884 188.567 108.711Z" fill="#718095" fill-opacity="0.62"/>
<path d="M118.548 133.335C118.548 133.584 118.747 133.787 118.994 133.787C119.24 133.787 119.44 133.584 119.44 133.335C119.44 133.085 119.24 132.883 118.994 132.883C118.747 132.883 118.548 133.085 118.548 133.335Z" fill="#718095" fill-opacity="0.62"/>
<path d="M161.509 117.578C162.02 117.578 162.434 117.158 162.434 116.64C162.434 116.123 162.02 115.703 161.509 115.703C160.998 115.703 160.584 116.123 160.584 116.64C160.584 117.158 160.998 117.578 161.509 117.578Z" fill="#718095" fill-opacity="0.62"/>
<path d="M114.957 157.367C114.957 157.532 115.089 157.666 115.252 157.666C115.416 157.666 115.548 157.532 115.548 157.367C115.548 157.201 115.416 157.067 115.252 157.067C115.089 157.067 114.957 157.201 114.957 157.367Z" fill="#718095" fill-opacity="0.62"/>
<path d="M142.693 139.26C142.526 139.26 142.391 139.397 142.391 139.566C142.391 139.735 142.526 139.873 142.693 139.873C142.86 139.873 142.995 139.735 142.995 139.566C142.995 139.397 142.86 139.26 142.693 139.26Z" fill="#718095" fill-opacity="0.62"/>
<path d="M121.559 90.4463C121.245 90.4463 120.991 90.704 120.991 91.0218C120.991 91.3396 121.245 91.5973 121.559 91.5973C121.873 91.5973 122.127 91.3396 122.127 91.0218C122.127 90.704 121.873 90.4463 121.559 90.4463Z" fill="#718095" fill-opacity="0.62"/>
<path d="M177.905 105.58C178.185 105.58 178.412 105.351 178.412 105.068C178.412 104.784 178.185 104.555 177.905 104.555C177.626 104.555 177.399 104.784 177.399 105.068C177.399 105.351 177.626 105.58 177.905 105.58Z" fill="#718095" fill-opacity="0.62"/>
<path d="M161.144 174.835C160.984 174.835 160.855 174.966 160.855 175.127C160.855 175.288 160.984 175.419 161.144 175.419C161.303 175.419 161.432 175.288 161.432 175.127C161.432 174.966 161.303 174.835 161.144 174.835Z" fill="#718095" fill-opacity="0.62"/>
<path d="M115.747 97.5159C115.747 97.1522 115.456 96.8574 115.097 96.8574C114.738 96.8574 114.447 97.1522 114.447 97.5159C114.447 97.8796 114.738 98.1744 115.097 98.1744C115.456 98.1744 115.747 97.8796 115.747 97.5159Z" fill="#718095" fill-opacity="0.62"/>
<path d="M142.643 150.562C142.643 150.96 142.961 151.283 143.354 151.283C143.748 151.283 144.066 150.96 144.066 150.562C144.066 150.164 143.747 149.841 143.354 149.841C142.961 149.841 142.643 150.164 142.643 150.562Z" fill="#718095" fill-opacity="0.62"/>
<path d="M103.415 168.437C103.054 168.437 102.762 168.733 102.762 169.098C102.762 169.464 103.054 169.76 103.415 169.76C103.775 169.76 104.068 169.464 104.068 169.098C104.068 168.733 103.775 168.437 103.415 168.437Z" fill="#718095" fill-opacity="0.62"/>
<path d="M94.4117 92.4648C94.2027 92.4648 94.0332 92.6366 94.0332 92.8482C94.0332 93.0598 94.2027 93.2318 94.4117 93.2318C94.6207 93.2318 94.7902 93.06 94.7902 92.8482C94.7902 92.6364 94.6207 92.4648 94.4117 92.4648Z" fill="#718095" fill-opacity="0.62"/>
<path d="M122.281 108.246C122.757 108.246 123.144 107.854 123.144 107.372C123.144 106.889 122.757 106.497 122.281 106.497C121.804 106.497 121.418 106.889 121.418 107.372C121.418 107.854 121.804 108.246 122.281 108.246Z" fill="#718095" fill-opacity="0.62"/>
<path d="M172.254 114.952C172.65 114.952 172.971 114.627 172.971 114.226C172.971 113.825 172.65 113.5 172.254 113.5C171.859 113.5 171.538 113.825 171.538 114.226C171.538 114.627 171.859 114.952 172.254 114.952Z" fill="#718095" fill-opacity="0.62"/>
<path d="M127.633 118C128.03 118 128.352 117.674 128.352 117.271C128.352 116.869 128.03 116.543 127.633 116.543C127.236 116.543 126.914 116.869 126.914 117.271C126.914 117.674 127.236 118 127.633 118Z" fill="#718095" fill-opacity="0.62"/>
<path d="M104.115 119.147C103.724 119.147 103.406 119.469 103.406 119.866C103.406 120.263 103.724 120.584 104.115 120.584C104.507 120.584 104.824 120.263 104.824 119.866C104.824 119.469 104.507 119.147 104.115 119.147Z" fill="#718095" fill-opacity="0.62"/>
<path d="M182.909 137.03C183.385 137.03 183.771 136.638 183.771 136.155C183.771 135.673 183.385 135.281 182.909 135.281C182.432 135.281 182.046 135.673 182.046 136.155C182.046 136.638 182.432 137.03 182.909 137.03Z" fill="#718095" fill-opacity="0.62"/>
<path d="M177.245 146.389C177.245 146.541 177.367 146.664 177.516 146.664C177.666 146.664 177.787 146.541 177.787 146.389C177.787 146.237 177.666 146.114 177.516 146.114C177.367 146.114 177.245 146.237 177.245 146.389Z" fill="#718095" fill-opacity="0.62"/>
<path d="M90.0164 108.46C90.0164 107.896 89.565 107.438 89.0082 107.438C88.4514 107.438 88 107.896 88 108.46C88 109.025 88.4514 109.482 89.0082 109.482C89.565 109.482 90.0164 109.025 90.0164 108.46Z" fill="#718095" fill-opacity="0.62"/>
<path d="M176.024 125.789C176.024 125.35 175.672 124.994 175.239 124.994C174.806 124.994 174.455 125.35 174.455 125.789C174.455 126.228 174.806 126.584 175.239 126.584C175.672 126.584 176.024 126.228 176.024 125.789Z" fill="#718095" fill-opacity="0.62"/>
<path d="M137.357 114.36C137.357 114.171 137.206 114.019 137.02 114.019C136.834 114.019 136.684 114.171 136.684 114.36C136.684 114.548 136.834 114.701 137.02 114.701C137.206 114.701 137.357 114.548 137.357 114.36Z" fill="#718095" fill-opacity="0.62"/>
<path d="M188.362 166.889C188.799 166.889 189.153 166.53 189.153 166.087C189.153 165.644 188.799 165.285 188.362 165.285C187.925 165.285 187.57 165.644 187.57 166.087C187.57 166.53 187.925 166.889 188.362 166.889Z" fill="#718095" fill-opacity="0.62"/>
<path d="M173.722 154.34C173.94 154.34 174.118 154.161 174.118 153.939C174.118 153.718 173.94 153.538 173.722 153.538C173.503 153.538 173.326 153.718 173.326 153.939C173.326 154.161 173.503 154.34 173.722 154.34Z" fill="#718095" fill-opacity="0.62"/>
<path d="M155.922 125.595C156.42 125.595 156.823 125.186 156.823 124.682C156.823 124.177 156.42 123.769 155.922 123.769C155.425 123.769 155.021 124.177 155.021 124.682C155.021 125.186 155.425 125.595 155.922 125.595Z" fill="#718095" fill-opacity="0.62"/>
<path d="M160.076 145.262C160.076 145.079 159.93 144.932 159.75 144.932C159.571 144.932 159.425 145.079 159.425 145.262C159.425 145.444 159.571 145.591 159.75 145.591C159.93 145.591 160.076 145.444 160.076 145.262Z" fill="#718095" fill-opacity="0.62"/>
<path d="M93.7783 142.155C93.7783 142.376 93.9554 142.556 94.174 142.556C94.3927 142.556 94.5697 142.376 94.5697 142.155C94.5697 141.934 94.3927 141.754 94.174 141.754C93.9554 141.754 93.7783 141.934 93.7783 142.155Z" fill="#718095" fill-opacity="0.62"/>
<path d="M165.482 163.934C165.482 163.481 165.119 163.114 164.673 163.114C164.226 163.114 163.863 163.481 163.863 163.934C163.863 164.387 164.226 164.754 164.673 164.754C165.119 164.754 165.482 164.387 165.482 163.934Z" fill="#718095" fill-opacity="0.62"/>
<path d="M118.74 118.676C118.888 118.676 119.007 118.554 119.007 118.405C119.007 118.255 118.888 118.134 118.74 118.134C118.592 118.134 118.473 118.255 118.473 118.405C118.473 118.554 118.592 118.676 118.74 118.676Z" fill="#718095" fill-opacity="0.62"/>
<path d="M168.492 125.723C168.492 125.492 168.307 125.305 168.079 125.305C167.851 125.305 167.666 125.492 167.666 125.723C167.666 125.954 167.851 126.142 168.079 126.142C168.307 126.142 168.492 125.954 168.492 125.723Z" fill="#718095" fill-opacity="0.62"/>
<path d="M106.132 89.7959C105.959 89.7959 105.819 89.9378 105.819 90.1129C105.819 90.288 105.959 90.4299 106.132 90.4299C106.305 90.4299 106.445 90.288 106.445 90.1129C106.445 89.9378 106.305 89.7959 106.132 89.7959Z" fill="#718095" fill-opacity="0.62"/>
<path d="M102.749 141.449C102.749 141.778 103.012 142.044 103.336 142.044C103.66 142.044 103.923 141.778 103.923 141.449C103.923 141.121 103.66 140.854 103.336 140.854C103.012 140.854 102.749 141.121 102.749 141.449Z" fill="#718095" fill-opacity="0.62"/>
<path d="M116.596 166.201C116.428 166.201 116.293 166.339 116.293 166.508C116.293 166.678 116.428 166.815 116.596 166.815C116.763 166.815 116.899 166.678 116.899 166.508C116.898 166.339 116.763 166.201 116.596 166.201Z" fill="#718095" fill-opacity="0.62"/>
<path d="M98.4682 121.998C98.6427 121.998 98.7841 121.854 98.7841 121.678C98.7841 121.501 98.6427 121.357 98.4682 121.357C98.2938 121.357 98.1523 121.501 98.1523 121.678C98.1523 121.854 98.2938 121.998 98.4682 121.998Z" fill="#718095" fill-opacity="0.62"/>
<path d="M128.438 100.477C128.438 100.944 128.811 101.323 129.272 101.323C129.733 101.323 130.106 100.944 130.106 100.477C130.106 100.01 129.733 99.6318 129.272 99.6318C128.811 99.6318 128.438 100.01 128.438 100.477Z" fill="#718095" fill-opacity="0.62"/>
<path d="M133.478 90.1113C133.165 90.1113 132.911 90.3688 132.911 90.6862C132.911 91.0036 133.165 91.2611 133.478 91.2611C133.792 91.2611 134.046 91.0036 134.046 90.6862C134.046 90.3688 133.792 90.1113 133.478 90.1113Z" fill="#718095" fill-opacity="0.62"/>
<path d="M133.598 97.6318C133.268 97.6318 133 97.9032 133 98.238C133 98.5729 133.268 98.8442 133.598 98.8442C133.929 98.8442 134.196 98.5729 134.196 98.238C134.197 97.9034 133.929 97.6318 133.598 97.6318Z" fill="#718095" fill-opacity="0.62"/>
<path d="M230.839 159.293C231.074 159.293 231.265 159.1 231.265 158.861C231.265 158.622 231.074 158.429 230.839 158.429C230.603 158.429 230.412 158.622 230.412 158.861C230.412 159.1 230.603 159.293 230.839 159.293Z" fill="#718095" fill-opacity="0.62"/>
<path d="M199.205 157.856C199.205 157.341 198.792 156.923 198.284 156.923C197.775 156.923 197.362 157.341 197.362 157.856C197.362 158.372 197.775 158.79 198.284 158.79C198.792 158.79 199.205 158.372 199.205 157.856Z" fill="#718095" fill-opacity="0.62"/>
<path d="M147.325 104.692C147.541 104.692 147.717 104.514 147.717 104.295C147.717 104.075 147.541 103.897 147.325 103.897C147.108 103.897 146.933 104.075 146.933 104.295C146.933 104.514 147.108 104.692 147.325 104.692Z" fill="#718095" fill-opacity="0.62"/>
<path d="M171.613 127.193C171.613 127.451 171.82 127.66 172.074 127.66C172.329 127.66 172.536 127.451 172.536 127.193C172.536 126.935 172.329 126.726 172.074 126.726C171.82 126.726 171.613 126.935 171.613 127.193Z" fill="#718095" fill-opacity="0.62"/>
<path d="M219.113 136.207C219.113 136.031 218.972 135.889 218.799 135.889C218.625 135.889 218.484 136.031 218.484 136.207C218.484 136.383 218.625 136.526 218.799 136.526C218.972 136.526 219.113 136.383 219.113 136.207Z" fill="#718095" fill-opacity="0.62"/>
<path d="M179.95 126.686C179.95 126.539 179.832 126.42 179.687 126.42C179.542 126.42 179.424 126.539 179.424 126.686C179.424 126.833 179.542 126.953 179.687 126.953C179.832 126.953 179.95 126.833 179.95 126.686Z" fill="#718095" fill-opacity="0.62"/>
<path d="M226.232 111.356C226.542 111.225 226.688 110.864 226.558 110.551C226.429 110.237 226.073 110.09 225.764 110.221C225.455 110.352 225.309 110.712 225.438 111.026C225.568 111.339 225.923 111.487 226.232 111.356Z" fill="#718095" fill-opacity="0.62"/>
<path d="M142.238 146.67C142.238 147.063 142.554 147.383 142.942 147.383C143.331 147.383 143.646 147.063 143.646 146.67C143.646 146.276 143.331 145.956 142.942 145.956C142.554 145.956 142.238 146.276 142.238 146.67Z" fill="#718095" fill-opacity="0.62"/>
<path d="M171.643 174.498C171.643 175.064 172.095 175.522 172.653 175.522C173.211 175.522 173.664 175.064 173.664 174.498C173.664 173.932 173.211 173.474 172.653 173.474C172.095 173.474 171.643 173.932 171.643 174.498Z" fill="#718095" fill-opacity="0.62"/>
<path d="M212.849 103.485C212.353 103.485 211.951 103.893 211.951 104.395C211.951 104.898 212.353 105.306 212.849 105.306C213.345 105.306 213.747 104.898 213.747 104.395C213.747 103.893 213.345 103.485 212.849 103.485Z" fill="#718095" fill-opacity="0.62"/>
<path d="M218.709 164.899C218.972 164.899 219.186 164.682 219.186 164.415C219.186 164.148 218.972 163.932 218.709 163.932C218.445 163.932 218.231 164.148 218.231 164.415C218.231 164.682 218.445 164.899 218.709 164.899Z" fill="#718095" fill-opacity="0.62"/>
<path d="M189.374 167.737C189.911 167.737 190.346 167.296 190.346 166.753C190.346 166.209 189.911 165.769 189.374 165.769C188.838 165.769 188.403 166.209 188.403 166.753C188.403 167.296 188.838 167.737 189.374 167.737Z" fill="#718095" fill-opacity="0.62"/>
<path d="M150.899 156.262C150.899 156.472 151.068 156.643 151.275 156.643C151.483 156.643 151.652 156.473 151.652 156.262C151.652 156.052 151.483 155.881 151.275 155.881C151.068 155.881 150.899 156.052 150.899 156.262Z" fill="#718095" fill-opacity="0.62"/>
<path d="M196.951 106.7C197.159 106.7 197.328 106.529 197.328 106.318C197.328 106.107 197.159 105.937 196.951 105.937C196.743 105.937 196.574 106.107 196.574 106.318C196.574 106.529 196.743 106.7 196.951 106.7Z" fill="#718095" fill-opacity="0.62"/>
<path d="M146.673 132.858C146.673 133.215 146.959 133.505 147.311 133.505C147.664 133.505 147.95 133.215 147.95 132.858C147.95 132.501 147.664 132.211 147.311 132.211C146.959 132.211 146.673 132.501 146.673 132.858Z" fill="#718095" fill-opacity="0.62"/>
<path d="M159.004 104.268C158.848 104.268 158.722 104.396 158.722 104.554C158.722 104.712 158.848 104.84 159.004 104.84C159.16 104.84 159.286 104.712 159.286 104.554C159.286 104.396 159.16 104.268 159.004 104.268Z" fill="#718095" fill-opacity="0.62"/>
<path d="M210.857 136.684C211.054 136.684 211.214 136.522 211.214 136.323C211.214 136.123 211.054 135.961 210.857 135.961C210.66 135.961 210.5 136.123 210.5 136.323C210.5 136.522 210.66 136.684 210.857 136.684Z" fill="#718095" fill-opacity="0.62"/>
<path d="M187.903 93.7295C187.359 93.7295 186.917 94.177 186.917 94.7288C186.917 95.2807 187.359 95.7282 187.903 95.7282C188.448 95.7282 188.889 95.2807 188.889 94.7288C188.889 94.177 188.448 93.7295 187.903 93.7295Z" fill="#718095" fill-opacity="0.62"/>
<path d="M168.943 153.072C168.943 153.256 169.091 153.406 169.273 153.406C169.455 153.406 169.603 153.256 169.603 153.072C169.603 152.887 169.455 152.737 169.273 152.737C169.091 152.737 168.943 152.887 168.943 153.072Z" fill="#718095" fill-opacity="0.62"/>
<path d="M183.302 102.135C183.302 101.985 183.182 101.863 183.034 101.863C182.886 101.863 182.766 101.985 182.766 102.135C182.766 102.285 182.886 102.406 183.034 102.406C183.182 102.406 183.302 102.285 183.302 102.135Z" fill="#718095" fill-opacity="0.62"/>
<path d="M205.319 133.605C205.319 133.862 205.525 134.07 205.779 134.07C206.032 134.07 206.238 133.862 206.238 133.605C206.238 133.348 206.032 133.14 205.779 133.14C205.525 133.14 205.319 133.348 205.319 133.605Z" fill="#718095" fill-opacity="0.62"/>
<path d="M196.677 134.59C197.212 134.59 197.646 134.15 197.646 133.608C197.646 133.066 197.212 132.627 196.677 132.627C196.143 132.627 195.709 133.066 195.709 133.608C195.709 134.15 196.143 134.59 196.677 134.59Z" fill="#718095" fill-opacity="0.62"/>
<path d="M206.943 91.909C206.943 91.7636 206.827 91.6455 206.683 91.6455C206.539 91.6455 206.423 91.7636 206.423 91.909C206.423 92.0544 206.539 92.1725 206.683 92.1725C206.827 92.1725 206.943 92.0546 206.943 91.909Z" fill="#718095" fill-opacity="0.62"/>
<path d="M226.298 152.718C226.298 153.232 226.709 153.649 227.217 153.649C227.724 153.649 228.135 153.232 228.135 152.718C228.135 152.204 227.724 151.787 227.217 151.787C226.709 151.787 226.298 152.204 226.298 152.718Z" fill="#718095" fill-opacity="0.62"/>
<path d="M203.834 102.446C203.834 102.146 203.594 101.903 203.298 101.903C203.002 101.903 202.763 102.146 202.763 102.446C202.763 102.746 203.002 102.989 203.298 102.989C203.594 102.989 203.834 102.746 203.834 102.446Z" fill="#718095" fill-opacity="0.62"/>
<path d="M144.706 87.5514C144.856 87.5514 144.978 87.428 144.978 87.2757C144.978 87.1234 144.856 87 144.706 87C144.555 87 144.434 87.1234 144.434 87.2757C144.434 87.428 144.555 87.5514 144.706 87.5514Z" fill="#718095" fill-opacity="0.62"/>
<path d="M158.061 141.069C158.061 141.381 158.311 141.634 158.619 141.634C158.927 141.634 159.177 141.381 159.177 141.069C159.177 140.756 158.927 140.503 158.619 140.503C158.311 140.503 158.061 140.756 158.061 141.069Z" fill="#718095" fill-opacity="0.62"/>
<path d="M169.604 138.283C169.457 138.283 169.338 138.404 169.338 138.553C169.338 138.702 169.457 138.823 169.604 138.823C169.752 138.823 169.871 138.702 169.871 138.553C169.871 138.404 169.752 138.283 169.604 138.283Z" fill="#718095" fill-opacity="0.62"/>
<path d="M177.009 149.764C177.173 149.764 177.307 149.629 177.307 149.462C177.307 149.295 177.173 149.16 177.009 149.16C176.844 149.16 176.711 149.295 176.711 149.462C176.711 149.629 176.844 149.764 177.009 149.764Z" fill="#718095" fill-opacity="0.62"/>
<path d="M230.401 94.3135C230.23 94.3135 230.091 94.4543 230.091 94.6282C230.091 94.802 230.23 94.9429 230.401 94.9429C230.573 94.9429 230.712 94.802 230.712 94.6282C230.712 94.4543 230.573 94.3135 230.401 94.3135Z" fill="#718095" fill-opacity="0.62"/>
<path d="M153.183 149.225C153.183 149.734 153.59 150.146 154.092 150.146C154.593 150.146 155.001 149.734 155.001 149.225C155.001 148.716 154.594 148.304 154.092 148.304C153.589 148.304 153.183 148.716 153.183 149.225Z" fill="#718095" fill-opacity="0.62"/>
<path d="M232.721 146.07C232.721 146.275 232.884 146.44 233.086 146.44C233.288 146.44 233.451 146.275 233.451 146.07C233.451 145.866 233.288 145.7 233.086 145.7C232.884 145.7 232.721 145.866 232.721 146.07Z" fill="#718095" fill-opacity="0.62"/>
<path d="M157.762 129.328C157.762 128.889 157.41 128.532 156.976 128.532C156.542 128.532 156.19 128.889 156.19 129.328C156.19 129.768 156.542 130.125 156.976 130.125C157.41 130.124 157.762 129.768 157.762 129.328Z" fill="#718095" fill-opacity="0.62"/>
<path d="M191.799 118.678C191.268 118.678 190.838 119.114 190.838 119.652C190.838 120.19 191.268 120.626 191.799 120.626C192.33 120.626 192.76 120.19 192.76 119.652C192.76 119.114 192.33 118.678 191.799 118.678Z" fill="#718095" fill-opacity="0.62"/>
<path d="M149.184 124.468C149.636 124.468 150.003 124.096 150.003 123.638C150.003 123.179 149.636 122.808 149.184 122.808C148.731 122.808 148.364 123.179 148.364 123.638C148.364 124.096 148.731 124.468 149.184 124.468Z" fill="#718095" fill-opacity="0.62"/>
<path d="M206.724 151.936C206.724 152.161 206.903 152.343 207.125 152.343C207.347 152.343 207.527 152.161 207.527 151.936C207.527 151.712 207.347 151.529 207.125 151.529C206.904 151.529 206.724 151.711 206.724 151.936Z" fill="#718095" fill-opacity="0.62"/>
<path d="M139.74 161.163C140.045 161.163 140.292 160.912 140.292 160.603C140.292 160.294 140.045 160.044 139.74 160.044C139.436 160.044 139.188 160.294 139.188 160.603C139.188 160.912 139.436 161.163 139.74 161.163Z" fill="#718095" fill-opacity="0.62"/>
<path d="M214.558 95.1112C214.934 95.1112 215.239 94.8019 215.239 94.4203C215.239 94.0388 214.934 93.7295 214.558 93.7295C214.181 93.7295 213.876 94.0388 213.876 94.4203C213.876 94.8019 214.181 95.1112 214.558 95.1112Z" fill="#718095" fill-opacity="0.62"/>
<path d="M194.972 171.78C194.972 171.61 194.836 171.473 194.669 171.473C194.501 171.473 194.365 171.61 194.365 171.78C194.365 171.95 194.501 172.088 194.669 172.088C194.836 172.088 194.972 171.95 194.972 171.78Z" fill="#718095" fill-opacity="0.62"/>
<path d="M166.033 170.104C166.033 170.579 166.413 170.964 166.882 170.964C167.351 170.964 167.731 170.579 167.731 170.104C167.731 169.628 167.351 169.243 166.882 169.243C166.413 169.243 166.033 169.628 166.033 170.104Z" fill="#718095" fill-opacity="0.62"/>
<path d="M226.325 92.9714C226.595 92.8575 226.722 92.5439 226.609 92.2711C226.497 91.9982 226.188 91.8693 225.918 91.9832C225.649 92.0971 225.522 92.4107 225.634 92.6836C225.747 92.9565 226.056 93.0853 226.325 92.9714Z" fill="#718095" fill-opacity="0.62"/>
<path d="M177.341 159.02C177.786 159.02 178.146 158.655 178.146 158.204C178.146 157.754 177.786 157.389 177.341 157.389C176.897 157.389 176.536 157.754 176.536 158.204C176.536 158.655 176.896 159.02 177.341 159.02Z" fill="#718095" fill-opacity="0.62"/>
<path d="M141.244 131.408C141.244 131.006 140.922 130.68 140.525 130.68C140.128 130.68 139.806 131.006 139.806 131.408C139.806 131.811 140.128 132.137 140.525 132.137C140.922 132.138 141.244 131.811 141.244 131.408Z" fill="#718095" fill-opacity="0.62"/>
<path d="M233.567 106.711C233.567 106.538 233.428 106.398 233.258 106.398C233.087 106.398 232.949 106.538 232.949 106.711C232.949 106.884 233.087 107.024 233.258 107.024C233.428 107.024 233.567 106.884 233.567 106.711Z" fill="#718095" fill-opacity="0.62"/>
<path d="M163.548 131.335C163.548 131.584 163.747 131.787 163.994 131.787C164.24 131.787 164.44 131.584 164.44 131.335C164.44 131.085 164.24 130.883 163.994 130.883C163.747 130.883 163.548 131.085 163.548 131.335Z" fill="#718095" fill-opacity="0.62"/>
<path d="M206.509 115.578C207.02 115.578 207.434 115.158 207.434 114.64C207.434 114.123 207.02 113.703 206.509 113.703C205.998 113.703 205.584 114.123 205.584 114.64C205.584 115.158 205.998 115.578 206.509 115.578Z" fill="#718095" fill-opacity="0.62"/>
<path d="M159.957 155.367C159.957 155.532 160.089 155.666 160.252 155.666C160.416 155.666 160.548 155.532 160.548 155.367C160.548 155.201 160.416 155.067 160.252 155.067C160.089 155.067 159.957 155.201 159.957 155.367Z" fill="#718095" fill-opacity="0.62"/>
<path d="M187.693 137.26C187.526 137.26 187.391 137.397 187.391 137.566C187.391 137.735 187.526 137.873 187.693 137.873C187.86 137.873 187.995 137.735 187.995 137.566C187.995 137.397 187.86 137.26 187.693 137.26Z" fill="#718095" fill-opacity="0.62"/>
<path d="M166.559 88.4463C166.245 88.4463 165.991 88.704 165.991 89.0218C165.991 89.3396 166.245 89.5973 166.559 89.5973C166.873 89.5973 167.127 89.3396 167.127 89.0218C167.127 88.704 166.873 88.4463 166.559 88.4463Z" fill="#718095" fill-opacity="0.62"/>
<path d="M222.905 103.58C223.185 103.58 223.412 103.351 223.412 103.068C223.412 102.784 223.185 102.555 222.905 102.555C222.626 102.555 222.399 102.784 222.399 103.068C222.399 103.351 222.626 103.58 222.905 103.58Z" fill="#718095" fill-opacity="0.62"/>
<path d="M206.144 172.835C205.984 172.835 205.855 172.966 205.855 173.127C205.855 173.288 205.984 173.419 206.144 173.419C206.303 173.419 206.432 173.288 206.432 173.127C206.432 172.966 206.303 172.835 206.144 172.835Z" fill="#718095" fill-opacity="0.62"/>
<path d="M160.747 95.5159C160.747 95.1522 160.456 94.8574 160.097 94.8574C159.738 94.8574 159.447 95.1522 159.447 95.5159C159.447 95.8796 159.738 96.1744 160.097 96.1744C160.456 96.1744 160.747 95.8796 160.747 95.5159Z" fill="#718095" fill-opacity="0.62"/>
<path d="M187.643 148.562C187.643 148.96 187.961 149.283 188.354 149.283C188.748 149.283 189.066 148.96 189.066 148.562C189.066 148.164 188.747 147.841 188.354 147.841C187.961 147.841 187.643 148.164 187.643 148.562Z" fill="#718095" fill-opacity="0.62"/>
<path d="M148.415 166.437C148.054 166.437 147.762 166.733 147.762 167.098C147.762 167.464 148.054 167.76 148.415 167.76C148.775 167.76 149.068 167.464 149.068 167.098C149.068 166.733 148.775 166.437 148.415 166.437Z" fill="#718095" fill-opacity="0.62"/>
<path d="M139.412 90.4648C139.203 90.4648 139.033 90.6366 139.033 90.8482C139.033 91.0598 139.203 91.2318 139.412 91.2318C139.621 91.2318 139.79 91.06 139.79 90.8482C139.79 90.6364 139.621 90.4648 139.412 90.4648Z" fill="#718095" fill-opacity="0.62"/>
<path d="M167.281 106.246C167.757 106.246 168.144 105.854 168.144 105.372C168.144 104.889 167.757 104.497 167.281 104.497C166.804 104.497 166.418 104.889 166.418 105.372C166.418 105.854 166.804 106.246 167.281 106.246Z" fill="#718095" fill-opacity="0.62"/>
<path d="M217.254 112.952C217.65 112.952 217.971 112.627 217.971 112.226C217.971 111.825 217.65 111.5 217.254 111.5C216.859 111.5 216.538 111.825 216.538 112.226C216.538 112.627 216.859 112.952 217.254 112.952Z" fill="#718095" fill-opacity="0.62"/>
<path d="M172.633 116C173.03 116 173.352 115.674 173.352 115.271C173.352 114.869 173.03 114.543 172.633 114.543C172.236 114.543 171.914 114.869 171.914 115.271C171.914 115.674 172.236 116 172.633 116Z" fill="#718095" fill-opacity="0.62"/>
<path d="M149.115 117.147C148.724 117.147 148.406 117.469 148.406 117.866C148.406 118.263 148.724 118.584 149.115 118.584C149.507 118.584 149.824 118.263 149.824 117.866C149.824 117.469 149.507 117.147 149.115 117.147Z" fill="#718095" fill-opacity="0.62"/>
<path d="M227.909 135.03C228.385 135.03 228.771 134.638 228.771 134.155C228.771 133.673 228.385 133.281 227.909 133.281C227.432 133.281 227.046 133.673 227.046 134.155C227.046 134.638 227.432 135.03 227.909 135.03Z" fill="#718095" fill-opacity="0.62"/>
<path d="M222.245 144.389C222.245 144.541 222.367 144.664 222.516 144.664C222.666 144.664 222.787 144.541 222.787 144.389C222.787 144.237 222.666 144.114 222.516 144.114C222.367 144.114 222.245 144.237 222.245 144.389Z" fill="#718095" fill-opacity="0.62"/>
<path d="M135.016 106.46C135.016 105.896 134.565 105.438 134.008 105.438C133.451 105.438 133 105.896 133 106.46C133 107.025 133.451 107.482 134.008 107.482C134.565 107.482 135.016 107.025 135.016 106.46Z" fill="#718095" fill-opacity="0.62"/>
<path d="M221.024 123.789C221.024 123.35 220.672 122.994 220.239 122.994C219.806 122.994 219.455 123.35 219.455 123.789C219.455 124.228 219.806 124.584 220.239 124.584C220.672 124.584 221.024 124.228 221.024 123.789Z" fill="#718095" fill-opacity="0.62"/>
<path d="M182.357 112.36C182.357 112.171 182.206 112.019 182.02 112.019C181.834 112.019 181.684 112.171 181.684 112.36C181.684 112.548 181.834 112.701 182.02 112.701C182.206 112.701 182.357 112.548 182.357 112.36Z" fill="#718095" fill-opacity="0.62"/>
<path d="M233.362 164.889C233.799 164.889 234.153 164.53 234.153 164.087C234.153 163.644 233.799 163.285 233.362 163.285C232.925 163.285 232.57 163.644 232.57 164.087C232.57 164.53 232.925 164.889 233.362 164.889Z" fill="#718095" fill-opacity="0.62"/>
<path d="M218.722 152.34C218.94 152.34 219.118 152.161 219.118 151.939C219.118 151.718 218.94 151.538 218.722 151.538C218.503 151.538 218.326 151.718 218.326 151.939C218.326 152.161 218.503 152.34 218.722 152.34Z" fill="#718095" fill-opacity="0.62"/>
<path d="M200.922 123.595C201.42 123.595 201.823 123.186 201.823 122.682C201.823 122.177 201.42 121.769 200.922 121.769C200.425 121.769 200.021 122.177 200.021 122.682C200.021 123.186 200.425 123.595 200.922 123.595Z" fill="#718095" fill-opacity="0.62"/>
<path d="M205.076 143.262C205.076 143.079 204.93 142.932 204.75 142.932C204.571 142.932 204.425 143.079 204.425 143.262C204.425 143.444 204.571 143.591 204.75 143.591C204.93 143.591 205.076 143.444 205.076 143.262Z" fill="#718095" fill-opacity="0.62"/>
<path d="M138.778 140.155C138.778 140.376 138.955 140.556 139.174 140.556C139.393 140.556 139.57 140.376 139.57 140.155C139.57 139.934 139.393 139.754 139.174 139.754C138.955 139.754 138.778 139.934 138.778 140.155Z" fill="#718095" fill-opacity="0.62"/>
<path d="M210.482 161.934C210.482 161.481 210.119 161.114 209.673 161.114C209.226 161.114 208.863 161.481 208.863 161.934C208.863 162.387 209.226 162.754 209.673 162.754C210.119 162.754 210.482 162.387 210.482 161.934Z" fill="#718095" fill-opacity="0.62"/>
<path d="M163.74 116.676C163.888 116.676 164.007 116.554 164.007 116.405C164.007 116.255 163.888 116.134 163.74 116.134C163.592 116.134 163.473 116.255 163.473 116.405C163.473 116.554 163.592 116.676 163.74 116.676Z" fill="#718095" fill-opacity="0.62"/>
<path d="M213.492 123.723C213.492 123.492 213.307 123.305 213.079 123.305C212.851 123.305 212.666 123.492 212.666 123.723C212.666 123.954 212.851 124.142 213.079 124.142C213.307 124.142 213.492 123.954 213.492 123.723Z" fill="#718095" fill-opacity="0.62"/>
<path d="M151.132 87.7959C150.959 87.7959 150.819 87.9378 150.819 88.1129C150.819 88.288 150.959 88.4299 151.132 88.4299C151.305 88.4299 151.445 88.288 151.445 88.1129C151.445 87.9378 151.305 87.7959 151.132 87.7959Z" fill="#718095" fill-opacity="0.62"/>
<path d="M147.749 139.449C147.749 139.778 148.012 140.044 148.336 140.044C148.66 140.044 148.923 139.778 148.923 139.449C148.923 139.121 148.66 138.854 148.336 138.854C148.012 138.854 147.749 139.121 147.749 139.449Z" fill="#718095" fill-opacity="0.62"/>
<path d="M161.596 164.201C161.428 164.201 161.293 164.339 161.293 164.508C161.293 164.678 161.428 164.815 161.596 164.815C161.763 164.815 161.899 164.678 161.899 164.508C161.898 164.339 161.763 164.201 161.596 164.201Z" fill="#718095" fill-opacity="0.62"/>
<path d="M143.468 119.998C143.643 119.998 143.784 119.854 143.784 119.678C143.784 119.501 143.643 119.357 143.468 119.357C143.294 119.357 143.152 119.501 143.152 119.678C143.152 119.854 143.294 119.998 143.468 119.998Z" fill="#718095" fill-opacity="0.62"/>
<path d="M173.438 98.4772C173.438 98.944 173.811 99.3226 174.272 99.3226C174.733 99.3226 175.106 98.9442 175.106 98.4772C175.106 98.0102 174.733 97.6318 174.272 97.6318C173.811 97.6318 173.438 98.0102 173.438 98.4772Z" fill="#718095" fill-opacity="0.62"/>
<path d="M178.478 88.1113C178.165 88.1113 177.911 88.3688 177.911 88.6862C177.911 89.0036 178.165 89.2611 178.478 89.2611C178.792 89.2611 179.046 89.0036 179.046 88.6862C179.046 88.3688 178.792 88.1113 178.478 88.1113Z" fill="#718095" fill-opacity="0.62"/>
<path d="M191.282 25H32.4705C31.6584 25 31 25.8737 31 26.9515C31 28.0292 31.6584 28.9029 32.4705 28.9029H191.282C192.094 28.9029 192.752 28.0292 192.752 26.9515C192.752 25.8737 192.094 25 191.282 25Z" fill="#D1D5DB"/>
<path d="M188.533 30.8555H36.6263C35.8495 30.8555 35.2197 31.7292 35.2197 32.8069C35.2197 33.8847 35.8495 34.7584 36.6263 34.7584H188.533C189.309 34.7584 189.939 33.8847 189.939 32.8069C189.939 31.7292 189.309 30.8555 188.533 30.8555Z" fill="#D1D5DB"/>
<path d="M180.21 36.709H40.7329C40.0196 36.709 39.4414 37.5827 39.4414 38.6605C39.4414 39.7382 40.0196 40.6119 40.7329 40.6119H180.21C180.924 40.6119 181.502 39.7382 181.502 38.6605C181.502 37.5827 180.924 36.709 180.21 36.709Z" fill="#D1D5DB"/>
<path d="M170.177 42.5645H53.5727C52.7575 42.5645 52.0967 43.4382 52.0967 44.5159C52.0967 45.5937 52.7575 46.4674 53.5727 46.4674H170.177C170.992 46.4674 171.653 45.5937 171.653 44.5159C171.653 43.4382 170.992 42.5645 170.177 42.5645Z" fill="#D1D5DB"/>
<g clip-path="url(#clip1_2728_9)">
<path d="M111.497 168.997C139.385 168.997 161.993 146.389 161.993 118.501C161.993 90.612 139.385 68.0039 111.497 68.0039C83.6081 68.0039 61 90.612 61 118.501C61 146.389 83.6081 168.997 111.497 168.997Z" fill="#D1D5DB"/>
<path d="M86.9564 160.874C86.947 160.893 86.9343 160.905 86.9248 160.924C87.0007 160.943 87.0734 160.968 87.1492 160.984L86.9564 160.874ZM83.7799 89.7023L83.6787 89.4968C84.5226 89.3704 84.5795 88.7762 85.2212 88.5581C85.9513 88.3178 85.7016 88.5802 86.4191 88.5581C87.0007 88.5328 87.3547 88.9563 88.0185 88.6466C87.8573 88.931 87.5949 89.127 87.3326 89.3198C86.7858 89.7086 86.2263 90.1069 85.5752 90.2586C84.9241 90.4071 84.1591 90.2491 83.7799 89.7023Z" fill="#777777"/>
<path d="M93.8813 134.712C93.8687 135.157 93.6063 135.546 93.3788 135.922C92.3642 137.578 91.7478 139.497 91.6119 141.441C91.476 143.303 91.5582 145.597 89.9367 146.514C89.0106 147.029 87.7083 146.937 87.092 147.807C86.8992 148.069 86.8075 148.401 86.7158 148.711C86.3176 150.161 85.9162 151.612 85.5179 153.063C85 153.017 84.4826 152.964 83.966 152.905C84.5728 153.098 84.9932 153.92 84.6297 154.482C84.0481 154.176 83.2832 154.539 82.9608 155.124C82.6542 155.705 82.6985 156.413 82.8692 157.055C83.397 158.952 85.0185 160.481 86.9276 160.937C86.5957 161.566 85.5811 161.291 84.9616 160.87C80.5397 157.88 77.2019 153.325 75.6784 148.208C75.1411 146.403 74.7965 144.485 73.744 142.933C72.8653 141.621 71.5378 140.66 70.6591 139.348C69.4264 137.465 69.1956 135.021 67.767 133.299C66.9673 132.316 65.7314 131.108 66.4394 130.056C66.7239 129.623 67.3308 129.212 67.0905 128.753C67.0115 128.605 66.8503 128.513 66.7239 128.387C66.2435 127.872 66.5753 127.062 66.8156 126.399C67.2138 125.245 67.2138 124.012 67.0431 122.78C65.842 121.705 64.8938 120.371 64.2996 118.873C63.9456 117.959 63.4746 116.818 62.4948 116.806C62.2419 116.098 61.9796 115.39 61.7267 114.682C61.635 114.935 61.3853 115.093 61.1104 115.127C61.8689 103.556 66.5343 93.0556 73.7946 84.9197C73.9558 84.8502 74.1138 84.7585 74.275 84.6669C75.9976 83.6617 77.3694 82.1541 79.0351 81.0573C79.3765 80.8297 79.7653 80.6116 80.1888 80.6558C80.5997 80.6906 80.9885 81.111 80.8399 81.4998C80.7831 81.661 80.6471 81.7874 80.5081 81.8885C78.5518 83.5532 76.4193 84.9989 74.1486 86.1999C73.8767 86.3358 73.5891 86.497 73.4658 86.772C73.2351 87.2398 73.6239 87.8213 74.117 87.992C74.6069 88.1627 75.1569 88.0616 75.6594 87.9478C75.2359 88.5515 75.1095 89.3638 75.3275 90.0718C75.7953 90.1161 75.9439 89.4776 76.083 89.0319C76.6519 87.2619 79.4745 86.5412 79.2912 84.6764C80.0561 85.0746 80.8336 84.1833 81.3014 83.4531C81.7692 82.7104 82.8091 81.9802 83.3812 82.6313C83.4128 82.9948 83.4571 83.3615 83.4918 83.7281C84.497 83.4753 85.5147 83.2129 86.5199 82.9601C85.9478 83.3615 85.755 84.218 86.0837 84.8344C86.4156 85.4507 87.2374 85.7605 87.8885 85.5076C87.879 86.045 87.3986 86.4559 86.9624 86.7751C85.8561 87.6096 84.6677 88.4661 83.3781 88.877L83.6752 89.4934C83.6436 89.506 83.6088 89.5187 83.574 89.5187C82.7522 89.5977 81.883 89.0066 81.0043 89.1204C80.467 89.19 79.8064 89.19 79.4966 89.7368C79.4524 89.8063 79.2596 90.764 79.3955 90.685C79.8759 90.41 80.3532 90.135 80.8241 89.8632C80.9695 90.252 81.0043 90.685 80.9253 91.1085C81.5069 91.0517 82.1137 91.1749 82.629 91.4847C82.0916 92.73 80.7104 93.5645 79.3512 93.4602C79.3386 93.0493 79.3165 92.6384 79.3038 92.2275C78.1849 92.1358 77.2714 93.0967 76.712 94.0576C76.143 95.0279 75.71 96.1373 74.7712 96.7537C74.2023 97.1425 73.5038 97.291 72.8874 97.6103C72.2837 97.9422 71.7243 98.5711 71.8507 99.2444C71.9076 99.5636 72.113 99.8607 72.1035 100.193C72.0688 100.809 71.3513 101.097 70.8708 101.495C70.049 102.181 69.8436 103.439 68.9649 104.042C68.3264 104.488 67.4793 104.479 66.7365 104.706C65.9938 104.934 65.251 105.677 65.5512 106.397C65.1846 106.524 64.7389 106.249 64.7042 105.86C63.3924 108.442 62.5264 111.252 62.1724 114.132C62.8235 114.587 63.4841 113.547 63.6105 112.76C63.7464 111.973 64.4323 110.942 65.0708 111.41C64.9223 112.542 64.7737 113.661 64.6283 114.792C64.5935 115.01 64.5714 115.238 64.6757 115.431C64.8021 115.671 65.074 115.772 65.2826 115.943C65.8642 116.445 65.7851 117.337 65.8199 118.102C65.8547 119.037 66.1644 119.951 66.6544 120.75C66.607 120.589 66.5753 120.431 66.5406 120.27C67.4319 120.384 68.358 120.096 69.0313 119.502C69.3853 119.183 69.6824 118.772 70.1281 118.61C70.5864 118.44 71.0889 118.563 71.5567 118.69C73.0075 119.088 74.55 119.533 75.5204 120.674C76.0103 121.256 76.32 121.989 76.9048 122.467C78.2291 123.586 80.4701 123.092 81.6807 124.338C82.6511 125.343 82.4709 126.964 82.2086 128.346C81.5448 127.982 80.6566 128.896 81.0454 129.547C81.3994 129.158 81.8103 128.747 82.3255 128.747C82.8502 128.734 83.3085 129.455 82.9197 129.787C83.8332 128.621 86.071 129.101 86.425 130.552C87.7052 130.644 88.9948 130.732 90.2749 130.836C90.0283 132.714 93.9604 132.825 93.8813 134.712ZM86.0963 81.8664C85.6032 82.1098 84.9237 81.8348 84.7404 81.3164C84.5539 80.7981 84.9047 80.1564 85.442 80.0332C85.7802 79.9541 86.2512 79.9921 86.3555 79.6602C86.3871 79.5591 86.3682 79.4484 86.3682 79.3441C86.3555 78.7183 86.915 78.1999 87.5187 78.0419C88.1224 77.887 88.7609 78.0071 89.3741 78.1272C89.5926 78.5834 89.6548 79.0988 89.5511 79.5938C89.1307 79.6128 88.7103 79.6286 88.2899 79.6476C88.3278 80.3461 88.2583 81.2248 87.6103 81.484C87.0288 81.7147 86.2702 81.2848 85.7866 81.6768M92.6423 74.8906C93.7897 74.3406 94.76 73.4745 95.8916 72.893C97.8386 71.8942 100.111 71.8057 102.298 71.7361L117.233 71.2715C116.079 71.9036 114.926 72.539 113.769 73.1711C112.827 73.6895 111.756 74.2205 110.722 73.9265C110.7 74.7578 111.455 75.5291 112.29 75.5227C110.245 76.787 107.406 75.4943 105.247 76.5563C104.344 77.002 103.613 77.8427 102.618 78.0008C102.042 78.0924 101.445 77.9376 100.873 78.064C99.9153 78.2726 99.3116 79.1798 98.6035 79.8562C97.7881 80.6369 96.5901 81.1711 95.5249 80.7981C94.4598 80.4251 93.9035 78.8416 94.7569 78.1019C95.1773 77.7384 95.7778 77.6784 96.274 77.4224C96.7703 77.1695 97.1622 76.4899 96.7892 76.0759C96.628 75.8957 96.3625 75.8262 96.214 75.6334C96.0528 75.4248 96.0686 75.1276 95.9358 74.9001C95.4301 74.0119 94.0236 75.2067 93.0659 74.8495M107.76 79.0913C108.434 78.9364 109.018 78.5381 109.647 78.2473C110.276 77.9565 111.025 77.7859 111.642 78.0924C111.825 78.5508 111.297 78.968 110.833 79.1323C109.937 79.4461 108.978 79.5298 108.042 79.3757M148.462 84.1137C148.27 84.1365 148.077 84.1247 147.89 84.079C147.033 83.8956 146.382 83.235 145.649 82.7546C143.958 81.6357 141.65 81.4903 139.823 82.4038C140.256 81.7748 140.474 80.9972 140.427 80.2323L140.165 80.324C137.171 78.5887 133.663 76.787 130.398 77.9534C129.642 78.2284 128.96 78.6393 128.195 78.9016C127.382 79.1861 126.482 79.303 125.786 79.8056C125.078 80.3082 124.702 81.4176 125.309 82.0213C125.824 82.5365 126.646 82.3974 127.367 82.467C128.075 82.5365 128.887 83.2414 128.498 83.8482C125.369 85.3117 122.23 86.7878 119.101 88.2638C120.539 88.7316 121.491 90.3626 121.181 91.8482C120.128 92.0315 119.114 91.393 118.052 91.3235C116.509 91.2445 115.036 92.6036 115.005 94.1461C114.961 95.6885 116.377 97.114 117.919 97.0919C119.073 97.0793 120.204 96.3839 121.323 96.6778C121.367 95.6253 122.088 94.734 122.828 93.9817C124.266 92.5404 126.32 91.2381 128.242 91.9462C128.871 92.1737 129.409 92.5973 129.933 93.0177C131.087 93.9311 132.241 94.8541 133.397 95.7802C133.764 95.404 134.128 95.0248 134.494 94.6613C135.123 95.325 135.752 95.9856 136.391 96.6589C136.71 96.4408 137.042 96.2353 137.361 96.0172C137.589 96.6115 137.829 97.193 138.06 97.7873C138.151 97.1362 138.23 96.4977 138.309 95.856C139.065 95.8782 139.864 95.9003 140.547 95.5589C141.233 95.227 141.736 94.4052 141.448 93.6972C141.299 93.3211 140.945 93.024 140.876 92.6226C140.727 91.8229 141.868 91.2761 142.611 91.6396C143.341 91.9936 143.708 92.828 144.018 93.5929C144.188 92.8154 144.346 92.0505 144.52 91.2729C145.238 93.1529 146.26 94.902 147.545 96.4503C145.203 96.0046 142.734 96.2606 140.544 97.1614C141.242 98.1444 142.44 98.726 143.642 98.6786C144.179 98.666 144.773 98.5427 145.184 98.8841C145.494 99.1464 145.573 99.57 145.63 99.9587C145.813 101.056 145.996 102.14 146.167 103.224C144.931 102.209 143.152 102.323 141.54 102.291C139.928 102.247 138.044 101.801 137.45 100.306C136.811 101.027 136.527 102.054 136.71 103.015C135.041 102.617 133.122 101.978 132.642 100.332C131.34 100.812 129.718 99.9809 129.364 98.6438C129.238 98.1761 129.203 97.604 128.792 97.3542C128.542 97.2057 128.22 97.2278 127.923 97.2626C125.445 97.5502 122.976 97.8252 120.511 98.1128C119.164 98.274 117.771 98.4352 116.582 99.0958C115.394 99.747 114.449 101.027 114.584 102.377C112.312 103.726 110.384 105.68 109.082 107.978C108.671 108.686 108.317 109.498 108.478 110.298C108.592 110.914 109.003 111.439 109.129 112.046C109.347 113.085 108.753 114.091 108.503 115.118C107.795 118.042 110.014 120.795 112.072 123.007C113.042 124.034 114.164 125.153 115.58 125.21C116.459 125.245 117.293 124.856 118.115 124.534C120.467 123.608 123.027 123.184 125.549 123.285C124.977 123.731 125.571 124.701 126.282 124.85C126.991 124.998 127.755 124.768 128.441 125.008C130.006 125.567 129.791 127.862 129.083 129.36C129.437 129.291 129.804 129.221 130.167 129.155C129.975 129.654 129.782 130.152 129.586 130.65C131.732 130.922 132.544 133.744 132.045 135.856C131.555 137.97 130.3 139.911 130.265 142.082C130.256 143.271 130.619 144.425 130.986 145.553C131.902 148.42 132.816 151.287 133.732 154.163C136.293 154.47 137.762 151.214 140.139 150.196C141.031 149.807 142.08 149.728 142.779 149.065C143.452 148.426 143.234 146.928 142.368 146.928C143.544 146.801 144.549 145.727 144.583 144.538C144.596 144.207 144.549 143.875 144.593 143.546C144.672 143.078 144.969 142.667 145.254 142.266C147.068 139.661 148.244 136.678 149.419 133.732C149.726 132.941 150.036 132.167 150.342 131.377C151.506 128.441 152.659 125.517 153.822 122.58C154.278 121.427 154.736 120.286 155.191 119.129C154.562 120.169 152.918 120.033 151.98 119.255C151.031 118.481 150.538 117.302 149.796 116.332C149.167 115.497 148.319 114.758 148.022 113.74C147.852 113.158 147.883 112.529 147.782 111.922C147.551 110.607 146.685 109.514 146.091 108.325C145.497 107.137 145.187 105.598 146.022 104.555C148.424 108.746 150.608 113.06 152.583 117.482C152.801 116.796 153.304 116.202 153.942 115.87C154.41 115.617 154.935 115.516 155.428 115.311C156.73 114.739 157.631 113.357 157.631 111.941C157.618 110.525 156.718 109.144 155.403 108.584C154.752 108.31 154.009 108.221 153.393 107.842C152.776 107.478 152.33 106.644 152.719 106.037C153.083 105.465 153.965 105.477 154.568 105.797C155.175 106.129 155.621 106.688 156.19 107.064C156.601 107.339 157.081 107.519 157.527 107.772C159.938 109.153 160.533 112.295 161.038 115.036C161.313 116.509 161.623 117.972 161.99 119.41C162.002 119.1 161.999 118.781 161.999 118.475C161.987 105.193 156.85 93.122 148.462 84.1137ZM153.086 100.708C152.754 100.686 152.447 100.468 152.182 100.262C151.749 99.9208 151.313 99.5194 151.186 98.982C151.038 98.3436 151.344 97.6103 151.003 97.0413C150.842 96.7663 150.557 96.5957 150.317 96.4029C149.688 95.9003 149.23 95.1796 149.059 94.4052C148.911 93.7193 149.125 92.8059 149.824 92.6921C150.156 92.6352 150.519 92.8185 150.668 93.1251L150.2 93.378C150.987 93.4696 151.354 94.6581 150.75 95.1701C150.671 95.2492 150.567 95.3187 150.567 95.4325C150.567 95.502 150.611 95.5684 150.671 95.6158C151.161 96.1532 151.894 96.346 152.533 96.6873C153.171 97.0192 153.8 97.6356 153.699 98.3436C153.494 98.4226 153.301 98.4921 153.095 98.5711C152.877 98.7892 153.051 99.178 153.279 99.393C153.506 99.6079 153.803 99.826 153.816 100.145C153.816 100.49 153.427 100.73 153.086 100.708ZM153.415 135.849L152.59 136.434C152.877 137.446 152.302 138.631 151.325 139.026C150.81 139.235 150.124 139.326 149.95 139.854C149.805 140.303 150.153 140.758 150.2 141.226C150.276 142.003 149.549 142.585 149.024 143.163C148.5 143.742 148.221 144.829 148.92 145.177C149.081 145.259 149.268 145.275 149.448 145.291C150.206 145.357 151.038 145.379 151.657 144.937C153.434 143.669 151.746 140.23 153.5 138.928C153.75 138.745 154.063 138.612 154.199 138.334C154.613 137.515 153.086 136.703 153.415 135.849Z" fill="#718095" fill-opacity="0.8"/>
</g>
</g>
<defs>
<clipPath id="clip0_2728_9">
<rect width="233" height="175" fill="white"/>
</clipPath>
<clipPath id="clip1_2728_9">
<rect width="101" height="101" fill="white" transform="translate(61 68)"/>
</clipPath>
</defs>
</svg>
