<svg width="750" height="338" viewBox="0 0 750 338" fill="none" xmlns="http://www.w3.org/2000/svg">
<path d="M37 70.5L3.5 131L34.5 194.5H107L143 130L110.5 70.5H37Z" fill="black"/>
<path d="M158.5 124L126 65L159.5 2.5H226.5L262.5 65L226.5 124H158.5Z" fill="black"/>
<path d="M277 194.5L243.5 131L277 70.5H353L387 131L350 194.5H277Z" fill="black"/>
<path d="M233.5 142H154L120.5 203.5L154 268.5H231.5L265 205.5L233.5 142Z" fill="black"/>
<path d="M243.5 271L277 210H353.5L387 273.5L353.5 337.5H279L243.5 271Z" fill="black"/>
<path d="M107 337.5L143 276L110 210H34.5L0 273.5L34.5 337.5H107Z" fill="black"/>
<path d="M400.5 265.5L367 203.5L400.5 142H470.5L505.5 203.5L470.5 265.5H400.5Z" fill="black"/>
<path d="M400.5 124L367 65L400.5 0H470.5L505.5 62.5L470.5 124H400.5Z" fill="black"/>
<path d="M485.5 131L520.5 70.5H595L628 131L592.5 194.5H520.5L485.5 131Z" fill="black"/>
<path d="M643 127L608 65L643 0H716L750 65L716 127H643Z" fill="black"/>
<path d="M606.5 205.5L643 142H713L750 205.5L713 268.5H643L606.5 205.5Z" fill="black"/>
<path d="M485.5 273.5L520.5 210H592.5L630 273L592.5 337.5H520.5L485.5 273.5Z" fill="black"/>
</svg>
