<svg width="506" height="577" viewBox="0 0 506 577" fill="none" xmlns="http://www.w3.org/2000/svg">
<path d="M363.14 0.638278C349.244 2.73371 337.995 11.7771 332.922 24.9011C332.15 26.9966 331.378 28.8714 331.157 29.092C331.047 29.3126 329.062 28.5406 326.635 27.3274C319.687 23.7983 302.262 17.512 290.572 14.424C278.771 11.336 275.132 11.336 284.616 14.424C307.997 22.144 334.796 40.7823 356.302 64.2731C388.506 99.4543 414.643 154.266 418.503 194.3C419.827 208.527 415.084 224.518 405.379 238.855C401.409 244.701 389.939 256.832 385.418 260.141L382.109 262.457L385.748 257.273C390.38 250.435 394.13 242.164 396.336 233.893C399.424 221.871 397.88 216.798 393.799 226.062C388.285 238.304 377.477 252.2 366.118 261.574C359.059 267.419 355.089 269.515 358.728 265.434C361.044 262.898 368.213 246.796 368.213 244.039C368.213 243.046 367.882 242.164 367.331 242.164C366.89 242.164 363.03 245.693 358.839 249.994C348.141 260.802 334.024 271.39 314.724 282.749C314.173 283.08 314.835 281.646 316.158 279.551C322.114 270.838 326.304 258.155 326.304 249.443C326.304 246.355 326.856 245.473 329.944 244.259C337.002 241.392 346.707 235.106 351.229 230.363C363.471 217.791 361.596 203.674 343.178 168.383C330.275 143.679 322.444 134.525 311.195 131.217C300.277 128.018 292.667 131.547 286.822 142.576C278.882 157.575 276.566 178.088 281.528 188.786C284.065 194.3 289.248 199.263 293.88 200.697C297.63 201.799 305.902 211.394 309.541 218.563C316.379 232.349 318.033 239.297 318.033 254.406C318.033 267.75 317.923 268.522 315.166 272.493C306.232 284.845 273.257 300.836 256.273 300.946C234.657 301.057 196.719 279.771 191.756 264.773C189.44 257.825 190.984 242.274 194.954 231.246C201.13 214.482 207.858 205.439 218.445 200.145C233.664 192.425 237.194 174.118 228.15 149.303C224.18 138.385 221.202 134.305 215.578 131.768C210.063 129.231 207.086 129.231 199.807 131.327C188.668 134.635 178.08 147.539 163.192 176.213C147.972 205.439 147.421 214.703 160.214 226.503C164.846 230.805 177.198 237.642 182.712 239.076C184.477 239.627 184.918 241.061 185.47 249.443C186.131 261.243 188.116 267.089 194.182 275.029C198.594 280.985 198.594 281.095 195.726 280.323C187.344 278.227 173.118 272.272 165.067 267.419C160.104 264.442 155.913 262.236 155.582 262.457C155.362 262.787 157.236 265.214 159.773 267.971C162.42 270.728 164.184 273.044 163.854 273.044C162.31 273.044 146.208 263.229 139.15 257.935C124.592 247.017 116.32 235.437 110.475 218.011L106.946 207.424V214.041C106.836 226.945 112.35 242.495 120.842 252.862C126.798 260.251 123.599 258.486 112.571 248.23C100.991 237.311 92.7193 225.731 89.0799 214.923C86.8741 208.527 86.433 205.329 86.433 193.087C86.433 185.146 86.7639 176.213 87.3153 173.235C88.4181 165.846 86.7639 168.934 84.117 178.75C80.0364 194.3 81.801 215.254 88.0873 227.937C90.0724 231.797 90.0724 231.797 86.9844 236.87C65.9199 270.728 47.061 311.093 40.9953 335.355C35.7016 356.751 36.9147 385.425 44.0833 406.269L46.0684 412.114L43.6421 412.997C30.849 417.518 27.0993 419.283 21.6953 423.363C14.1959 428.988 9.67415 434.392 5.81415 442.553C-7.19957 470.125 2.39529 515.011 26.989 541.038C30.9593 545.229 36.5839 550.192 39.6719 552.177C56.325 562.765 85.2199 569.051 130.658 571.918C140.473 572.47 149.847 573.462 151.612 574.124C157.567 576.44 170.36 577.433 180.066 576.33C193.079 574.786 200.91 571.587 207.858 565.081L213.482 559.787H256.052C297.299 559.787 298.733 559.897 299.836 561.993C300.498 563.206 303.144 565.411 305.681 566.845C320.79 575.778 349.023 578.977 369.867 574.345C375.382 573.021 384.535 571.698 390.27 571.367C418.614 569.492 444.31 563.867 458.868 556.368C495.924 537.178 516.878 475.529 498.24 440.568C491.733 428.437 478.278 418.18 462.838 413.769C459.309 412.776 456.442 411.783 456.442 411.673C456.442 411.563 457.655 406.71 459.088 400.975C466.257 372.742 465.485 351.788 456.331 323.775C449.604 303.373 437.031 276.794 420.93 248.891L414.864 238.414L417.4 234.665C421.04 229.371 424.348 219.997 425.562 211.615C428.429 190.881 416.628 145.002 399.424 110.593C397.439 106.513 396.005 102.653 396.336 102.101C396.777 101.439 398.431 100.998 400.086 100.998C404.938 100.998 416.077 94.8223 421.15 89.308C431.958 77.6177 434.274 60.5234 427.878 41.1131C418.834 14.2034 390.491 -3.66286 363.14 0.638278ZM207.968 169.265C201.02 170.258 197.822 173.456 197.822 179.411C197.822 187.131 206.314 192.646 212.931 189.117C214.144 188.455 215.357 188.234 215.688 188.455C216.791 189.558 209.402 192.535 205.542 192.535C203.336 192.535 199.586 191.543 197.05 190.219C192.638 187.903 192.638 187.903 193.3 182.941C194.072 176.985 197.27 171.361 200.799 169.596C202.233 168.934 205.542 168.493 208.299 168.493L213.262 168.603L207.968 169.265ZM312.96 171.03C316.158 173.787 317.702 177.095 319.136 184.374C319.798 187.683 319.467 188.014 314.945 190.219C308.218 193.528 301.931 193.307 297.961 189.668C295.204 187.242 295.204 187.021 297.63 188.565C304.468 192.977 314.063 187.683 314.173 179.632C314.173 174.779 310.203 170.368 304.688 169.375L300.387 168.493L305.019 168.383C308.438 168.273 310.423 168.934 312.96 171.03ZM210.946 174.449C211.718 176.544 209.843 179.301 207.747 179.301C205.652 179.301 203.556 176.213 204.328 174.338C205.1 172.133 210.063 172.243 210.946 174.449ZM308.107 175.993C308.107 179.411 304.468 180.404 302.372 177.537C300.608 175.11 302.483 172.463 305.791 172.905C307.446 173.125 308.107 174.007 308.107 175.993ZM161.979 317.379C167.603 331.495 178.963 353.332 186.793 365.022C194.844 377.043 205.872 391.05 223.077 410.901C237.635 427.665 241.495 434.833 242.156 445.641L242.487 453.361L240.833 447.295C238.186 438.142 233.775 432.186 219.658 419.062C207.416 407.593 196.829 395.461 190.984 386.307C187.565 381.014 186.793 381.565 188.999 387.741C190.432 391.932 190.432 392.263 188.999 391.05C185.8 388.403 174.772 369.654 169.478 357.743C162.64 342.634 158.67 328.849 157.898 317.379C157.567 312.416 157.457 308.335 157.788 308.335C158.119 308.335 159.994 312.416 161.979 317.379ZM356.854 338.333C356.082 353.001 354.427 362.375 349.906 376.161C346.376 386.969 339.098 402.74 333.694 411.232C329.062 418.511 328.841 419.173 331.708 417.518C332.922 416.967 334.466 416.415 335.017 416.415C337.112 416.415 326.966 435.164 316.379 451.045C301.159 473.764 298.071 482.035 298.954 497.034C299.174 502.218 298.954 504.203 298.182 503.431C297.52 502.769 297.079 496.042 297.079 486.667C297.189 467.588 298.292 464.279 310.423 446.082C319.356 432.738 324.65 423.143 323.658 422.15C323.216 421.819 321.452 422.591 319.687 423.915C317.923 425.238 316.158 426.341 315.827 426.341C315.496 426.341 318.254 422.261 322.003 417.298C329.062 407.813 334.796 397.667 333.032 397.667C332.48 397.667 329.392 399.983 326.194 402.85C322.996 405.828 320.9 407.372 321.452 406.49C322.003 405.607 324.76 401.306 327.518 397.115C337.995 381.345 343.068 369.103 348.913 345.943C351.008 337.451 353.324 329.179 354.096 327.635C356.743 321.79 357.515 324.768 356.854 338.333ZM314.504 329.731C319.136 331.606 323.658 337.01 325.202 342.303C326.856 348.259 326.525 363.809 324.54 375.72C321.783 392.373 313.291 415.754 306.343 426.231C304.578 428.767 304.247 429.87 305.35 429.429C311.416 427.003 311.085 426.893 308.879 430.863C288.807 466.595 286.271 472.992 286.271 488.653C286.271 506.96 291.895 522.51 301.931 531.223C307.666 536.296 308.218 535.524 293.77 542.693C271.492 553.721 254.067 553.721 232.562 543.023L223.187 538.281L222.526 532.215C222.195 528.907 221.533 524.937 221.092 523.393C220.43 520.966 221.202 520.084 227.599 515.342C244.693 502.659 253.406 482.807 251.972 459.427C250.979 441.23 245.686 428.657 234.547 417.959C227.599 411.342 224.511 405.828 215.908 385.535C210.725 373.183 209.291 373.183 211.607 385.866C212.379 390.057 212.71 393.586 212.49 393.807C211.938 394.469 202.674 380.683 197.822 371.86C194.072 365.133 193.851 364.361 195.947 365.022C198.152 365.794 198.263 365.574 197.16 362.375C195.616 358.295 196.719 353.553 199.035 353.553C200.027 353.553 202.564 355.097 204.659 356.971C206.755 358.736 208.74 360.059 208.96 359.839C209.181 359.618 208.63 357.192 207.637 354.325C206.755 351.567 206.093 347.707 206.314 345.612C206.644 342.414 206.975 341.973 209.843 341.973C212.379 341.973 213.923 342.965 216.46 346.494C218.335 348.921 220.982 352.45 222.305 354.214L224.731 357.413L224.511 349.251C224.18 336.679 226.386 337.451 232.01 351.898C232.672 353.663 233.113 353.111 233.775 349.141C234.326 346.494 235.65 343.296 236.863 342.193C240.061 338.885 242.928 341.311 248.553 352.229L253.406 361.824V352.119C253.516 346.715 253.957 342.634 254.508 342.965C255.06 343.296 256.383 346.935 257.486 350.906C259.582 358.957 261.015 358.295 261.236 349.141C261.456 342.414 263.552 336.569 265.978 336.127C267.522 335.797 268.735 337.561 271.492 343.517C273.478 347.818 275.352 351.347 275.904 351.347C276.345 351.347 276.676 348.149 276.676 344.289C276.676 339.105 277.227 336.679 278.44 335.355C280.095 333.701 280.426 333.701 282.08 335.245C282.962 336.238 284.616 339.105 285.609 341.531L287.374 346.163L290.351 341.09C294.652 333.591 301.931 328.628 308.99 328.297C310.092 328.187 312.519 328.849 314.504 329.731ZM73.7501 378.477C78.4924 393.145 89.0799 406.49 106.836 419.724C127.79 435.385 135.51 443.546 152.384 468.139C157.567 475.639 164.184 484.462 166.942 487.77C172.346 493.946 181.389 500.563 186.242 501.887C188.778 502.438 188.668 502.218 185.139 499.13C181.72 496.152 181.499 495.601 183.043 494.167C184.587 492.623 185.028 492.733 187.896 494.829C191.204 497.475 200.91 510.158 200.138 510.93C199.145 511.923 180.727 506.409 174.772 503.21C164.405 497.696 158.229 491.189 146.87 473.874C141.024 465.051 134.076 455.126 131.319 451.817C126.136 445.751 115.769 436.929 114.887 437.811C114.556 438.142 115.99 440.458 118.195 443.105C122.386 448.398 132.202 463.177 132.202 464.5C132.202 464.941 129.555 462.846 126.467 459.868C123.268 456.78 113.343 448.288 104.41 440.899C86.433 426.01 78.9336 417.739 73.8604 407.372C68.4564 396.233 66.8021 387.851 67.4639 374.507C68.1256 358.957 69.3387 356.199 71.1033 366.456C71.765 370.757 72.9781 376.161 73.7501 378.477ZM438.024 386.749C438.575 389.395 438.686 398.77 438.355 407.593C437.803 424.356 435.487 437.37 430.745 451.155C427.878 459.647 422.804 469.794 423.907 464.941C427.657 448.398 429.532 436.267 427.988 437.921C427.436 438.473 424.9 444.097 422.363 450.383C407.806 486.116 398.211 499.902 380.234 510.71C374.279 514.349 356.082 521.849 356.082 520.635C356.082 519.643 371.852 495.711 372.183 496.152C372.955 496.814 369.536 506.85 367.662 509.717C364.904 513.908 366.338 514.129 369.757 510.048C371.411 508.063 375.051 504.975 377.808 503.1C395.784 491.299 413.761 453.692 432.289 389.616C433.612 384.874 435.267 381.234 435.928 381.455C436.59 381.675 437.472 383.991 438.024 386.749ZM44.5244 422.261C26.8787 428.878 14.5267 444.207 10.2256 464.941C9.34329 469.463 8.35072 473.323 8.24043 473.543C7.13758 474.536 6.58615 459.096 7.46843 454.243C9.12272 445.641 11.3284 441.34 17.1736 435.054C23.4599 428.326 29.8564 424.356 38.8999 421.819C48.7153 418.952 52.5753 419.283 44.5244 422.261ZM468.904 422.922C482.248 427.554 492.946 437.48 496.586 448.398C498.902 455.457 499.674 463.618 498.571 469.353L497.578 474.315L496.806 469.904C495.593 462.625 492.726 453.692 489.748 447.847C484.454 437.259 470.338 425.459 458.647 421.819C456 421.047 456 421.047 459.309 420.937C461.184 420.827 465.485 421.819 468.904 422.922ZM239.73 460.971C240.833 464.721 241.384 470.014 241.164 475.087L240.833 483.138L237.304 477.073C235.319 473.764 232.782 469.794 231.79 468.25C229.474 465.162 231.348 465.823 235.65 469.683L238.076 471.889V469.242C238.076 467.698 237.083 464.5 235.87 462.184C233.444 457.552 233.664 455.015 236.311 455.015C237.414 455.015 238.627 457.221 239.73 460.971ZM227.268 476.521C230.466 481.153 234.767 492.513 234.767 496.152C234.767 497.917 233.444 497.034 228.481 492.402C224.952 489.094 220.651 485.344 218.776 484.021C214.254 480.602 217.563 480.822 223.408 484.241C225.944 485.785 228.15 486.667 228.15 486.116C228.15 484.793 221.974 475.308 220.54 474.426C219.879 473.985 219.548 473.102 219.989 472.551C221.202 470.455 224.18 472.11 227.268 476.521ZM206.865 486.116C211.166 491.079 218.114 506.298 216.57 507.732C216.35 508.063 214.364 506.739 212.159 504.865C210.063 502.99 205.542 499.571 202.123 497.475C194.182 492.402 195.285 491.079 203.887 495.601C207.527 497.475 210.504 498.689 210.504 498.358C210.504 497.917 208.519 495.049 206.093 491.741C202.012 486.447 201.24 483.69 203.777 483.69C204.218 483.69 205.652 484.793 206.865 486.116ZM311.967 490.748C311.967 491.52 311.195 494.387 310.313 496.924C309.431 499.461 308.659 502.879 308.659 504.423V507.291L311.967 504.093C313.842 502.328 315.276 501.225 315.276 501.556C315.276 501.887 313.622 505.857 311.526 510.269C306.894 520.084 305.902 519.091 305.902 504.644C305.902 493.064 306.894 489.204 309.762 489.204C310.975 489.204 311.967 489.866 311.967 490.748ZM324.54 501.005C323.106 503.762 321.893 507.511 321.893 509.276V512.585L324.54 509.386C327.187 506.298 334.686 501.225 333.914 503.1C333.694 503.651 330.275 508.173 326.304 513.136C320.57 520.305 318.915 521.849 318.143 520.415C315.938 516.555 319.908 496.593 323.216 494.498C323.988 494.057 325.091 494.167 325.863 494.829C326.746 495.601 326.415 497.255 324.54 501.005ZM487.322 509.827C484.123 521.628 477.065 534.642 469.566 542.693C459.53 553.39 448.722 558.243 426.885 561.993C419.937 563.206 412.217 564.198 409.791 564.088C405.6 564.088 406.041 563.867 414.533 561.331C427.657 557.471 446.626 547.876 456.772 539.715C467.36 531.333 478.168 518.209 484.344 505.967C489.748 495.38 490.961 496.814 487.322 509.827ZM18.9381 507.07C24.1216 517.878 31.1799 526.37 42.0981 535.083C52.9061 543.685 72.537 553.721 87.7564 558.463C93.7119 560.228 100.329 562.323 102.424 562.985C105.733 563.978 104.961 564.088 98.013 563.537C77.6101 562.103 57.5381 557.471 46.9507 551.736C32.7239 544.237 18.8279 523.062 14.7473 502.659C14.3061 500.784 14.3061 499.13 14.5267 499.13C14.8576 499.13 16.8427 502.769 18.9381 507.07ZM350.457 500.563C351.339 501.666 350.898 503.1 348.362 506.519C346.597 508.945 344.612 512.143 344.06 513.798C342.958 516.555 343.068 516.555 349.685 512.254C355.751 508.394 360.493 506.409 357.736 508.945C352.001 514.018 338.436 525.598 338.105 525.598C337.112 525.598 339.759 513.798 341.855 509.055C346.046 499.571 348.031 497.696 350.457 500.563ZM173.779 509.055C180.617 512.143 188.888 517.768 188.006 518.65C187.786 518.871 184.808 517.327 181.499 515.231C174 510.379 172.676 510.269 176.867 514.57C178.632 516.334 179.845 517.989 179.514 518.319C179.294 518.54 172.125 518.981 163.633 519.422C148.744 520.084 148.303 519.974 151.502 518.209C153.928 516.886 157.567 516.334 164.956 516.334C170.581 516.224 175.213 516.114 175.213 515.893C175.213 515.783 171.353 513.136 166.721 510.048C158.45 504.534 158.229 504.423 162.53 505.195C164.846 505.526 169.919 507.291 173.779 509.055ZM201.792 521.297C205.321 523.723 205.983 523.062 203.115 519.863C201.902 518.54 201.792 517.878 202.674 517.878C206.644 517.878 212.71 528.355 212.71 534.973C212.71 536.737 212.269 536.517 210.615 533.759C209.512 531.885 206.424 528.576 203.777 526.37C201.13 524.165 197.491 521.077 195.616 519.533L192.307 516.775L195.506 517.878C197.27 518.54 200.138 520.084 201.792 521.297ZM148.855 522.4C149.847 524.385 149.296 526.37 144.774 535.193C140.032 544.347 139.37 546.442 139.37 552.398C139.37 556.147 139.811 560.669 140.252 562.544C141.135 565.632 140.914 565.522 138.378 561.441C133.415 553.721 133.304 543.575 138.157 532.767C140.363 528.025 145.877 520.084 147.2 520.084C147.421 520.084 148.083 521.187 148.855 522.4ZM391.483 529.458C394.02 533.759 394.682 536.296 394.571 541.038C394.571 546.553 392.696 554.162 392.586 549.751C392.255 544.347 388.726 536.296 384.204 531.333L379.242 525.819L382.219 523.613C385.969 520.856 386.962 521.518 391.483 529.458ZM189.44 532.877C192.197 534.862 195.064 540.707 195.064 544.567C195.064 548.869 190.432 556.589 185.911 559.897C177.308 566.073 168.375 566.625 161.979 561.331C149.627 550.964 161.868 531.223 180.727 531.113C184.698 531.113 187.786 531.774 189.44 532.877ZM364.904 536.627C369.095 539.605 372.514 546.553 372.624 551.957C372.624 557.691 368.544 564.97 363.581 568.389C360.052 570.705 357.846 571.257 353.324 571.257C344.06 571.036 338.215 566.625 335.238 557.361C332.701 549.641 337.884 539.494 346.376 535.083C351.45 532.546 360.162 533.208 364.904 536.627ZM317.482 542.913C314.173 546.442 311.085 549.751 310.534 550.413C309.982 550.964 310.313 549.53 311.306 547.104C313.291 542.251 318.695 536.627 321.562 536.627C322.665 536.627 321.342 538.722 317.482 542.913Z" fill="black"/>
<path d="M125.254 2.29241C109.262 6.81413 95.6971 18.3941 88.3079 33.8341C73.4193 64.8244 83.5656 94.0501 111.688 101.108L116.762 102.322L113.894 106.954C105.292 120.85 98.1233 139.929 95.1456 157.244C92.9399 169.927 93.4913 194.631 96.1382 202.461L97.7925 207.424L97.9028 196.285C98.1233 174.448 103.858 153.053 116.1 127.798C128.672 102.101 142.127 82.801 161.648 62.3981C183.595 39.4587 206.865 23.5776 234.216 12.6593C243.37 9.01984 242.046 8.79927 228.702 11.5564C215.578 14.4238 201.902 18.725 191.866 23.357C187.344 25.4524 183.374 27.1067 182.933 27.1067C182.602 27.1067 181.058 24.5701 179.624 21.5924C176.426 14.865 168.265 6.81413 161.096 3.61584C154.59 0.638128 133.635 -0.133872 125.254 2.29241Z" fill="black"/>
<path d="M227.268 234.555C225.173 236.65 223.739 239.076 223.739 240.731C223.739 244.591 229.364 249.553 234.878 250.436C237.414 250.877 240.944 252.641 242.929 254.406C244.914 256.06 247.892 258.045 249.436 258.597C253.406 260.141 253.516 266.096 249.766 270.508C247.12 273.485 246.789 273.596 235.65 273.596C226.165 273.596 223.408 273.155 218.886 271.059C215.909 269.736 213.262 268.743 213.041 268.964C211.718 270.287 220.651 276.684 225.834 278.228C233.003 280.213 245.134 279.661 251.531 277.015C255.17 275.471 255.942 275.471 259.692 277.015C270.39 281.536 287.374 279.551 294.653 273.044C299.285 268.964 298.182 268.081 292.006 271.169C288.036 273.155 285.278 273.596 276.456 273.596C263.332 273.596 259.802 271.721 259.251 264.442C258.92 260.472 259.251 259.7 262.008 258.376C263.662 257.494 266.089 255.729 267.192 254.406C268.294 253.193 272.154 251.318 275.794 250.325C282.301 248.451 287.705 243.929 287.705 240.289C287.705 239.407 286.05 236.981 283.955 234.885C279.433 230.364 274.912 230.033 265.317 233.341C257.597 236.099 254.729 236.099 246.017 233.341C235.76 230.143 231.569 230.364 227.268 234.555Z" fill="black"/>
</svg>
