<svg width="1706" height="1707" viewBox="0 0 1706 1707" fill="none" xmlns="http://www.w3.org/2000/svg">
<g clip-path="url(#clip0_2478_438)">
<path d="M1180.67 1.59961C1177.07 2.26636 1167.87 3.99963 1160.27 5.46631C1111.47 14.6664 1059.33 44.1329 1000 96.1329C991.6 103.6 970 123.6 952 140.666C915.867 175.066 903.333 186.133 884.933 199.866C836.8 236 774.667 264.533 691.333 288.666C660.533 297.6 606.933 310.8 569.333 318.8L536.667 325.6L513.333 310.933C463.867 280 422.933 259.2 369.467 238C288.8 206.133 201.333 185.6 159.333 188.666C129.067 190.933 108.8 198.666 91.7332 214.533C75.5999 229.333 65.1999 249.733 58.9332 279.333C55.5999 294.533 55.4665 297.466 55.4665 334C55.4665 381.866 59.3332 422.933 69.9999 486.933C85.8665 581.6 109.067 664.133 147.333 761.333C157.2 786.4 162.667 807.733 162.667 821.2C162.533 846.8 156.133 857.866 116.8 899.466C105.333 911.6 91.9999 926.533 87.1999 932.533C54.9332 972.666 30.5332 1023.6 16.6665 1078.93C9.19987 1109.33 7.19987 1122.8 1.3332 1184C-0.40013 1201.73 -0.40013 1228.53 1.3332 1244.4C1.99987 1251.2 3.19987 1265.33 3.99987 1276C8.1332 1329.87 16.6665 1380 37.1999 1470.67C41.5999 1490.13 46.1332 1512.8 47.3332 1521.2C49.7332 1538.53 52.6665 1546.53 59.7332 1553.87C64.2665 1558.53 75.5999 1564.93 76.9332 1563.47C77.3332 1563.2 74.7999 1554.53 71.5999 1544.4C53.9999 1490.4 40.6665 1432.53 32.1332 1372.67C8.66654 1209.2 24.3999 1074.93 76.2665 997.333C87.4665 980.533 108 959.733 123.333 949.866C177.467 914.666 242.267 915.866 319.467 953.2C396.4 990.533 458.533 1048.27 488 1110C502.133 1139.47 507.733 1161.47 508.933 1191.47C510.133 1224.13 505.333 1248.27 492.133 1275.33C464.933 1330.93 414.533 1362.67 353.333 1362.67C303.067 1362.67 259.6 1343.87 221.2 1305.47C198.4 1282.53 183.733 1260.53 170.8 1229.07C163.467 1211.73 154.933 1202.67 145.467 1202.67C139.867 1202.67 137.333 1206.8 137.333 1216.13C137.333 1236.27 150.667 1268.13 171.867 1298C181.467 1311.73 209.6 1339.87 223.6 1349.73C247.067 1366.4 279.467 1380 306.667 1384.67C322.4 1387.33 354.4 1389.2 387.333 1389.33C439.6 1389.33 470.667 1396.53 500.933 1415.6C522.667 1429.07 534.133 1438.8 580.133 1482.53C613.467 1514.13 632.8 1528.93 654.667 1540C674.667 1550 690.933 1554.67 738.267 1563.33C791.733 1573.2 813.867 1580.13 834.133 1593.6C850 1604.27 871.733 1629.07 870 1634.67C868.8 1638.53 855.733 1690 855.067 1693.47C854.267 1697.47 859.333 1702.4 865.6 1703.6C867.733 1704 869.733 1704.93 870.133 1705.47C871.6 1708 877.2 1706.53 880.4 1702.8C882.8 1700 885.2 1692.4 889.733 1673.87C900 1632.67 906 1614 913.067 1602.13C932.4 1570 970.933 1527.73 1002.27 1504.4C1079.73 1446.8 1163.73 1426.93 1234.4 1449.47C1265.6 1459.47 1288.53 1473.73 1312.8 1497.87C1352 1537.07 1372.67 1586.93 1371.87 1640L1371.6 1658L1376.27 1659.73C1387.2 1663.87 1404.27 1653.47 1407.87 1640.53C1410.27 1632.13 1409.6 1610.4 1406.67 1596C1399.47 1560.8 1380.4 1520.8 1354.27 1486C1345.47 1474.4 1314.27 1442.67 1306.27 1437.33C1303.6 1435.47 1301.33 1432.93 1301.33 1431.73C1301.33 1429.6 1342.53 1355.87 1397.07 1260.67C1441.2 1183.47 1450.93 1172.8 1477.33 1172.67C1487.07 1172.67 1489.73 1173.2 1496 1176.27C1510.53 1183.33 1523.6 1199.47 1529.47 1217.6C1532.13 1225.6 1532.67 1230 1532.53 1242C1532.4 1260.67 1529.47 1273.2 1516.4 1310C1510.93 1325.33 1504.8 1344.53 1502.93 1352.67C1499.6 1366.27 1499.33 1369.47 1499.47 1397.33C1499.47 1423.47 1499.87 1429.07 1502.4 1441.33C1517.33 1510.27 1559.2 1569.6 1616.67 1603.33C1631.2 1611.87 1651.33 1620.27 1666.8 1624.27C1680.53 1627.73 1689.47 1626.27 1696.13 1619.6C1704.27 1611.6 1705.73 1605.73 1704.93 1584C1701.47 1486.8 1680.27 1398.67 1640.13 1315.33C1613.33 1259.87 1582.93 1215.07 1536.13 1162C1504.93 1126.53 1490.93 1105.33 1483.33 1081.33C1480.27 1071.73 1479.6 1066.93 1479.07 1050.67C1478.27 1027.07 1480.13 1015.47 1492.53 966.533C1509.2 900.933 1514.93 851.866 1512 800C1508 729.6 1494.13 676.933 1452.27 572C1404 451.066 1397.47 424.266 1392 322.666C1388.8 262.533 1387.73 247.466 1385.2 224.8C1383.73 211.733 1381.07 193.733 1379.33 184.8C1361.07 93.0664 1315.2 31.0664 1249.6 9.46631C1227.2 1.99963 1196.4 -1.46704 1180.67 1.59961ZM1222.93 51.5996C1240.4 57.733 1253.07 66.2664 1270.8 83.8663C1289.07 102.266 1301.2 119.733 1314.67 147.333C1357.87 235.866 1366.13 351.6 1335.47 438.266C1331.47 449.466 1331.07 457.066 1334.13 462.933C1335.33 465.333 1341.47 474.133 1347.73 482.533C1406.27 561.6 1433.73 616.933 1449.33 687.333C1457.47 724.133 1464.53 779.466 1466.53 822.266C1470.27 898.4 1457.47 1005.87 1438 1062.67C1420.93 1112.67 1407.73 1149.07 1401.73 1162.27C1370.67 1231.2 1315.87 1289.47 1238 1335.87C1213.33 1350.67 1200.27 1357.47 1156.93 1377.87C999.867 1452.27 945.6 1469.6 865.067 1471.6C831.733 1472.4 811.867 1471.07 781.867 1466C713.067 1454.13 615.467 1419.33 534.667 1377.87C490.933 1355.33 487.067 1350 504.533 1336.27C509.2 1332.67 516.533 1324.13 525.333 1312C546.4 1282.8 550.533 1271.87 551.6 1242.4C552.533 1218.93 550 1200 541.333 1166C522.667 1092.67 509.467 1061.73 484.133 1031.33C479.2 1025.47 471.2 1015.6 466.4 1009.33C461.6 1003.07 455.733 996.133 453.333 994C444.267 985.466 443.467 978.533 450.267 969.466C452.267 966.8 460.267 957.466 468 948.666C503.067 908.8 528.133 870.666 569.067 795.333C592.533 752 605.067 715.733 614 664.666C625.333 600.266 630.533 514.4 624.933 484.4C620.267 458.933 602.4 416.533 589.333 400C583.867 392.933 581.333 387.333 581.333 382C581.333 371.466 587.733 364 604.133 355.333C640.933 336 804.4 301.466 859.467 301.333C868.267 301.333 871.333 300.666 877.067 297.866C887.333 292.8 900.4 277.733 919.467 249.066C938.267 220.8 944.133 213.466 970.267 185.066C989.2 164.533 1014.4 140.8 1034.27 124.933C1070 96.5331 1123.73 64.933 1154.67 54.1329C1171.47 48.2664 1180.8 46.6664 1196.67 47.1997C1208.8 47.4664 1213.33 48.2664 1222.93 51.5996ZM218.8 331.2C235.467 335.6 242.8 338.533 261.333 348.266C317.6 377.733 345.333 409.333 352.8 452.266C357.467 479.2 350.933 502.533 330.667 530.933C312.133 556.933 268.267 595.066 247.867 602.8C226.8 610.933 209.067 599.333 187.733 563.333C168.133 530.133 153.733 498.533 144.8 468.933C139.067 449.866 128.4 402.133 126.933 388.4C123.333 356.8 136.4 335.6 163.6 328.666C175.467 325.733 202.533 326.933 218.8 331.2Z" fill="black"/>
<path d="M1180.27 130.8C1169.07 132.666 1149.47 139.6 1138.27 145.733C1108.93 161.733 1075.73 192.266 1050.13 226.666C1025.73 259.466 1017.33 275.733 1016.27 292.266C1015.2 310.266 1022 319.066 1044.93 329.466C1052 332.666 1081.73 347.2 1111.07 361.733C1174.13 392.933 1180.67 395.2 1203.33 395.333C1218.53 395.333 1219.73 395.066 1228 391.2C1254.8 378.4 1268.67 346 1270.27 292.666C1271.2 265.466 1269.73 251.2 1262.67 216C1253.6 170.933 1249.33 158 1239.2 145.866C1228.53 132.666 1205.07 126.666 1180.27 130.8ZM1184.8 170.133C1194.53 174.8 1201.33 191.733 1211.2 236C1218.53 269.466 1221.07 285.866 1222.8 313.733C1225.07 349.333 1223.2 355.466 1210.13 354.4C1196.53 353.066 1155.33 335.066 1128.4 318.4C1108.4 306.133 1082.93 285.866 1078.4 278.8C1071.33 267.6 1073.47 261.733 1094 234.266C1125.47 192.533 1142 177.066 1162.4 170.533C1171.87 167.466 1178.93 167.333 1184.8 170.133Z" fill="black"/>
<path d="M1186.93 764.267C1182.93 765.733 1175.2 770.133 1169.6 774.133C1163.87 778.133 1154.27 784.4 1148 788.133C1118.4 806 1105.33 822 1105.33 840.4C1105.33 856 1113.87 866.667 1127.47 867.733C1134.13 868.267 1134.93 868 1138.53 864.133C1140.93 861.6 1144.8 854 1148 845.6C1157.07 821.867 1165.07 812.267 1183.07 804C1193.6 799.067 1203.6 798.267 1210.67 802C1213.2 803.333 1219.73 807.867 1225.07 812.133C1238.53 823.067 1248.8 825.067 1260.13 819.333C1268.67 814.8 1270.67 802 1264.27 791.867C1250.13 769.733 1210 755.333 1186.93 764.267Z" fill="black"/>
<path d="M1336 892C1319.6 894.8 1273.07 910 1259.07 917.2C1249.2 922.133 1246.93 928.8 1252 938.533C1258.67 951.867 1266.8 952.667 1288.4 942C1301.6 935.6 1305.07 934.4 1317.73 932.667C1333.2 930.533 1347.87 924.667 1351.47 919.333C1354.13 915.2 1355.33 902.133 1353.33 897.467C1352 894 1345.87 890.267 1342.8 890.8C1342.4 890.933 1339.33 891.467 1336 892Z" fill="black"/>
<path d="M656.667 926.533C633.2 930.4 618 939.733 603.067 959.6C594.133 971.466 584.667 989.066 583.333 996.133C582 1002.93 585.333 1009.73 592 1014.13C600.933 1020 612.133 1017.87 617.067 1009.33C618.267 1007.07 621.467 1001.6 624 997.066C630.667 985.333 646 970.533 657.067 965.066C664.533 961.333 667.733 960.533 677.2 960.133C689.067 959.733 693.067 960.533 709.6 966.8C724.8 972.533 733.867 971.866 741.733 964.266C747.467 958.8 746.267 952 738 942.933C735.467 940 730.4 936.4 726.933 934.933C713.067 928.933 672 924.133 656.667 926.533Z" fill="black"/>
<path d="M1362.67 966.666C1360.8 967.2 1345.6 971.333 1328.67 975.866C1311.87 980.4 1296.13 985.333 1293.87 986.8C1289.2 989.6 1284.8 998.666 1286 1002.67C1286.4 1004 1288.67 1005.73 1290.93 1006.53C1298.27 1009.07 1306.27 1008.27 1318.53 1003.47C1331.33 998.533 1344.4 995.333 1347.47 996.533C1350.67 997.733 1378.93 994.666 1382.8 992.533C1389.6 989.066 1389.6 976.666 1382.8 969.466C1379.47 965.866 1378 965.333 1372.4 965.466C1368.93 965.466 1364.53 966 1362.67 966.666Z" fill="black"/>
<path d="M967.467 978.133C931.067 985.333 898.4 1007.33 883.467 1034.67C876 1048.4 877.6 1064.67 887.467 1073.2C896.4 1081.07 907.867 1085.2 935.867 1090.67C943.6 1092.13 952.667 1094.27 956.267 1095.47C963.467 1097.87 969.333 1103.87 969.333 1108.93C969.333 1110.8 970.933 1122 972.8 1133.87C975.6 1151.33 976.133 1158.53 975.6 1172C975.067 1187.07 974.533 1190 970.267 1201.73C962.267 1223.87 953.867 1234.13 937.467 1241.73C929.867 1245.33 926.933 1246 915.333 1246.4C891.467 1247.33 873.067 1239.87 852.4 1221.07C836.133 1206.13 830.533 1204.13 823.067 1211.07C815.733 1217.6 813.867 1236 819.333 1246.53C825.6 1258.8 846.267 1271.47 870 1277.6C880.533 1280.27 885.2 1280.67 907.333 1280.67C929.733 1280.67 933.867 1280.27 943.067 1277.6C964.267 1271.47 974.8 1263.73 982.267 1248.8C992.667 1228 1004.67 1215.2 1016.53 1212.13C1021.73 1210.93 1023.73 1211.07 1032.53 1214C1042.13 1217.07 1044.4 1217.33 1071.07 1217.33C1105.2 1217.2 1123.33 1215.73 1131.6 1212C1134.93 1210.53 1142.27 1205.2 1147.73 1200.27C1153.2 1195.33 1162.27 1187.47 1167.87 1182.93C1180.53 1172.27 1183.33 1168.93 1185.87 1161.33C1188.67 1152.67 1192.4 1119.73 1191.33 1112.67C1189.73 1101.07 1181.73 1096 1165.47 1096C1149.33 1096 1144 1101.2 1144 1116.93C1144 1136.27 1139.07 1156.13 1132.4 1163.87C1122.93 1174.93 1099.33 1182.4 1078.53 1180.8C1056.13 1179.07 1038.8 1172.27 1027.33 1160.8C1019.07 1152.67 1016.67 1146.27 1014.67 1127.87C1011.87 1102.93 1016.27 1084.4 1031.07 1057.6C1041.87 1038.13 1047.2 1027.47 1049.2 1020.93C1051.6 1014 1051.33 1002.53 1048.93 997.999C1044.13 988.799 1031.87 981.466 1015.07 977.999C1003.87 975.599 979.733 975.599 967.467 978.133Z" fill="black"/>
<path d="M1310.67 1076C1303.6 1077.73 1299.6 1083.2 1300.4 1089.73C1301.2 1095.87 1304.67 1101.07 1309.73 1104C1312.53 1105.6 1314.8 1105.6 1324.93 1104.27C1339.47 1102.13 1345.73 1103.33 1359.73 1110.67C1372 1117.2 1377.2 1117.47 1385.47 1112.27C1392.67 1107.6 1400 1099.47 1400 1096C1400 1089.6 1387.07 1082.67 1367.6 1078.53C1353.87 1075.6 1318.4 1074 1310.67 1076Z" fill="black"/>
<path d="M646.667 1093.87C607.6 1108 571.733 1136.13 575.2 1150C576.4 1154.93 583.733 1155.73 594.533 1152.27C611.467 1146.8 661.867 1124.13 665.733 1120.27C674.8 1111.07 670.267 1090.67 659.067 1090.67C657.067 1090.67 651.467 1092.13 646.667 1093.87Z" fill="black"/>
<path d="M644 1178.27C613.733 1183.2 585.6 1208.27 590.4 1225.87C592.267 1232.53 596.533 1238 601.333 1240C607.467 1242.53 616.267 1238.67 625.467 1229.2C629.6 1225.07 634.4 1220.93 636 1220C637.867 1219.07 645.6 1218.27 655.2 1218.13C672.8 1217.87 677.333 1216.53 682.533 1209.87C685.867 1205.6 686 1201.6 683.2 1194.93C677.6 1181.33 662.933 1175.07 644 1178.27Z" fill="black"/>
<path d="M662.8 1262.8C656.8 1265.2 651.733 1269.73 636 1286.93C618.267 1306.13 615.733 1310.93 619.2 1319.07C623.067 1328.67 632.667 1332.27 644.667 1328.67C653.333 1326.13 662 1319.87 667.2 1312.13C672.133 1304.8 677.067 1301.87 689.333 1299.2C706.4 1295.47 710.667 1291.87 710.667 1281.2C710.667 1275.87 710.133 1274.4 707.067 1272C701.733 1267.87 696 1265.73 683.733 1263.33C671.6 1261.07 667.333 1260.93 662.8 1262.8Z" fill="black"/>
<path d="M401.733 1110.67C397.066 1112.53 396 1116.13 397.333 1124.4C398.933 1134.13 404.133 1144.93 412.133 1155.07C420.133 1165.07 433.6 1176.8 439.6 1178.8C448.4 1181.6 458.933 1174.67 460.666 1164.8C462.933 1152.93 436.933 1120 419.866 1112.93C413.2 1110.27 405.2 1109.2 401.733 1110.67Z" fill="black"/>
<path d="M312.933 1148.13C310 1149.87 306.667 1157.2 306.667 1161.73C306.667 1164 309.067 1167.07 314.667 1171.87C323.867 1179.87 328 1186.4 332.667 1200C338 1215.6 342.933 1219.33 356.267 1217.87C365.6 1216.8 368 1214.8 368 1208.53C368 1201.33 361.733 1184.27 356.4 1176.93C350.4 1168.8 331.733 1152.4 324.667 1149.2C318.533 1146.4 316.267 1146.13 312.933 1148.13Z" fill="black"/>
<path d="M225.2 1190.8C222.533 1195.87 224.533 1204.67 230.4 1213.6C237.867 1224.93 242 1234.53 245.467 1248C249.2 1262.4 252 1265.87 259.333 1264.93C279.467 1262.27 276.933 1228.27 254.8 1203.87C241.867 1189.47 228.933 1183.87 225.2 1190.8Z" fill="black"/>
</g>
<defs>
<clipPath id="clip0_2478_438">
<rect width="1705.33" height="1706.67" fill="white"/>
</clipPath>
</defs>
</svg>
