<svg width="666" height="374" viewBox="0 0 666 374" fill="none" xmlns="http://www.w3.org/2000/svg">
<path d="M327 70C328.93 70.7188 328.93 70.7188 331 72C331.758 74.0938 331.758 74.0938 332.125 76.5C332.648 80.1721 332.648 80.1721 335 83C337.069 83.6425 337.069 83.6425 339 84C339.66 82.68 340.32 81.36 341 80C341.436 80.4099 341.871 80.8198 342.32 81.2422C345.318 83.9547 347.382 85.8134 351.312 87C352.199 87.33 353.086 87.66 354 88C354.727 89.9789 355.398 91.9795 356 94C358.032 94.9688 358.032 94.9688 360 95C360.33 96.32 360.66 97.64 361 99C361.99 99 362.98 99 364 99C364 99.66 364 100.32 364 101C366.31 101.33 368.62 101.66 371 102C371 103.32 371 104.64 371 106C371.99 104.35 372.98 102.7 374 101C374.66 101.33 375.32 101.66 376 102C376.731 104.314 377.401 106.648 378 109C378.413 108.196 378.825 107.391 379.25 106.562C381 104 381 104 383.188 103.188C383.786 103.126 384.384 103.064 385 103C385 107 385 107 383.25 108.922C382.136 109.827 382.136 109.827 381 110.75C379.886 111.67 379.886 111.67 378.75 112.609C378.173 113.068 377.595 113.527 377 114C378.833 115.125 378.833 115.125 381 116C381.99 115.67 382.98 115.34 384 115C387.188 116.938 387.188 116.938 390 119C390.413 118.546 390.825 118.092 391.25 117.625C393 116 393 116 395.062 115.125C397.712 113.587 398.1 111.849 399 109C399.66 109 400.32 109 401 109C401 110.32 401 111.64 401 113C401.516 112.752 402.031 112.505 402.562 112.25C405.703 111.928 407.732 112.852 410.375 114.516C413.522 117.391 414.534 120.84 415 125C414.655 127.68 414.111 130.148 413.348 132.738C412.917 135.541 413.386 136.7 415 139C417.555 139.812 417.555 139.812 420 140C419.794 138.948 419.587 137.896 419.375 136.812C418.978 132.777 419.382 131.577 421 128C421.333 126.484 421.644 124.962 421.938 123.438C422.523 120.569 422.809 119.234 424.688 116.938C426.519 114.233 425.918 112.129 425.398 109.02C425.201 108.02 425.201 108.02 425 107C424.201 102.926 423.931 100.037 425 96C425.66 96 426.32 96 427 96C429.031 99.3748 429.219 102.037 429.312 105.938C429.635 110.827 429.635 110.827 432.25 114.938C433.158 115.618 434.065 116.299 435 117C435.887 117.928 436.774 118.856 437.688 119.812C439.712 122.229 439.712 122.229 442 122C442.66 121.34 443.32 120.68 444 120C446.625 119.875 446.625 119.875 449 120C449.093 120.928 449.093 120.928 449.188 121.875C449.59 122.927 449.59 122.927 450 124C451.664 124.674 453.331 125.34 455 126C455.557 126.763 456.114 127.526 456.688 128.312C460.072 132.245 464.352 133.843 469 136C475.47 139.31 480.406 143.915 483 150.75C484.255 153.991 484.255 153.991 486.797 156.238C488.93 157.184 488.93 157.184 492 158C493.181 166.337 493.181 166.337 492.25 169.75C492.168 170.493 492.085 171.235 492 172C492.763 172.743 493.526 173.485 494.312 174.25C497.844 177.864 498.288 181.123 499 186C500.98 185.67 502.96 185.34 505 185C505.33 185.99 505.66 186.98 506 188C505.216 188.412 504.432 188.825 503.625 189.25C500.87 191.087 500.001 191.905 499 195C498.832 197.667 498.832 197.667 499 200C499.66 200 500.32 200 501 200C501.688 202.312 501.688 202.312 502 205C500.637 206.772 499.164 207.879 497.371 209.199C495.317 211.897 495.923 213.892 496.312 217.188C496.492 218.818 496.492 218.818 496.676 220.48C496.836 221.728 496.836 221.728 497 223C497.99 223.33 498.98 223.66 500 224C499.67 224.66 499.34 225.32 499 226C498.01 226 497.02 226 496 226C496.231 227.565 496.486 229.127 496.75 230.688C496.959 231.993 496.959 231.993 497.172 233.324C499.81 241.848 509.268 247.075 516.727 251.035C523.218 254.355 523.218 254.355 530 257C530.33 257.99 530.66 258.98 531 260C533.161 261.067 533.161 261.067 535.75 261.875C540.266 263.579 542.846 265.249 546 269C546.553 269.599 547.106 270.199 547.676 270.816C557.86 281.961 557.86 281.961 559 289C558.062 291.25 558.062 291.25 557 293C551.361 293.287 548.799 293.17 544 290C543.091 289.444 542.182 288.889 541.246 288.316C540.319 287.738 539.392 287.159 538.438 286.562C537.508 285.986 536.579 285.41 535.621 284.816C533.086 283.06 531.026 281.322 529 279C529 278.34 529 277.68 529 277C528.464 276.792 527.927 276.585 527.375 276.371C524.065 274.46 521.626 271.795 519 269.062C515.027 264.915 515.027 264.915 510.625 261.246C510.089 260.835 509.552 260.424 509 260C509 259.34 509 258.68 509 258C508.402 257.711 507.804 257.423 507.188 257.125C505 256 505 256 502 254C502 253.34 502 252.68 502 252C501.134 252.103 500.267 252.206 499.375 252.312C494.925 251.9 493.346 249.858 490 247C486.307 245.986 484.642 245.786 481 247C481.046 247.918 481.093 248.836 481.141 249.781C481.56 264.047 481.56 264.047 477 269C474.524 270.771 472.035 272.262 469.34 273.676C466.975 274.87 466.975 274.87 465.379 276.668C464 278 464 278 461 278C460.67 277.34 460.34 276.68 460 276C457.842 276.947 457.842 276.947 456 279C451.612 278.769 449.917 277.112 447 274C446.01 273.67 445.02 273.34 444 273C443.34 275.31 442.68 277.62 442 280C441.34 280 440.68 280 440 280C440.021 278.845 440.041 277.69 440.062 276.5C440.07 272.257 439.6 268.198 439 264C436.36 264 433.72 264 431 264C430.653 279.113 430.653 279.113 433 294C429 294 429 294 427 293C427 292.34 427 291.68 427 291C426.34 291 425.68 291 425 291C425 292.32 425 293.64 425 295C424.34 295 423.68 295 423 295C423.66 286.75 424.32 278.5 425 270C420.545 271.485 420.545 271.485 416 273C416.103 274.052 416.206 275.104 416.312 276.188C416 280 416 280 413.875 282.938C411 285 411 285 407.938 285.625C405 285 405 285 402.625 282.938C400.632 279.334 400.54 277.061 401 273C401.66 272.34 402.32 271.68 403 271C403.463 268.338 403.463 268.338 403.625 265.375C403.737 263.871 403.737 263.871 403.852 262.336C403.901 261.565 403.95 260.794 404 260C399.769 261.688 399.769 261.688 397 265C395.35 265 393.7 265 392 265C390.297 268.343 390.297 268.343 390.5 271.938C391.24 274.99 390.106 277.138 389 280C386.03 280 383.06 280 380 280C380.33 281.32 380.66 282.64 381 284C381.493 288.138 381.736 291.01 379.188 294.438C377 296 377 296 374 297C372.355 300.29 372.982 303.924 373.086 307.531C373.107 308.396 373.128 309.26 373.15 310.151C373.197 311.994 373.246 313.837 373.297 315.679C373.373 318.433 373.441 321.187 373.508 323.941C373.751 333.48 374.091 342.998 374.764 352.518C375.107 357.787 375.107 357.787 374 360C372.35 360 370.7 360 369 360C367.212 356.154 366.755 353.152 366.773 348.925C366.773 347.123 366.773 347.123 366.773 345.286C366.784 343.999 366.794 342.712 366.805 341.387C366.808 340.049 366.811 338.711 366.813 337.373C366.821 333.863 366.84 330.353 366.863 326.843C366.883 323.257 366.892 319.67 366.902 316.084C366.924 309.056 366.958 302.028 367 295C366.381 294.711 365.762 294.423 365.125 294.125C363 293 363 293 361 291C360.856 291.969 360.711 292.939 360.562 293.938C360 297 360 297 359 298C356.562 298.188 356.562 298.188 354 298C352 296 352 296 351.875 293.375C351.916 292.591 351.958 291.807 352 291C351.34 290.67 350.68 290.34 350 290C349.794 290.804 349.587 291.609 349.375 292.438C346.521 299.833 341.879 305.786 335.812 310.812C331.678 312.558 328.277 312.227 324 311C320.245 309.003 318.271 306.653 316.625 302.688C316.419 301.801 316.212 300.914 316 300C314.866 300.165 313.731 300.33 312.562 300.5C307.343 300.491 304.6 297.88 300.988 294.355C297.243 289.919 295.289 285.504 294.625 279.75C295.015 276.888 295.773 274.608 297 272C295.68 271.01 294.36 270.02 293 269C293.109 273.459 293.24 277.917 293.375 282.375C293.421 284.282 293.421 284.282 293.469 286.227C293.507 287.438 293.546 288.65 293.586 289.898C293.617 291.019 293.649 292.14 293.681 293.294C293.734 296.147 293.734 296.147 296 298C295.708 299.343 295.362 300.674 295 302C294.874 305.2 294.752 308.397 294.746 311.6C294.672 313.566 294.672 313.566 294 317C291.453 318.965 291.453 318.965 289 320C289 319.34 289 318.68 289 318C286.36 317.67 283.72 317.34 281 317C281.33 315.35 281.66 313.7 282 312C283.32 311.67 284.64 311.34 286 311C286 311.99 286 312.98 286 314C286.99 314 287.98 314 289 314C288.67 300.14 288.34 286.28 288 272C286.68 272 285.36 272 284 272C284.33 270.68 284.66 269.36 285 268C284.092 268.062 283.185 268.124 282.25 268.188C278.71 267.983 277.551 267.354 275 265C274.67 265.99 274.34 266.98 274 268C273.01 268 272.02 268 271 268C271.023 267.264 271.046 266.528 271.07 265.77C271.088 264.794 271.106 263.818 271.125 262.812C271.148 261.85 271.171 260.887 271.195 259.895C270.991 256.872 270.269 254.732 269 252C268.01 252.33 267.02 252.66 266 253C266 252.34 266 251.68 266 251C265.01 251 264.02 251 263 251C261.715 259.674 261.456 267.477 263.621 276.016C264.105 278.55 263.788 280.558 263 283C259.393 280.596 259.145 279.053 258 275C257.67 277.31 257.34 279.62 257 282C256.01 282.33 255.02 282.66 254 283C254.115 280.145 254.242 277.292 254.375 274.438C254.406 273.638 254.437 272.838 254.469 272.014C254.713 267.036 255.436 262.736 257 258C254.03 258.99 251.06 259.98 248 261C247.895 263.959 247.895 263.959 248.562 266.625C248.779 267.801 248.779 267.801 249 269C248.67 269.33 248.34 269.66 248 270C246.351 269.962 244.704 269.845 243.062 269.688C242.167 269.609 241.271 269.53 240.348 269.449C238 269 238 269 236 267C235.498 265.121 235.498 265.121 235.148 262.867C235.02 262.062 234.891 261.256 234.758 260.426C234.631 259.584 234.505 258.742 234.375 257.875C234.174 256.601 234.174 256.601 233.969 255.301C233.639 253.202 233.318 251.101 233 249C224.872 251.482 224.872 251.482 219 257C219.034 259.362 219.311 261.556 219.738 263.879C220 266 220 266 219 269C215.908 270.546 213.406 270.294 210 270C207.005 267.951 206.167 266.49 205 263.062C205 260 205 260 206.562 257.125C209 255 209 255 212.25 254.688C213.611 254.842 213.611 254.842 215 255C215.33 254.01 215.66 253.02 216 252C216.986 250.986 217.988 249.988 219 249C219.934 247.672 220.83 246.316 221.688 244.938C222.124 244.245 222.561 243.553 223.012 242.84C224.158 241.054 224.158 241.054 224 239C223.374 238.83 222.747 238.66 222.102 238.484C220.876 238.121 220.876 238.121 219.625 237.75C218.407 237.402 218.407 237.402 217.164 237.047C214.484 235.751 214.249 234.619 213 232C211.682 231.303 210.347 230.639 209 230C207.078 228.125 207.078 228.125 205.25 226C204.636 225.299 204.023 224.598 203.391 223.875C202 222 202 222 202 220C198.806 219.061 195.887 218.836 192.562 218.812C191.636 218.798 190.709 218.784 189.754 218.77C186.816 219.015 184.705 219.879 182 221C179.188 220.625 179.188 220.625 177 220C177 217 177 217 179 215C182.625 214.875 182.625 214.875 186 215C186.167 212.083 186.167 212.083 186 209C183.615 206.615 181.824 206.195 178.625 205.188C174.12 203.605 171.354 202.371 169 198C169 197.01 169 196.02 169 195C167.844 195.052 167.844 195.052 166.664 195.105C165.661 195.133 164.658 195.16 163.625 195.188C162.128 195.24 162.128 195.24 160.602 195.293C159.743 195.196 158.885 195.1 158 195C157.34 194.01 156.68 193.02 156 192C158 190 158 190 160.137 189.734C165.463 189.767 170.021 190.029 175 192C177 195 177 195 177 198C177.99 198.33 178.98 198.66 180 199C179.67 196.03 179.34 193.06 179 190C178.34 190 177.68 190 177 190C177 189.01 177 188.02 177 187C176.34 187 175.68 187 175 187C174.67 184.69 174.34 182.38 174 180C172.113 180.309 172.113 180.309 170.188 180.625C166.599 181.213 166.249 181.166 163 179C163.66 177.35 164.32 175.7 165 174C166.65 174.33 168.3 174.66 170 175C170 175.66 170 176.32 170 177C173.486 176.541 173.486 176.541 177 175C178.541 171.486 178.541 171.486 179 168C176.36 167.01 173.72 166.02 171 165C171 163.35 171 161.7 171 160C174.465 159.01 174.465 159.01 178 158C178 157.34 178 156.68 178 156C182.455 155.505 182.455 155.505 187 155C187 154.34 187 153.68 187 153C188.609 151.633 188.609 151.633 190.75 150.125C193.174 148.377 195.253 146.747 197.375 144.625C197.911 144.089 198.447 143.552 199 143C199.66 143 200.32 143 201 143C202.498 139.629 203 137.796 203 134C200.804 131.802 200.804 131.802 197.938 129.75C192.973 125.866 188.979 121.856 185 117C183.817 115.642 182.629 114.288 181.438 112.938C180.868 112.283 180.298 111.628 179.711 110.953C178.561 109.641 177.399 108.339 176.227 107.047C175.677 106.433 175.128 105.82 174.562 105.188C174.069 104.645 173.575 104.102 173.066 103.543C172 102 172 102 172 99C171.34 98.8144 170.68 98.6287 170 98.4375C163.676 95.4071 158.906 89.9062 154 85C152.897 84.1863 151.793 83.3739 150.688 82.5625C148 80 148 80 147.438 76.875C148.033 73.833 148.561 72.8293 151 71C154.88 72.1463 158.004 73.226 161 76C161.33 76.99 161.66 77.98 162 79C162.99 79.33 163.98 79.66 165 80C166 82 167 84 168 86C170.354 88.6041 170.354 88.6041 173 91C173.743 91.7631 174.485 92.5263 175.25 93.3125C177.656 95.6643 180.084 97.9745 182.562 100.25C183.306 100.936 184.05 101.622 184.816 102.328C186.834 104.116 186.834 104.116 189.078 104.461C191.92 105.258 192.645 106.925 194.188 109.375C194.697 110.166 195.206 110.958 195.73 111.773C197 114 197 114 198 117C199.654 118.349 201.322 119.681 203 121C204.812 123.25 204.812 123.25 206 125C208.475 124.505 208.475 124.505 211 124C210.752 123.113 210.505 122.226 210.25 121.312C210 118 210 118 211.938 115.125C212.618 114.424 213.299 113.722 214 113C217.521 113.587 219.713 114.356 223 116C223 120.62 223 125.24 223 130C228.479 131.082 228.479 131.082 232 131C233.32 131 234.64 131 236 131C235.34 130.34 234.68 129.68 234 129C231.717 125.29 230.98 121.198 230 117C231.98 117 233.96 117 236 117C236.25 114.584 236.25 114.584 236 112C234.515 111.01 234.515 111.01 233 110C233 109.01 233 108.02 233 107C234.98 106.67 236.96 106.34 239 106C238.649 105.113 238.299 104.226 237.938 103.312C236.982 99.938 237.028 98.3031 238 95C239.65 94.67 241.3 94.34 243 94C243.33 92.35 243.66 90.7 244 89C244.66 89 245.32 89 246 89C246.495 87.515 246.495 87.515 247 86C247.66 85.34 248.32 84.68 249 84C249.167 81.4165 249.167 81.4165 249 79C251.763 79.5227 254.326 80.1087 257 81C257.99 81 258.98 81 260 81C260 80.01 260 79.02 260 78C260.66 78 261.32 78 262 78C262 77.01 262 76.02 262 75C265 76 265 76 266 78C269.086 77.5694 271.751 77.1068 274.625 75.875C277 75 277 75 279.062 75C281 76 281 76 282.688 78.9375C285.598 82.7925 287.576 83.0174 292.172 83.7734C292.775 83.8482 293.378 83.923 294 84C294 85.32 294 86.64 294 88C294.66 88.33 295.32 88.66 296 89C296.33 86.03 296.66 83.06 297 80C298.32 79.67 299.64 79.34 301 79C301.688 80.625 301.688 80.625 302 83C301.484 83.99 300.969 84.98 300.438 86C298.64 88.8527 298.64 88.8527 299.812 91.375C300.4 92.1794 300.4 92.1794 301 93C301.99 92.67 302.98 92.34 304 92C304.371 91.1544 304.742 90.3088 305.125 89.4375C306.053 88.2309 306.053 88.2309 307 87C309.325 86.7874 311.527 86.9431 313.855 87.0898C316.234 87.2167 316.234 87.2167 318.25 85C318.827 84.34 319.405 83.68 320 83C322.75 82.75 322.75 82.75 325 83C325 83.66 325 84.32 325 85C326.65 84.67 328.3 84.34 330 84C329.567 82.1128 329.567 82.1128 329.125 80.1875C328.963 79.4798 328.8 78.7721 328.633 78.043C328.02 75.7226 328.02 75.7226 326 73C326.33 72.01 326.66 71.02 327 70ZM238 128C239 130 239 130 239 130L238 128ZM392 134C389.754 136.746 389.754 136.746 390.062 139.5C390.839 142.149 390.839 142.149 393.125 143.938C397.006 145.372 399.205 144.414 403 143C403 143.66 403 144.32 403 145C403.66 144.67 404.32 144.34 405 144C404.876 142.072 404.876 142.072 404 140C401.77 138.46 401.77 138.46 399.062 137.312C398.167 136.896 397.271 136.48 396.348 136.051C395.573 135.704 394.798 135.357 394 135C393.34 134.67 392.68 134.34 392 134ZM406 138C406 138.99 406 139.98 406 141C408.97 141.495 408.97 141.495 412 142C411.67 140.02 411.34 138.04 411 136C408.676 135.815 408.676 135.815 406 138ZM426 283C426 285.31 426 287.62 426 290C426.66 290 427.32 290 428 290C427.67 287.69 427.34 285.38 427 283C426.67 283 426.34 283 426 283Z" fill="black"/>
<path d="M149.438 249.312C150.199 249.391 150.961 249.469 151.746 249.55C154.161 250.032 155.905 250.711 158 252C159.041 253.641 160.045 255.307 161 257C161.66 257.33 162.32 257.66 163 258C165.318 264.831 165.62 270.903 162.938 277.687C157.591 284.069 151.456 287.466 143.125 288.281C139.188 287.927 137.621 286.653 134.625 284.125C133.751 283.405 132.877 282.686 131.977 281.945C130.998 280.982 130.998 280.982 130 280C130 279.34 130 278.68 130 278C129.34 278 128.68 278 128 278C126.989 273.07 126.436 268.02 127 263C127.66 262.01 128.32 261.02 129 260C129.385 258.344 129.728 256.677 130 255C130.66 255 131.32 255 132 255C132.33 254.01 132.66 253.02 133 252C134.961 251.304 134.961 251.304 137.375 250.875C147.17 249.056 147.17 249.056 149.438 249.312Z" fill="black"/>
<path d="M407.688 49.3126C408.832 49.6529 408.832 49.6529 410 50.0001C410.185 60.5582 410.185 60.5582 409 65.0001C411.475 65.9901 411.475 65.9901 414 67.0001C413.67 68.6501 413.34 70.3001 413 72.0001C412.278 71.5464 411.556 71.0926 410.812 70.6251C408.08 68.9494 408.08 68.9494 405.25 67.9376C403 67.0001 403 67.0001 402 65.0001C401.852 62.8578 401.779 60.7099 401.75 58.5626C401.711 56.8321 401.711 56.8321 401.672 55.0665C402 52.0001 402 52.0001 403.348 50.0704C405 49.0001 405 49.0001 407.688 49.3126Z" fill="#010101"/>
<path d="M229 36C230.237 35.9794 231.475 35.9588 232.75 35.9375C233.446 35.9259 234.142 35.9143 234.859 35.9023C237.033 36.0015 238.913 36.4031 241 37C242.553 44.1391 241.504 48.6379 238 55C236.68 54.67 235.36 54.34 234 54C233.961 52.7354 233.961 52.7354 233.922 51.4453C233.837 49.8018 233.837 49.8018 233.75 48.125C233.704 47.0345 233.657 45.9439 233.609 44.8203C233.312 41.8668 233.312 41.8668 230.953 40.6172C229.986 40.3117 229.986 40.3117 229 40C229 38.68 229 37.36 229 36Z" fill="#010101"/>
<path d="M276 55C276.99 55 277.98 55 279 55C278.814 55.9488 278.629 56.8975 278.437 57.875C277.713 60.8987 277.713 60.8987 279 63C279.463 69.2479 279.463 69.2479 277.5 72.4375C277.005 72.9531 276.51 73.4688 276 74C273.012 73.6769 271.387 73.3481 269.125 71.3125C267.575 68.1266 268.001 66.3523 269 63C270.917 60.4726 271.915 60.0283 275 59C275.733 56.9849 275.733 56.9849 276 55Z" fill="#010101"/>
<path d="M204 91C204.99 91 205.98 91 207 91C208.382 93.7645 208.095 96.0461 208.062 99.125C208.053 100.221 208.044 101.316 208.035 102.445C208.024 103.288 208.012 104.131 208 105C201.375 106.25 201.375 106.25 198 104C198.33 102.35 198.66 100.7 199 99C200.32 98.67 201.64 98.34 203 98C202.979 97.0306 202.959 96.0612 202.938 95.0625C203 92 203 92 204 91Z" fill="#020202"/>
<path d="M438 307C438.66 307.33 439.32 307.66 440 308C440.218 313.99 439.847 319.856 439.25 325.812C439.188 326.554 439.127 327.295 439.063 328.058C438.672 331.638 438.244 333.705 435.922 336.512C435.288 337.003 434.653 337.494 434 338C433.34 337.01 432.68 336.02 432 335C432.574 332.262 433.225 329.675 434 327C434.186 326.072 434.371 325.144 434.562 324.188C435 322 435 322 436 319C436.302 316.136 436.508 313.271 436.719 310.398C437 308 437 308 438 307Z" fill="#020202"/>
<path d="M122 117C122.66 117 123.32 117 124 117C124.75 118.75 124.75 118.75 125 121C122.278 124.702 119.411 125.982 115 127C112.307 127.146 109.701 127.093 107 127C108 125 108 125 110 122C110.66 122 111.32 122 112 122C112.33 121.34 112.66 120.68 113 120C115.066 119.367 115.066 119.367 117.562 118.875C118.389 118.707 119.215 118.54 120.066 118.367C120.704 118.246 121.343 118.125 122 118C122 117.67 122 117.34 122 117Z" fill="#010101"/>
<path d="M185.625 309.625C188 310 188 310 190 312C190.25 314.5 190.25 314.5 190 317C188 319 188 319 184.375 319.125C183.261 319.084 182.148 319.042 181 319C180.34 317.35 179.68 315.7 179 314C182.289 310.102 182.289 310.102 185.625 309.625Z" fill="#020202"/>
<path d="M198 230C196.63 233.161 196.011 233.993 193 236C192.01 236 191.02 236 190 236C189.67 236.99 189.34 237.98 189 239C188.34 239 187.68 239 187 239C186.67 239.99 186.34 240.98 186 242C185.34 242 184.68 242 184 242C183.67 242.66 183.34 243.32 183 244C182.01 243.67 181.02 243.34 180 243C179.312 240.938 179.312 240.938 179 239C183 238 183 238 187 237C187 236.01 187 235.02 187 234C190.453 230.794 193.375 230 198 230Z" fill="#010101"/>
<path d="M224 73C227.375 72.875 227.375 72.875 231 73C233.139 75.1385 233.427 76.1328 234 79C234.66 78.67 235.32 78.34 236 78C236.66 79.65 237.32 81.3 238 83C236.68 83 235.36 83 234 83C234 82.34 234 81.68 234 81C231.69 81 229.38 81 227 81C226.67 80.01 226.34 79.02 226 78C225.34 78 224.68 78 224 78C224 76.35 224 74.7 224 73Z" fill="#010101"/>
<path d="M268 305C268.66 305 269.32 305 270 305C270.082 307.376 270.141 309.749 270.188 312.125C270.213 312.79 270.238 313.455 270.264 314.141C270.333 318.869 269.403 321.951 267 326C266.34 326 265.68 326 265 326C264.627 318.526 265.96 312.179 268 305Z" fill="#020202"/>
<path d="M293 69.0002C294 70.0002 294 70.0002 294.125 73.0002C294 76.0002 294 76.0002 293 77.0002C290.063 77.2502 290.063 77.2502 287 77.0002C285 74.0002 285 74.0002 285.25 71.3752C285.498 70.5915 285.745 69.8077 286 69.0002C288.684 67.6584 290.153 68.2702 293 69.0002Z" fill="#010101"/>
<path d="M328 20C328.312 22.25 328.312 22.25 328 25C325.5 27.3125 325.5 27.3125 323 29C321.68 28.34 320.36 27.68 319 27C319 25.35 319 23.7 319 22C324.625 18.875 324.625 18.875 328 20Z" fill="#010101"/>
<path d="M317 330C315.812 332.5 315.812 332.5 314 335C311.312 335.313 311.312 335.313 309 335C308.67 335.99 308.34 336.98 308 338C307.01 338 306.02 338 305 338C304.375 336.125 304.375 336.125 304 334C308.506 329.494 310.639 328.41 317 330Z" fill="#010101"/>
<path d="M432.188 354.375C432.786 354.581 433.384 354.788 434 355C434 356.98 434 358.96 434 361C432.02 361.99 432.02 361.99 430 363C428.68 362.01 427.36 361.02 426 360C426.312 358.125 426.312 358.125 427 356C430 354 430 354 432.188 354.375Z" fill="#020202"/>
<path d="M260 73.0004C260 73.9904 260 74.9804 260 76.0004C251.571 78.429 251.571 78.429 247 77.0004C247 75.6804 247 74.3604 247 73.0004C255.429 71.7147 255.429 71.7147 260 73.0004Z" fill="#020202"/>
<path d="M423 307C423.66 307 424.32 307 425 307C425 313.6 425 320.2 425 327C424.01 327.33 423.02 327.66 422 328C422.33 323.38 422.66 318.76 423 314C422.34 313.67 421.68 313.34 421 313C421.66 311.02 422.32 309.04 423 307Z" fill="#040404"/>
<path d="M414 99C414.99 99.66 415.98 100.32 417 101C416.688 103.375 416.688 103.375 416 106C413 108 413 108 409 108C409 107.34 409 106.68 409 106C408.01 106 407.02 106 406 106C406 105.01 406 104.02 406 103C407.32 103.33 408.64 103.66 410 104C411.32 102.35 412.64 100.7 414 99Z" fill="#010101"/>
<path d="M254 294C254.66 294 255.32 294 256 294C256.058 297.458 256.094 300.916 256.125 304.375C256.142 305.36 256.159 306.345 256.176 307.359C256.182 308.3 256.189 309.241 256.196 310.211C256.206 311.08 256.217 311.95 256.227 312.845C256 315 256 315 254 317C253.061 311.703 253.012 306.913 253.438 301.562C253.49 300.831 253.542 300.099 253.596 299.346C253.724 297.563 253.861 295.782 254 294Z" fill="#030303"/>
<path d="M226 289C226.99 289 227.98 289 229 289C229.125 295.75 229.125 295.75 228 298C226.02 298 224.04 298 222 298C222.524 294.224 223.327 291.776 226 289Z" fill="#020202"/>
<path d="M367 73C367.99 73 368.98 73 370 73C371.607 76.2145 371.057 79.4361 371 83C369.68 83.33 368.36 83.66 367 84C365.739 81.4795 366.081 80.1458 366.437 77.375C366.539 76.5577 366.641 75.7405 366.746 74.8984C366.83 74.272 366.913 73.6455 367 73Z" fill="#010101"/>
<path d="M206 244C205.688 245.875 205.688 245.875 205 248C201.772 250.152 200.716 250.2 197 250C197 247 197 247 198.125 245.312C200.765 243.464 202.858 243.79 206 244Z" fill="#020202"/>
<path d="M387 44C387.99 44.33 388.98 44.66 390 45C390.25 50.625 390.25 50.625 388 54C387.01 54 386.02 54 385 54C384.805 47.9453 384.805 47.9453 385 46C385.66 45.34 386.32 44.68 387 44Z" fill="#020202"/>
<path d="M303 310C304.875 310.25 304.875 310.25 307 311C308.25 313.062 308.25 313.062 309 315C308.01 316.485 308.01 316.485 307 318C305.68 317.67 304.36 317.34 303 317C301.875 312.25 301.875 312.25 303 310Z" fill="#010101"/>
<path d="M408 293C408.99 293 409.98 293 411 293C411.054 294.458 411.093 295.916 411.125 297.375C411.148 298.187 411.171 298.999 411.195 299.836C411 302 411 302 409 304C408.01 304 407.02 304 406 304C405.67 302.68 405.34 301.36 405 300C405.99 299.67 406.98 299.34 408 299C408 297.02 408 295.04 408 293Z" fill="#020202"/>
<path d="M494 293C496.97 293.495 496.97 293.495 500 294C500.625 296.375 500.625 296.375 501 299C500.34 299.66 499.68 300.32 499 301C496.5 299.812 496.5 299.812 494 298C493.688 295.312 493.688 295.312 494 293Z" fill="#020202"/>
<path d="M240 280C240.66 280 241.32 280 242 280C242 283.3 242 286.6 242 290C240.02 290.99 240.02 290.99 238 292C237.007 289.32 236.933 288.194 237.875 285.438C238.246 284.633 238.617 283.829 239 283C239.33 282.01 239.66 281.02 240 280Z" fill="#010101"/>
<path d="M123 163C125.31 163.66 127.62 164.32 130 165C129.67 166.32 129.34 167.64 129 169C126.69 168.67 124.38 168.34 122 168C122.33 166.35 122.66 164.7 123 163Z" fill="#020202"/>
<path d="M341 65C343.475 65.495 343.475 65.495 346 66C346 67.98 346 69.96 346 72C344.35 72 342.7 72 341 72C341 69.69 341 67.38 341 65Z" fill="#020202"/>
<path d="M151 10C151.99 10 152.98 10 154 10C154 10.66 154 11.32 154 12C155.32 11.67 156.64 11.34 158 11C157.75 12.875 157.75 12.875 157 15C155.062 16.3125 155.062 16.3125 153 17C152.34 16.67 151.68 16.34 151 16C151 14.02 151 12.04 151 10Z" fill="#020202"/>
<path d="M414 336C415.65 336.33 417.3 336.66 419 337C419.33 337.99 419.66 338.98 420 340C419.34 340.66 418.68 341.32 418 342C415.875 341.625 415.875 341.625 414 341C414 339.333 414 337.667 414 336Z" fill="#010101"/>
<path d="M381 336C382.32 336 383.64 336 385 336C385 337.65 385 339.3 385 341C383.68 341.33 382.36 341.66 381 342C380.618 340.344 380.286 338.675 380 337C380.33 336.67 380.66 336.34 381 336Z" fill="#010101"/>
<path d="M452 323C452.99 323 453.98 323 455 323C455 324.98 455 326.96 455 329C453.35 329 451.7 329 450 329C450.875 324.125 450.875 324.125 452 323Z" fill="#010101"/>
<path d="M163 163C165.31 163.33 167.62 163.66 170 164C169.67 164.99 169.34 165.98 169 167C167.02 167 165.04 167 163 167C163 165.68 163 164.36 163 163Z" fill="black"/>
<path d="M269 275C269.99 275.99 270.98 276.98 272 278C271.34 279.32 270.68 280.64 270 282C269.34 282 268.68 282 268 282C267.375 279.625 267.375 279.625 267 277C267.66 276.34 268.32 275.68 269 275Z" fill="#010101"/>
<path d="M376 63C377.32 63.66 378.64 64.32 380 65C379.67 66.32 379.34 67.64 379 69C377.68 68.67 376.36 68.34 375 68C375.33 66.35 375.66 64.7 376 63Z" fill="#020202"/>
<path d="M291 55C292.98 55.495 292.98 55.495 295 56C294.67 57.65 294.34 59.3 294 61C292.68 60.67 291.36 60.34 290 60C290.33 58.35 290.66 56.7 291 55Z" fill="#020202"/>
<path d="M349 302C350.65 302 352.3 302 354 302C354.33 302.99 354.66 303.98 355 305C352.69 305.33 350.38 305.66 348 306C348.33 304.68 348.66 303.36 349 302Z" fill="#010101"/>
<path d="M359 78C359.66 78.33 360.32 78.66 361 79C359.731 82.914 358.488 84.7907 355 87C355.531 83.179 356.497 80.9383 359 78Z" fill="black"/>
<path d="M266 335C266.66 335 267.32 335 268 335C268 336.98 268 338.96 268 341C266.35 340.67 264.7 340.34 263 340C264.875 336.125 264.875 336.125 266 335Z" fill="#020202"/>
<path d="M207 50C207.33 50.66 207.66 51.32 208 52C210.017 53.1335 210.017 53.1335 212 54C211.67 54.66 211.34 55.32 211 56C209.68 56 208.36 56 207 56C207 55.34 207 54.68 207 54C206.34 53.67 205.68 53.34 205 53C205.66 52.01 206.32 51.02 207 50Z" fill="#010101"/>
<path d="M269 296C269.99 296.33 270.98 296.66 272 297C271.34 299.31 270.68 301.62 270 304C269.34 303.67 268.68 303.34 268 303C268.33 300.69 268.66 298.38 269 296Z" fill="#020202"/>
<path d="M417 128C417.99 128.33 418.98 128.66 420 129C419.67 130.32 419.34 131.64 419 133C417.68 132.67 416.36 132.34 415 132C415 131.01 415 130.02 415 129C415.66 128.67 416.32 128.34 417 128Z" fill="#010101"/>
<path d="M182 36C181.67 37.32 181.34 38.64 181 40C179.68 40 178.36 40 177 40C177 39.01 177 38.02 177 37C179 36 179 36 182 36Z" fill="#020202"/>
<path d="M228 107C229.32 107.66 230.64 108.32 232 109C231.67 109.99 231.34 110.98 231 112C229.68 111.34 228.36 110.68 227 110C227.33 109.01 227.66 108.02 228 107Z" fill="#010101"/>
<path d="M348 48C348.99 48 349.98 48 351 48C350.67 49.32 350.34 50.64 350 52C348.68 52 347.36 52 346 52C346.66 50.68 347.32 49.36 348 48Z" fill="#010101"/>
<path d="M394 287C394.66 287.33 395.32 287.66 396 288C396 289.32 396 290.64 396 292C394.68 291.67 393.36 291.34 392 291C392.66 289.68 393.32 288.36 394 287Z" fill="black"/>
<path d="M185 302C185.99 302.33 186.98 302.66 188 303C187.67 303.99 187.34 304.98 187 306C186.01 305.67 185.02 305.34 184 305C184.33 304.01 184.66 303.02 185 302Z" fill="#010101"/>
<path d="M273 286C275.475 286.495 275.475 286.495 278 287C277.67 287.66 277.34 288.32 277 289C275.68 288.67 274.36 288.34 273 288C273 287.34 273 286.68 273 286Z" fill="#020202"/>
<path d="M236 61C236.99 61 237.98 61 239 61C239 61.99 239 62.98 239 64C238.01 64 237.02 64 236 64C236 63.01 236 62.02 236 61Z" fill="#020202"/>
<path d="M385 288C385.99 288.33 386.98 288.66 388 289C388 289.66 388 290.32 388 291C387.01 291 386.02 291 385 291C385 290.01 385 289.02 385 288Z" fill="#010101"/>
<path d="M215 246C215.66 246 216.32 246 217 246C217.33 247.32 217.66 248.64 218 250C217.01 249.67 216.02 249.34 215 249C215 248.01 215 247.02 215 246Z" fill="#020202"/>
<path d="M315 29C315.99 29.33 316.98 29.66 318 30C317.34 30 316.68 30 316 30C315.67 30.66 315.34 31.32 315 32C315 31.01 315 30.02 315 29Z" fill="black"/>
<path d="M146 17C146.66 17 147.32 17 148 17C147.67 17.99 147.34 18.98 147 20C146.67 19.01 146.34 18.02 146 17Z" fill="#010101"/>
<path d="M232 130C234 131 234 131 234 131L232 130Z" fill="black"/>
<path d="M409 102C411 103 411 103 411 103L409 102Z" fill="black"/>
</svg>
