<svg width="1792" height="436" viewBox="0 0 1792 436" fill="none" xmlns="http://www.w3.org/2000/svg">
<path d="M1678.42 148.053V91.2598H1791.61V148.053H1735.01V204.847H1621.83V148.053H1678.42ZM1791.61 261.64L1735.01 247.442V204.847H1791.61V261.64ZM1735.01 247.442L1791.61 261.64H1735.01V318.434H1621.83V247.442H1735.01Z" fill="url(#paint0_radial_3946_37)"/>
<path d="M1531.56 218.023H1609.87V292.536C1609.87 299.503 1607.3 305.561 1602.17 310.71C1597.04 315.859 1590.86 318.434 1583.62 318.434H1478.6C1471.36 318.434 1465.17 315.859 1460.04 310.71C1454.91 305.561 1452.35 299.503 1452.35 292.536V260.732C1452.35 253.462 1449.78 247.253 1444.65 242.104C1439.52 236.652 1433.33 233.925 1426.09 233.925H1398.93C1391.99 233.925 1385.96 231.502 1380.83 226.656C1375.7 221.507 1373.13 215.297 1373.13 208.028V0.390625H1451.44V117.158H1517.08C1519.19 117.158 1521 117.915 1522.51 119.43C1524.02 120.944 1524.77 122.762 1524.77 124.882V193.943C1524.77 196.063 1524.02 197.88 1522.51 199.395C1521 200.909 1519.19 201.667 1517.08 201.667H1451.44V225.747C1451.44 227.867 1452.19 229.685 1453.7 231.199C1455.21 232.714 1457.02 233.471 1459.14 233.471H1523.87C1525.98 233.471 1527.79 232.714 1529.3 231.199C1530.81 229.685 1531.56 227.867 1531.56 225.747V218.023Z" fill="url(#paint1_radial_3946_37)"/>
<path d="M1334.92 117.564C1342.16 117.564 1348.35 120.14 1353.48 125.29C1358.61 130.441 1361.17 136.5 1361.17 143.468V292.53C1361.17 299.498 1358.61 305.558 1353.48 310.708C1348.35 315.859 1342.16 318.434 1334.92 318.434H1150.24C1143.3 318.434 1137.26 315.859 1132.13 310.708C1127 305.558 1124.44 299.498 1124.44 292.53V143.468C1124.44 136.5 1127 130.441 1132.13 125.29C1137.26 120.14 1143.3 117.564 1150.24 117.564H1334.92ZM1282.87 226.179V209.819C1282.87 207.698 1282.11 205.88 1280.6 204.366C1279.09 202.851 1277.28 202.093 1275.17 202.093H1205.91C1203.8 202.093 1201.99 202.851 1200.48 204.366C1198.97 205.88 1198.22 207.698 1198.22 209.819V226.179C1198.22 228.3 1198.97 230.118 1200.48 231.633C1201.99 233.148 1203.8 233.905 1205.91 233.905H1275.17C1277.28 233.905 1279.09 233.148 1280.6 231.633C1282.11 230.118 1282.87 228.3 1282.87 226.179Z" fill="url(#paint2_radial_3946_37)"/>
<path d="M1034.17 117.564H1112.48V325.201C1112.48 332.471 1109.91 338.68 1104.78 343.83C1099.65 348.979 1093.47 351.554 1086.23 351.554H1059.52C1052.28 351.554 1045.94 354.128 1040.51 359.277C1035.38 364.427 1032.81 370.636 1032.81 377.906V409.71C1032.81 416.98 1030.25 423.038 1025.12 427.884C1020.29 433.033 1014.25 435.608 1007.01 435.608H875.74V350.645H1026.47C1028.59 350.645 1030.4 349.888 1031.91 348.373C1033.42 346.859 1034.17 345.041 1034.17 342.921V318.841H981.209C973.967 318.841 967.78 316.266 962.65 311.117C957.52 305.967 954.955 299.909 954.955 292.943V270.225C954.955 263.864 953.446 257.958 950.428 252.506C947.411 247.054 943.186 242.813 937.754 239.784C932.624 236.452 926.89 234.635 920.553 234.332H901.542C894.601 234.332 888.565 231.909 883.435 227.062C878.305 221.913 875.74 215.704 875.74 208.434V117.564H955.408V226.154C955.408 228.274 956.011 230.091 957.218 231.606C958.727 233.12 960.538 233.877 962.65 233.877H1026.47C1028.59 233.877 1030.4 233.12 1031.91 231.606C1033.42 230.091 1034.17 228.274 1034.17 226.154V117.564Z" fill="url(#paint3_radial_3946_37)"/>
<path d="M842.311 117.564C847.14 117.564 851.515 118.776 855.438 121.2C859.361 123.321 862.53 126.502 864.944 130.744C867.358 134.682 868.565 138.924 868.565 143.468V318.434H657.628C650.687 318.434 644.651 315.859 639.521 310.708C634.391 305.558 631.826 299.498 631.826 292.53V227.997C631.826 220.726 634.391 214.667 639.521 209.819C644.651 204.669 650.687 202.093 657.628 202.093H685.24C692.482 202.093 698.668 199.518 703.798 194.368C708.929 189.217 711.494 183.006 711.494 175.735V143.468C711.494 136.5 713.908 130.441 718.736 125.29C723.866 120.14 730.053 117.564 737.295 117.564H842.311ZM790.256 233.905V202.093H713.304C711.192 202.093 709.381 202.851 707.872 204.366C706.364 205.88 705.609 207.698 705.609 209.819V226.179C705.609 228.3 706.364 230.118 707.872 231.633C709.381 233.148 711.192 233.905 713.304 233.905H790.256Z" fill="url(#paint4_radial_3946_37)"/>
<path d="M504.856 233.471H624.653V318.434H513.544C510.496 318.434 507.905 317.374 505.771 315.254C503.637 313.133 502.57 310.559 502.57 307.53V260.278C502.57 253.008 499.979 246.799 494.797 241.649C489.615 236.5 483.519 233.925 476.508 233.925H442.672C435.661 233.925 429.564 231.502 424.382 226.656C419.2 221.507 416.609 215.297 416.609 208.028V0.390625H497.083V225.747C497.083 226.959 497.388 228.17 497.998 229.382C498.607 230.594 499.522 231.654 500.741 232.562C501.961 233.168 503.332 233.471 504.856 233.471Z" fill="url(#paint5_radial_3946_37)"/>
<path fill-rule="evenodd" clip-rule="evenodd" d="M0.00473438 108.13V28.8995C0.00473438 21.0357 3.59932 14.1548 10.7885 8.25701C17.4984 2.75236 25.6462 0 35.2318 0H208.492C219.994 0 229.82 3.34214 237.967 10.0264C246.115 16.7106 250.189 24.5743 250.189 33.6177V63.1069C250.189 71.3638 252.585 79.031 257.378 86.1085C262.171 93.1859 268.881 98.6905 277.508 102.622C285.656 106.947 294.762 109.307 304.827 109.7H335.022C346.045 109.7 355.631 112.845 363.778 119.136C371.926 125.821 376 133.881 376 143.317V301.635C376 301.983 375.998 302.331 375.995 302.679V394.319C375.995 402.396 372.401 409.463 365.211 415.52C358.502 421.173 350.354 424 340.768 424H167.508C156.006 424 146.18 420.568 138.033 413.703C129.885 406.838 125.811 398.762 125.811 389.474V359.188C125.811 350.707 123.415 342.833 118.622 335.564C113.829 328.296 107.119 322.642 98.4921 318.604C90.3443 314.162 81.238 311.739 71.1731 311.335H40.9785C29.955 311.335 20.3694 308.105 12.2216 301.644C4.07388 294.779 0 286.501 0 276.809V109.029C0 108.729 0.00158058 108.429 0.00473438 108.13ZM249.47 306.268V120.316C249.47 117.564 248.511 115.204 246.594 113.239C244.198 111.273 241.322 110.29 237.967 110.29H136.6C133.245 110.29 130.369 111.273 127.973 113.239C127.605 113.54 127.265 113.852 126.953 114.172L126.53 300.432C126.53 303.259 127.489 305.682 129.406 307.701C131.802 309.72 134.678 310.73 138.033 310.73H239.4C242.755 310.73 245.631 309.72 248.027 307.701C248.57 307.244 249.05 306.767 249.47 306.268Z" fill="url(#paint6_radial_3946_37)"/>
<defs>
<radialGradient id="paint0_radial_3946_37" cx="0" cy="0" r="1" gradientUnits="userSpaceOnUse" gradientTransform="translate(1706.72 204.847) rotate(123.071) scale(313.314 141.305)">
<stop stop-color="#1C6EFE"/>
<stop offset="1" stop-color="#2891FD"/>
</radialGradient>
<radialGradient id="paint1_radial_3946_37" cx="0" cy="0" r="1" gradientUnits="userSpaceOnUse" gradientTransform="translate(1491.5 159.412) rotate(122.966) scale(438.115 197.267)">
<stop stop-color="#1C6EFE"/>
<stop offset="1" stop-color="#2891FD"/>
</radialGradient>
<radialGradient id="paint2_radial_3946_37" cx="0" cy="0" r="1" gradientUnits="userSpaceOnUse" gradientTransform="translate(1242.81 217.999) rotate(135.76) scale(332.757 164.037)">
<stop stop-color="#1C6EFE"/>
<stop offset="1" stop-color="#2891FD"/>
</radialGradient>
<radialGradient id="paint3_radial_3946_37" cx="0" cy="0" r="1" gradientUnits="userSpaceOnUse" gradientTransform="translate(994.11 276.586) rotate(122.966) scale(438.115 197.267)">
<stop stop-color="#1C6EFE"/>
<stop offset="1" stop-color="#2891FD"/>
</radialGradient>
<radialGradient id="paint4_radial_3946_37" cx="0" cy="0" r="1" gradientUnits="userSpaceOnUse" gradientTransform="translate(750.196 217.999) rotate(135.76) scale(332.757 164.037)">
<stop stop-color="#1C6EFE"/>
<stop offset="1" stop-color="#2891FD"/>
</radialGradient>
<radialGradient id="paint5_radial_3946_37" cx="0" cy="0" r="1" gradientUnits="userSpaceOnUse" gradientTransform="translate(520.631 159.412) rotate(119.681) scale(423.087 179.513)">
<stop stop-color="#1C6EFE"/>
<stop offset="1" stop-color="#2891FD"/>
</radialGradient>
<radialGradient id="paint6_radial_3946_37" cx="0" cy="0" r="1" gradientUnits="userSpaceOnUse" gradientTransform="translate(188 212) rotate(90) scale(212 188)">
<stop offset="0.445416" stop-color="#2994FD"/>
<stop offset="1" stop-color="#1761FF"/>
</radialGradient>
</defs>
</svg>
