<svg width="233" height="175" viewBox="0 0 233 175" fill="none" xmlns="http://www.w3.org/2000/svg">
<rect x="70" y="54" width="43" height="15" rx="1" fill="#3C4148"/>
<rect x="122" y="132" width="42" height="13" rx="1" fill="#3C4148"/>
<rect x="175" y="80" width="42" height="16" rx="1" fill="#3C4148"/>
<rect x="17" y="30" width="44" height="13" rx="1" fill="#E2E2E2" fill-opacity="0.9"/>
<rect x="70" y="30" width="43" height="15" rx="2" fill="#E2E2E2"/>
<rect x="70" y="80" width="43" height="15" rx="2" fill="#E2E2E2"/>
<rect x="70" y="105" width="43" height="16" rx="2" fill="#E2E2E2"/>
<rect x="70" y="131" width="43" height="15" rx="2" fill="#718095"/>
<rect x="122" y="30" width="42" height="15" rx="2" fill="#E2E2E2"/>
<rect x="122" y="80" width="42" height="15" rx="2" fill="#E2E2E2"/>
<rect x="17" y="80" width="42" height="15" rx="2" fill="#E2E2E2"/>
<rect x="17" y="132" width="42" height="15" rx="2" fill="#E2E2E2"/>
<rect x="175" y="30" width="42" height="15" rx="2" fill="#718095"/>
<rect x="175" y="54" width="42" height="16" rx="2" fill="#E2E2E2"/>
<rect x="175" y="105" width="42" height="16" rx="2" fill="#E2E2E2"/>
<rect x="175" y="131" width="42" height="15" rx="2" fill="#E2E2E2"/>
<rect x="17" y="54" width="44" height="15" rx="1" fill="#718095"/>
<rect x="122" y="105" width="44" height="16" rx="1" fill="#718095"/>
<rect x="17" y="106" width="44" height="15" rx="1" fill="#718095"/>
<rect x="122" y="54" width="44" height="15" rx="1" fill="#718095"/>
</svg>
