<svg width="256" height="193" viewBox="0 0 256 193" fill="none" xmlns="http://www.w3.org/2000/svg">
<path opacity="0.4" d="M249.5 1.00003H6.5C3.46243 1.00003 1 3.46246 1 6.50003V186.5C1 189.538 3.46243 192 6.5 192H249.5C252.538 192 255 189.538 255 186.5V6.50003C255 3.46246 252.538 1.00003 249.5 1.00003Z" stroke="#718095"/>
<path d="M73 42V99V99C73 101.209 74.7909 103 77 103H80.5H174H179C181.209 103 183 104.791 183 107V111V160.5V160.5C183 163.538 180.538 166 177.5 166H175.5L80 165.5H78.5C75.7386 165.5 73.5 167.739 73.5 170.5V170.5V177.5" stroke="#718095" stroke-opacity="0.45"/>
<rect x="75.5" y="42.5" width="105" height="58" rx="2" fill="#718095" fill-opacity="0.35"/>
<rect x="82" y="47" width="24" height="24" rx="3" fill="white"/>
<rect x="82.5" y="72.5" width="54" height="3" rx="1.5" fill="#4B5563"/>
<rect x="82.5" y="76.5" width="83" height="17" rx="3" fill="#718095"/>
<rect x="75.5" y="105.5" width="105" height="58" rx="2" fill="#718095" fill-opacity="0.35"/>
<rect x="140.5" y="109.5" width="24" height="24" rx="3" fill="white"/>
<rect x="110.5" y="135.5" width="54" height="3" rx="1.5" fill="#4B5563"/>
<rect x="83.5" y="140.5" width="83" height="17" rx="3" fill="#718095"/>
<rect x="97" y="15" width="61" height="6" rx="3" fill="#D1D5DB"/>
<rect x="73" y="24" width="110" height="2" rx="1" fill="#3C4148"/>
<rect x="86" y="27" width="81" height="2" rx="1" fill="#3C4148"/>
</svg>
