<svg width="233" height="175" viewBox="0 0 233 175" fill="none" xmlns="http://www.w3.org/2000/svg">
<g clip-path="url(#clip0_200_24)">
<path d="M114.497 155.997C142.385 155.997 164.993 133.389 164.993 105.5C164.993 77.6119 142.385 55.0038 114.497 55.0038C86.6081 55.0038 64 77.6119 64 105.5C64 133.389 86.6081 155.997 114.497 155.997Z" fill="#D1D5DB"/>
<path d="M89.9563 147.873C89.9468 147.892 89.9342 147.905 89.9247 147.924C90.0006 147.943 90.0733 147.968 90.1491 147.984L89.9563 147.873ZM86.7797 76.7021L86.6786 76.4967C87.5225 76.3703 87.5794 75.776 88.221 75.5579C88.9512 75.3177 88.7015 75.5801 89.419 75.5579C90.0006 75.5327 90.3546 75.9562 91.0183 75.6464C90.8571 75.9309 90.5948 76.1269 90.3325 76.3197C89.7856 76.7085 89.2262 77.1067 88.5751 77.2584C87.9239 77.407 87.159 77.249 86.7797 76.7021Z" fill="#777777"/>
<path d="M96.8816 121.712C96.869 122.157 96.6066 122.546 96.3791 122.922C95.3645 124.578 94.7481 126.497 94.6122 128.441C94.4763 130.303 94.5585 132.597 92.937 133.514C92.0109 134.029 90.7086 133.938 90.0923 134.807C89.8995 135.069 89.8078 135.401 89.7161 135.711C89.3179 137.162 88.9165 138.612 88.5182 140.063C88.0003 140.017 87.4829 139.964 86.9663 139.905C87.5731 140.098 87.9935 140.92 87.63 141.482C87.0484 141.176 86.2835 141.539 85.9611 142.124C85.6545 142.706 85.6988 143.414 85.8695 144.055C86.3973 145.952 88.0188 147.481 89.9279 147.937C89.596 148.566 88.5814 148.291 87.9619 147.87C83.54 144.88 80.2022 140.325 78.6787 135.208C78.1414 133.403 77.7968 131.485 76.7443 129.933C75.8656 128.621 74.5381 127.66 73.6594 126.349C72.4267 124.465 72.1959 122.021 70.7673 120.299C69.9676 119.316 68.7317 118.108 69.4397 117.056C69.7242 116.623 70.3311 116.212 70.0909 115.754C70.0118 115.605 69.8506 115.513 69.7242 115.387C69.2438 114.872 69.5756 114.063 69.8159 113.399C70.2141 112.245 70.2141 111.012 70.0434 109.78C68.8423 108.705 67.8941 107.371 67.2999 105.873C66.9459 104.959 66.4749 103.818 65.4951 103.806C65.2422 103.098 64.9799 102.39 64.727 101.682C64.6353 101.935 64.3856 102.093 64.1107 102.127C64.8692 90.5558 69.5346 80.0557 76.7949 71.9199C76.9561 71.8503 77.1141 71.7587 77.2753 71.667C78.9979 70.6619 80.3697 69.1542 82.0354 68.0574C82.3768 67.8298 82.7656 67.6117 83.1891 67.656C83.6 67.6907 83.9888 68.1111 83.8403 68.4999C83.7834 68.6611 83.6474 68.7875 83.5084 68.8887C81.5521 70.5533 79.4196 71.999 77.1489 73.2C76.8771 73.3359 76.5894 73.4971 76.4661 73.7721C76.2354 74.2399 76.6242 74.8215 77.1173 74.9921C77.6072 75.1628 78.1572 75.0617 78.6597 74.9479C78.2362 75.5516 78.1098 76.3639 78.3279 77.0719C78.7956 77.1162 78.9442 76.4777 79.0833 76.032C79.6522 74.262 82.4748 73.5413 82.2915 71.6765C83.0564 72.0747 83.8339 71.1834 84.3017 70.4533C84.7695 69.7105 85.8094 68.9803 86.3815 69.6315C86.4131 69.9949 86.4574 70.3616 86.4921 70.7282C87.4973 70.4754 88.515 70.213 89.5202 69.9602C88.9481 70.3616 88.7553 71.2182 89.084 71.8345C89.4159 72.4509 90.2377 72.7606 90.8888 72.5078C90.8793 73.0451 90.3989 73.456 89.9627 73.7752C88.8564 74.6097 87.668 75.4663 86.3784 75.8772L86.6755 76.4935C86.6439 76.5062 86.6091 76.5188 86.5743 76.5188C85.7525 76.5978 84.8833 76.0067 84.0046 76.1205C83.4673 76.1901 82.8067 76.1901 82.4969 76.7369C82.4527 76.8064 82.2599 77.7641 82.3958 77.6851C82.8762 77.4101 83.3535 77.1351 83.8244 76.8633C83.9698 77.2521 84.0046 77.6851 83.9256 78.1087C84.5072 78.0518 85.114 78.175 85.6293 78.4848C85.0919 79.7301 83.7107 80.5646 82.3515 80.4603C82.3389 80.0494 82.3168 79.6385 82.3041 79.2276C81.1852 79.1359 80.2717 80.0968 79.7123 81.0577C79.1433 82.028 78.7103 83.1375 77.7716 83.7538C77.2026 84.1426 76.5041 84.2912 75.8877 84.6104C75.284 84.9423 74.7246 85.5713 74.851 86.2445C74.9079 86.5638 75.1133 86.8609 75.1039 87.1928C75.0691 87.8091 74.3516 88.0967 73.8711 88.495C73.0493 89.1809 72.8439 90.4389 71.9652 91.0426C71.3267 91.4883 70.4796 91.4788 69.7368 91.7063C68.9941 91.9339 68.2513 92.6767 68.5516 93.3974C68.1849 93.5238 67.7392 93.2488 67.7045 92.86C66.3927 95.4424 65.5267 98.2523 65.1727 101.132C65.8238 101.587 66.4844 100.547 66.6108 99.76C66.7467 98.973 67.4326 97.9426 68.0711 98.4104C67.9226 99.5419 67.774 100.661 67.6286 101.792C67.5938 102.01 67.5717 102.238 67.676 102.431C67.8024 102.671 68.0743 102.772 68.2829 102.943C68.8645 103.445 68.7855 104.337 68.8202 105.102C68.855 106.037 69.1647 106.951 69.6547 107.75C69.6073 107.589 69.5756 107.431 69.5409 107.27C70.4322 107.384 71.3583 107.096 72.0316 106.502C72.3856 106.183 72.6827 105.772 73.1284 105.611C73.5867 105.44 74.0892 105.563 74.557 105.69C76.0078 106.088 77.5503 106.534 78.5207 107.675C79.0106 108.256 79.3203 108.989 79.9051 109.467C81.2294 110.586 83.4704 110.093 84.681 111.338C85.6514 112.343 85.4712 113.965 85.2089 115.346C84.5451 114.982 83.6569 115.896 84.0457 116.547C84.3997 116.158 84.8106 115.747 85.3258 115.747C85.8505 115.735 86.3088 116.455 85.92 116.787C86.8335 115.621 89.0713 116.101 89.4254 117.552C90.7055 117.644 91.9951 117.732 93.2752 117.837C93.0286 119.714 96.9607 119.825 96.8816 121.712ZM89.0966 68.8665C88.6036 69.1099 87.924 68.8349 87.7407 68.3166C87.5542 67.7982 87.905 67.1566 88.4423 67.0333C88.7806 66.9543 89.2515 66.9922 89.3558 66.6603C89.3874 66.5592 89.3685 66.4485 89.3685 66.3442C89.3558 65.7184 89.9153 65.2 90.519 65.042C91.1227 64.8871 91.7612 65.0072 92.3744 65.1273C92.5929 65.5835 92.6551 66.0989 92.5514 66.5939C92.131 66.6129 91.7106 66.6287 91.2902 66.6477C91.3281 67.3462 91.2586 68.2249 90.6106 68.4841C90.0291 68.7148 89.2705 68.285 88.7869 68.6769M95.6426 61.8907C96.79 61.3407 97.7603 60.4747 98.8919 59.8931C100.839 58.8943 103.112 58.8058 105.299 58.7362L120.233 58.2716C119.08 58.9038 117.926 59.5391 116.769 60.1712C115.827 60.6896 114.756 61.2206 113.722 60.9267C113.7 61.7579 114.456 62.5292 115.29 62.5229C113.245 63.7872 110.407 62.4944 108.248 63.5564C107.344 64.0021 106.614 64.8429 105.618 65.0009C105.043 65.0926 104.445 64.9377 103.873 65.0641C102.916 65.2727 102.312 66.1799 101.604 66.8563C100.788 67.637 99.5904 68.1712 98.5252 67.7982C97.4601 67.4252 96.9038 65.8417 97.7572 65.1021C98.1776 64.7386 98.7781 64.6785 99.2743 64.4225C99.7706 64.1696 100.163 63.4901 99.7896 63.076C99.6284 62.8958 99.3628 62.8263 99.2143 62.6335C99.0531 62.4249 99.0689 62.1278 98.9361 61.9002C98.4304 61.012 97.0239 62.2068 96.0662 61.8496M110.761 66.0914C111.434 65.9365 112.019 65.5382 112.648 65.2474C113.277 64.9567 114.026 64.786 114.642 65.0926C114.825 65.5509 114.298 65.9681 113.833 66.1325C112.938 66.4462 111.978 66.5299 111.042 66.3758M151.462 71.1139C151.271 71.1366 151.077 71.1249 150.89 71.0791C150.033 70.8958 149.382 70.2352 148.649 69.7547C146.958 68.6358 144.651 68.4904 142.824 69.4039C143.257 68.7749 143.475 67.9973 143.427 67.2324L143.165 67.3241C140.172 65.5888 136.663 63.7872 133.398 64.9535C132.643 65.2285 131.96 65.6394 131.195 65.9017C130.383 66.1862 129.482 66.3032 128.787 66.8057C128.079 67.3083 127.702 68.4177 128.309 69.0214C128.824 69.5366 129.646 69.3976 130.367 69.4671C131.075 69.5366 131.887 70.2415 131.499 70.8484C128.369 72.3118 125.231 73.7879 122.102 75.264C123.54 75.7318 124.491 77.3627 124.181 78.8483C123.129 79.0316 122.114 78.3931 121.052 78.3236C119.51 78.2446 118.037 79.6037 118.005 81.1462C117.961 82.6886 119.377 84.1142 120.919 84.092C122.073 84.0794 123.205 83.384 124.324 83.678C124.368 82.6254 125.088 81.7341 125.828 80.9818C127.266 79.5405 129.321 78.2383 131.242 78.9463C131.871 79.1739 132.409 79.5974 132.934 80.0178C134.087 80.9312 135.241 81.8542 136.398 82.7803C136.764 82.4042 137.128 82.0249 137.495 81.6614C138.124 82.3251 138.753 82.9858 139.391 83.659C139.71 83.4409 140.042 83.2355 140.361 83.0174C140.589 83.6116 140.829 84.1932 141.06 84.7874C141.152 84.1363 141.231 83.4978 141.31 82.8562C142.065 82.8783 142.865 82.9004 143.547 82.559C144.233 82.2272 144.736 81.4054 144.448 80.6973C144.3 80.3212 143.946 80.0241 143.876 79.6227C143.728 78.823 144.869 78.2762 145.611 78.6397C146.342 78.9937 146.708 79.8281 147.018 80.593C147.189 79.8155 147.347 79.0506 147.521 78.273C148.238 80.153 149.26 81.9021 150.545 83.4504C148.203 83.0047 145.735 83.2607 143.544 84.1616C144.243 85.1446 145.441 85.7261 146.642 85.6787C147.179 85.6661 147.773 85.5428 148.184 85.8842C148.494 86.1465 148.573 86.5701 148.63 86.9589C148.813 88.0556 148.997 89.1398 149.167 90.2239C147.931 89.2093 146.152 89.3231 144.54 89.2915C142.928 89.2473 141.044 88.8016 140.45 87.3065C139.811 88.0272 139.527 89.0544 139.71 90.0153C138.041 89.6171 136.123 88.9786 135.642 87.3318C134.34 87.8123 132.719 86.981 132.365 85.644C132.238 85.1762 132.203 84.6041 131.792 84.3544C131.543 84.2058 131.22 84.2279 130.923 84.2627C128.445 84.5503 125.977 84.8253 123.511 85.113C122.165 85.2742 120.771 85.4354 119.582 86.096C118.394 86.7471 117.449 88.0272 117.585 89.3769C115.312 90.7265 113.384 92.6799 112.082 94.9778C111.671 95.6858 111.317 96.4981 111.478 97.2978C111.592 97.9141 112.003 98.4388 112.129 99.0457C112.347 100.086 111.753 101.091 111.503 102.118C110.795 105.042 113.014 107.795 115.072 110.007C116.042 111.035 117.164 112.153 118.58 112.21C119.459 112.245 120.294 111.856 121.115 111.534C123.467 110.608 126.027 110.184 128.55 110.285C127.977 110.731 128.572 111.701 129.283 111.85C129.991 111.999 130.756 111.768 131.442 112.008C133.006 112.567 132.791 114.862 132.083 116.36C132.437 116.291 132.804 116.221 133.167 116.155C132.976 116.654 132.782 117.153 132.586 117.65C134.732 117.922 135.544 120.744 135.045 122.856C134.555 124.97 133.3 126.911 133.265 129.083C133.256 130.271 133.619 131.425 133.986 132.553C134.903 135.42 135.816 138.287 136.733 141.163C139.293 141.47 140.763 138.214 143.14 137.196C144.031 136.808 145.08 136.729 145.779 136.065C146.452 135.426 146.234 133.928 145.368 133.928C146.544 133.802 147.549 132.727 147.584 131.539C147.596 131.207 147.549 130.875 147.593 130.546C147.672 130.078 147.969 129.667 148.254 129.266C150.068 126.661 151.244 123.678 152.42 120.732C152.726 119.942 153.036 119.167 153.343 118.377C154.506 115.441 155.66 112.517 156.823 109.581C157.278 108.427 157.736 107.286 158.191 106.129C157.562 107.169 155.919 107.033 154.98 106.255C154.032 105.481 153.539 104.302 152.796 103.332C152.167 102.497 151.32 101.758 151.023 100.74C150.852 100.158 150.884 99.5293 150.782 98.9224C150.552 97.6075 149.686 96.5139 149.091 95.3254C148.497 94.137 148.187 92.5977 149.022 91.5546C151.424 95.7458 153.608 100.06 155.584 104.482C155.802 103.796 156.304 103.202 156.943 102.87C157.411 102.617 157.935 102.516 158.428 102.311C159.731 101.739 160.631 100.357 160.631 98.9414C160.619 97.5253 159.718 96.1441 158.403 95.5846C157.752 95.3096 157.009 95.2211 156.393 94.8418C155.776 94.4784 155.331 93.6439 155.72 93.037C156.083 92.4649 156.965 92.4776 157.569 92.7968C158.176 93.1287 158.621 93.6882 159.19 94.0643C159.601 94.3393 160.081 94.5194 160.527 94.7723C162.939 96.1536 163.533 99.2954 164.039 102.036C164.314 103.509 164.623 104.972 164.99 106.41C165.003 106.101 165 105.781 165 105.475C164.987 92.1931 159.851 80.1221 151.462 71.1139ZM156.086 87.708C155.754 87.6858 155.448 87.4677 155.182 87.2623C154.749 86.9209 154.313 86.5195 154.187 85.9822C154.038 85.3437 154.345 84.6104 154.003 84.0415C153.842 83.7665 153.558 83.5958 153.317 83.403C152.688 82.9004 152.23 82.1798 152.059 81.4054C151.911 80.7195 152.126 79.806 152.824 79.6922C153.156 79.6353 153.52 79.8186 153.668 80.1252L153.2 80.3781C153.987 80.4698 154.354 81.6582 153.75 82.1703C153.671 82.2493 153.567 82.3188 153.567 82.4326C153.567 82.5022 153.611 82.5685 153.671 82.6159C154.161 83.1533 154.895 83.3461 155.533 83.6874C156.172 84.0193 156.801 84.6357 156.699 85.3437C156.494 85.4227 156.301 85.4923 156.096 85.5713C155.878 85.7894 156.051 86.1781 156.279 86.3931C156.507 86.608 156.804 86.8261 156.816 87.1453C156.816 87.4899 156.428 87.7301 156.086 87.708ZM156.415 122.85L155.59 123.434C155.878 124.446 155.302 125.631 154.326 126.026C153.81 126.235 153.125 126.326 152.951 126.854C152.805 127.303 153.153 127.758 153.2 128.226C153.276 129.004 152.549 129.585 152.025 130.164C151.5 130.742 151.222 131.829 151.92 132.177C152.082 132.259 152.268 132.275 152.448 132.291C153.207 132.357 154.038 132.379 154.658 131.937C156.434 130.669 154.746 127.23 156.5 125.928C156.75 125.745 157.063 125.612 157.199 125.334C157.613 124.515 156.086 123.703 156.415 122.85Z" fill="#718095" fill-opacity="0.8"/>
</g>
<path d="M169.955 37H57.0455C56.4681 37 56 37.4477 56 38C56 38.5523 56.4681 39 57.0455 39H169.955C170.532 39 171 38.5523 171 38C171 37.4477 170.532 37 169.955 37Z" fill="#3C4148"/>
<path d="M168 40H60C59.4477 40 59 40.4477 59 41C59 41.5523 59.4477 42 60 42H168C168.552 42 169 41.5523 169 41C169 40.4477 168.552 40 168 40Z" fill="#3C4148"/>
<path d="M162.082 43H62.9182C62.4111 43 62 43.4477 62 44C62 44.5523 62.4111 45 62.9182 45H162.082C162.589 45 163 44.5523 163 44C163 43.4477 162.589 43 162.082 43Z" fill="#3C4148"/>
<path d="M154.951 46H72.0494C71.4698 46 71 46.4477 71 47C71 47.5523 71.4698 48 72.0494 48H154.951C155.53 48 156 47.5523 156 47C156 46.4477 155.53 46 154.951 46Z" fill="#3C4148"/>
<path d="M168.737 30H58.5906C56 30 56 30 56 32.5C56 35 56 35 58.5906 35H168.737C171 35 171 35 171 32.5C171 30 171 30 168.737 30Z" fill="#D1D5DB"/>
<defs>
<clipPath id="clip0_200_24">
<rect width="101" height="101" fill="white" transform="translate(64 55)"/>
</clipPath>
</defs>
</svg>
