<svg width="537" height="403" viewBox="0 0 537 403" fill="none" xmlns="http://www.w3.org/2000/svg">
<rect x="75" y="169" width="387" height="66" rx="4" fill="#718095" fill-opacity="0.35"/>
<rect x="83" y="180" width="68" height="23" rx="2" fill="#007BE5"/>
<path d="M92.0028 193.286V189.455H93.2812V196H92.0284V194.866H91.9602C91.8097 195.216 91.5682 195.507 91.2358 195.74C90.9063 195.97 90.4957 196.085 90.0043 196.085C89.5838 196.085 89.2116 195.993 88.8878 195.808C88.5668 195.621 88.3139 195.344 88.1293 194.977C87.9474 194.611 87.8565 194.158 87.8565 193.618V189.455H89.1307V193.464C89.1307 193.911 89.2543 194.266 89.5014 194.53C89.7486 194.794 90.0696 194.926 90.4645 194.926C90.7031 194.926 90.9403 194.866 91.1761 194.747C91.4148 194.628 91.6122 194.447 91.7685 194.206C91.9276 193.964 92.0057 193.658 92.0028 193.286ZM94.2733 196V189.455H95.5474V196H94.2733ZM94.9167 188.445C94.6951 188.445 94.5048 188.371 94.3457 188.223C94.1894 188.072 94.1113 187.893 94.1113 187.686C94.1113 187.476 94.1894 187.297 94.3457 187.149C94.5048 186.999 94.6951 186.923 94.9167 186.923C95.1383 186.923 95.3272 186.999 95.4835 187.149C95.6426 187.297 95.7221 187.476 95.7221 187.686C95.7221 187.893 95.6426 188.072 95.4835 188.223C95.3272 188.371 95.1383 188.445 94.9167 188.445ZM100.398 191.76V192.864H96.5287V191.76H100.398ZM102.65 187.273V196H101.376V187.273H102.65ZM105.549 196.145C105.135 196.145 104.76 196.068 104.424 195.915C104.089 195.759 103.823 195.533 103.627 195.237C103.434 194.942 103.338 194.58 103.338 194.151C103.338 193.781 103.409 193.477 103.551 193.239C103.693 193 103.885 192.811 104.126 192.672C104.368 192.533 104.637 192.428 104.936 192.357C105.234 192.286 105.538 192.232 105.848 192.195C106.24 192.149 106.558 192.112 106.802 192.084C107.046 192.053 107.224 192.003 107.335 191.935C107.446 191.866 107.501 191.756 107.501 191.602V191.572C107.501 191.2 107.396 190.912 107.186 190.707C106.978 190.503 106.669 190.401 106.257 190.401C105.828 190.401 105.49 190.496 105.243 190.686C104.998 190.874 104.829 191.082 104.735 191.312L103.538 191.04C103.68 190.642 103.887 190.321 104.16 190.077C104.436 189.83 104.752 189.651 105.11 189.54C105.468 189.426 105.845 189.369 106.24 189.369C106.501 189.369 106.778 189.401 107.071 189.463C107.366 189.523 107.642 189.634 107.897 189.795C108.156 189.957 108.368 190.189 108.532 190.49C108.697 190.788 108.779 191.176 108.779 191.653V196H107.535V195.105H107.484C107.402 195.27 107.278 195.432 107.113 195.591C106.948 195.75 106.737 195.882 106.478 195.987C106.22 196.092 105.91 196.145 105.549 196.145ZM105.826 195.122C106.179 195.122 106.48 195.053 106.73 194.913C106.983 194.774 107.174 194.592 107.305 194.368C107.439 194.141 107.505 193.898 107.505 193.639V192.795C107.46 192.841 107.372 192.884 107.241 192.923C107.113 192.96 106.967 192.993 106.802 193.021C106.637 193.047 106.477 193.071 106.321 193.094C106.164 193.114 106.034 193.131 105.929 193.145C105.681 193.176 105.456 193.229 105.251 193.303C105.049 193.376 104.887 193.483 104.765 193.622C104.646 193.759 104.586 193.94 104.586 194.168C104.586 194.483 104.703 194.722 104.936 194.884C105.169 195.043 105.466 195.122 105.826 195.122ZM110.328 198.455C110.137 198.455 109.964 198.439 109.808 198.408C109.651 198.379 109.535 198.348 109.458 198.314L109.765 197.27C109.998 197.332 110.205 197.359 110.387 197.351C110.569 197.342 110.73 197.274 110.869 197.146C111.011 197.018 111.136 196.81 111.244 196.52L111.401 196.085L109.007 189.455H110.37L112.028 194.534H112.096L113.754 189.455H115.122L112.424 196.874C112.299 197.214 112.14 197.503 111.947 197.739C111.754 197.977 111.524 198.156 111.257 198.276C110.989 198.395 110.68 198.455 110.328 198.455ZM118.133 196.132C117.52 196.132 116.984 195.991 116.527 195.71C116.07 195.429 115.714 195.036 115.462 194.53C115.209 194.024 115.082 193.433 115.082 192.757C115.082 192.078 115.209 191.484 115.462 190.976C115.714 190.467 116.07 190.072 116.527 189.791C116.984 189.51 117.52 189.369 118.133 189.369C118.747 189.369 119.283 189.51 119.74 189.791C120.197 190.072 120.553 190.467 120.805 190.976C121.058 191.484 121.185 192.078 121.185 192.757C121.185 193.433 121.058 194.024 120.805 194.53C120.553 195.036 120.197 195.429 119.74 195.71C119.283 195.991 118.747 196.132 118.133 196.132ZM118.138 195.062C118.535 195.062 118.865 194.957 119.126 194.747C119.388 194.537 119.581 194.257 119.706 193.908C119.834 193.558 119.898 193.173 119.898 192.753C119.898 192.335 119.834 191.952 119.706 191.602C119.581 191.25 119.388 190.967 119.126 190.754C118.865 190.541 118.535 190.435 118.138 190.435C117.737 190.435 117.405 190.541 117.141 190.754C116.879 190.967 116.685 191.25 116.557 191.602C116.432 191.952 116.369 192.335 116.369 192.753C116.369 193.173 116.432 193.558 116.557 193.908C116.685 194.257 116.879 194.537 117.141 194.747C117.405 194.957 117.737 195.062 118.138 195.062ZM126.033 193.286V189.455H127.312V196H126.059V194.866H125.991C125.84 195.216 125.598 195.507 125.266 195.74C124.937 195.97 124.526 196.085 124.035 196.085C123.614 196.085 123.242 195.993 122.918 195.808C122.597 195.621 122.344 195.344 122.16 194.977C121.978 194.611 121.887 194.158 121.887 193.618V189.455H123.161V193.464C123.161 193.911 123.285 194.266 123.532 194.53C123.779 194.794 124.1 194.926 124.495 194.926C124.733 194.926 124.971 194.866 125.206 194.747C125.445 194.628 125.643 194.447 125.799 194.206C125.958 193.964 126.036 193.658 126.033 193.286ZM131.359 189.455V190.477H127.784V189.455H131.359ZM128.742 187.886H130.017V194.078C130.017 194.325 130.054 194.511 130.127 194.636C130.201 194.759 130.296 194.842 130.413 194.888C130.532 194.93 130.662 194.952 130.801 194.952C130.903 194.952 130.992 194.945 131.069 194.93C131.146 194.916 131.206 194.905 131.248 194.896L131.478 195.949C131.404 195.977 131.299 196.006 131.163 196.034C131.027 196.065 130.856 196.082 130.652 196.085C130.316 196.091 130.004 196.031 129.714 195.906C129.424 195.781 129.19 195.588 129.011 195.327C128.832 195.065 128.742 194.737 128.742 194.342V187.886Z" fill="white"/>
<path d="M135 188C135 186.895 135.895 186 137 186H144C145.105 186 146 186.895 146 188V195C146 196.105 145.105 197 144 197H137C135.895 197 135 196.105 135 195V188Z" fill="black"/>
<path d="M138 189L140.5 191.5M143 194L140.5 191.5M140.5 191.5L143 189L138 194" stroke="white"/>
<rect x="159" y="180" width="50" height="23" rx="2" fill="#007BE5"/>
<path d="M170.912 188.455V189.477H167.337V188.455H170.912ZM168.295 186.886H169.57V193.078C169.57 193.325 169.607 193.511 169.68 193.636C169.754 193.759 169.849 193.842 169.966 193.888C170.085 193.93 170.214 193.952 170.354 193.952C170.456 193.952 170.545 193.945 170.622 193.93C170.699 193.916 170.759 193.905 170.801 193.896L171.031 194.949C170.957 194.977 170.852 195.006 170.716 195.034C170.58 195.065 170.409 195.082 170.205 195.085C169.869 195.091 169.557 195.031 169.267 194.906C168.977 194.781 168.743 194.588 168.564 194.327C168.385 194.065 168.295 193.737 168.295 193.342V186.886ZM173.506 195.145C173.091 195.145 172.716 195.068 172.381 194.915C172.046 194.759 171.78 194.533 171.584 194.237C171.391 193.942 171.295 193.58 171.295 193.151C171.295 192.781 171.366 192.477 171.508 192.239C171.65 192 171.841 191.811 172.083 191.672C172.324 191.533 172.594 191.428 172.893 191.357C173.191 191.286 173.495 191.232 173.805 191.195C174.197 191.149 174.515 191.112 174.759 191.084C175.003 191.053 175.181 191.003 175.292 190.935C175.403 190.866 175.458 190.756 175.458 190.602V190.572C175.458 190.2 175.353 189.912 175.143 189.707C174.935 189.503 174.626 189.401 174.214 189.401C173.785 189.401 173.447 189.496 173.199 189.686C172.955 189.874 172.786 190.082 172.692 190.312L171.495 190.04C171.637 189.642 171.844 189.321 172.117 189.077C172.393 188.83 172.709 188.651 173.067 188.54C173.425 188.426 173.802 188.369 174.197 188.369C174.458 188.369 174.735 188.401 175.028 188.463C175.323 188.523 175.599 188.634 175.854 188.795C176.113 188.957 176.324 189.189 176.489 189.49C176.654 189.788 176.736 190.176 176.736 190.653V195H175.492V194.105H175.441C175.358 194.27 175.235 194.432 175.07 194.591C174.905 194.75 174.694 194.882 174.435 194.987C174.177 195.092 173.867 195.145 173.506 195.145ZM173.783 194.122C174.135 194.122 174.437 194.053 174.687 193.913C174.939 193.774 175.131 193.592 175.262 193.368C175.395 193.141 175.462 192.898 175.462 192.639V191.795C175.417 191.841 175.329 191.884 175.198 191.923C175.07 191.96 174.924 191.993 174.759 192.021C174.594 192.047 174.434 192.071 174.278 192.094C174.121 192.114 173.991 192.131 173.885 192.145C173.638 192.176 173.412 192.229 173.208 192.303C173.006 192.376 172.844 192.483 172.722 192.622C172.603 192.759 172.543 192.94 172.543 193.168C172.543 193.483 172.66 193.722 172.893 193.884C173.126 194.043 173.422 194.122 173.783 194.122ZM180.458 197.591C179.938 197.591 179.49 197.523 179.115 197.386C178.743 197.25 178.439 197.07 178.203 196.845C177.968 196.621 177.792 196.375 177.675 196.108L178.77 195.656C178.847 195.781 178.949 195.913 179.077 196.053C179.208 196.195 179.384 196.315 179.605 196.415C179.83 196.514 180.118 196.564 180.471 196.564C180.953 196.564 181.353 196.446 181.668 196.21C181.983 195.977 182.141 195.605 182.141 195.094V193.807H182.06C181.983 193.946 181.872 194.101 181.728 194.271C181.586 194.442 181.39 194.589 181.14 194.714C180.89 194.839 180.564 194.902 180.164 194.902C179.647 194.902 179.181 194.781 178.766 194.54C178.354 194.295 178.027 193.936 177.786 193.462C177.547 192.984 177.428 192.398 177.428 191.702C177.428 191.006 177.546 190.409 177.782 189.912C178.02 189.415 178.347 189.034 178.762 188.77C179.176 188.503 179.647 188.369 180.172 188.369C180.578 188.369 180.907 188.438 181.157 188.574C181.407 188.707 181.601 188.864 181.74 189.043C181.882 189.222 181.992 189.379 182.069 189.516H182.162V188.455H183.411V195.145C183.411 195.707 183.28 196.169 183.019 196.53C182.757 196.891 182.404 197.158 181.958 197.331C181.515 197.504 181.015 197.591 180.458 197.591ZM180.445 193.845C180.811 193.845 181.121 193.76 181.374 193.589C181.63 193.416 181.823 193.169 181.953 192.848C182.087 192.524 182.154 192.136 182.154 191.685C182.154 191.244 182.088 190.857 181.958 190.521C181.827 190.186 181.635 189.925 181.382 189.737C181.13 189.547 180.817 189.452 180.445 189.452C180.061 189.452 179.742 189.551 179.486 189.75C179.23 189.946 179.037 190.213 178.907 190.551C178.779 190.889 178.715 191.267 178.715 191.685C178.715 192.114 178.78 192.49 178.911 192.814C179.042 193.138 179.235 193.391 179.49 193.572C179.749 193.754 180.067 193.845 180.445 193.845ZM189.304 190.053L188.15 190.257C188.101 190.109 188.025 189.969 187.92 189.835C187.817 189.702 187.678 189.592 187.502 189.507C187.326 189.422 187.106 189.379 186.841 189.379C186.481 189.379 186.179 189.46 185.938 189.622C185.697 189.781 185.576 189.987 185.576 190.24C185.576 190.459 185.657 190.635 185.819 190.768C185.981 190.902 186.242 191.011 186.603 191.097L187.643 191.335C188.245 191.474 188.694 191.689 188.989 191.979C189.285 192.268 189.432 192.645 189.432 193.108C189.432 193.5 189.319 193.849 189.091 194.156C188.867 194.46 188.553 194.699 188.15 194.872C187.749 195.045 187.285 195.132 186.756 195.132C186.023 195.132 185.425 194.976 184.962 194.663C184.499 194.348 184.215 193.901 184.11 193.321L185.341 193.134C185.418 193.455 185.576 193.697 185.814 193.862C186.053 194.024 186.364 194.105 186.748 194.105C187.165 194.105 187.499 194.018 187.749 193.845C187.999 193.669 188.124 193.455 188.124 193.202C188.124 192.997 188.047 192.825 187.894 192.686C187.743 192.547 187.512 192.442 187.199 192.371L186.091 192.128C185.481 191.989 185.029 191.767 184.736 191.463C184.447 191.159 184.302 190.774 184.302 190.308C184.302 189.922 184.41 189.584 184.626 189.294C184.841 189.004 185.14 188.778 185.52 188.616C185.901 188.452 186.337 188.369 186.829 188.369C187.536 188.369 188.093 188.523 188.499 188.83C188.905 189.134 189.174 189.541 189.304 190.053Z" fill="white"/>
<path d="M194 188C194 186.895 194.895 186 196 186H203C204.105 186 205 186.895 205 188V195C205 196.105 204.105 197 203 197H196C194.895 197 194 196.105 194 195V188Z" fill="black"/>
<path d="M197 189L199.5 191.5M202 194L199.5 191.5M199.5 191.5L202 189L197 194" stroke="white"/>
<rect x="217" y="180" width="88" height="23" rx="2" fill="#007BE5"/>
<path d="M222.662 198.455C222.472 198.455 222.298 198.439 222.142 198.408C221.986 198.379 221.869 198.348 221.793 198.314L222.099 197.27C222.332 197.332 222.54 197.359 222.722 197.351C222.903 197.342 223.064 197.274 223.203 197.146C223.345 197.018 223.47 196.81 223.578 196.52L223.736 196.085L221.341 189.455H222.705L224.362 194.534H224.43L226.088 189.455H227.456L224.759 196.874C224.634 197.214 224.474 197.503 224.281 197.739C224.088 197.977 223.858 198.156 223.591 198.276C223.324 198.395 223.014 198.455 222.662 198.455ZM230.468 196.132C229.854 196.132 229.319 195.991 228.861 195.71C228.404 195.429 228.049 195.036 227.796 194.53C227.543 194.024 227.417 193.433 227.417 192.757C227.417 192.078 227.543 191.484 227.796 190.976C228.049 190.467 228.404 190.072 228.861 189.791C229.319 189.51 229.854 189.369 230.468 189.369C231.081 189.369 231.617 189.51 232.074 189.791C232.532 190.072 232.887 190.467 233.14 190.976C233.393 191.484 233.519 192.078 233.519 192.757C233.519 193.433 233.393 194.024 233.14 194.53C232.887 195.036 232.532 195.429 232.074 195.71C231.617 195.991 231.081 196.132 230.468 196.132ZM230.472 195.062C230.87 195.062 231.199 194.957 231.461 194.747C231.722 194.537 231.915 194.257 232.04 193.908C232.168 193.558 232.232 193.173 232.232 192.753C232.232 192.335 232.168 191.952 232.04 191.602C231.915 191.25 231.722 190.967 231.461 190.754C231.199 190.541 230.87 190.435 230.472 190.435C230.072 190.435 229.739 190.541 229.475 190.754C229.214 190.967 229.019 191.25 228.891 191.602C228.766 191.952 228.704 192.335 228.704 192.753C228.704 193.173 228.766 193.558 228.891 193.908C229.019 194.257 229.214 194.537 229.475 194.747C229.739 194.957 230.072 195.062 230.472 195.062ZM238.368 193.286V189.455H239.646V196H238.393V194.866H238.325C238.174 195.216 237.933 195.507 237.6 195.74C237.271 195.97 236.86 196.085 236.369 196.085C235.948 196.085 235.576 195.993 235.252 195.808C234.931 195.621 234.679 195.344 234.494 194.977C234.312 194.611 234.221 194.158 234.221 193.618V189.455H235.495V193.464C235.495 193.911 235.619 194.266 235.866 194.53C236.113 194.794 236.434 194.926 236.829 194.926C237.068 194.926 237.305 194.866 237.541 194.747C237.779 194.628 237.977 194.447 238.133 194.206C238.292 193.964 238.37 193.658 238.368 193.286ZM243.693 189.455V190.477H240.118V189.455H243.693ZM241.077 187.886H242.351V194.078C242.351 194.325 242.388 194.511 242.462 194.636C242.536 194.759 242.631 194.842 242.747 194.888C242.867 194.93 242.996 194.952 243.135 194.952C243.237 194.952 243.327 194.945 243.404 194.93C243.48 194.916 243.54 194.905 243.583 194.896L243.813 195.949C243.739 195.977 243.634 196.006 243.497 196.034C243.361 196.065 243.19 196.082 242.986 196.085C242.651 196.091 242.338 196.031 242.048 195.906C241.759 195.781 241.524 195.588 241.345 195.327C241.166 195.065 241.077 194.737 241.077 194.342V187.886ZM248.529 193.286V189.455H249.807V196H248.555V194.866H248.486C248.336 195.216 248.094 195.507 247.762 195.74C247.432 195.97 247.022 196.085 246.531 196.085C246.11 196.085 245.738 195.993 245.414 195.808C245.093 195.621 244.84 195.344 244.656 194.977C244.474 194.611 244.383 194.158 244.383 193.618V189.455H245.657V193.464C245.657 193.911 245.781 194.266 246.028 194.53C246.275 194.794 246.596 194.926 246.991 194.926C247.229 194.926 247.467 194.866 247.702 194.747C247.941 194.628 248.138 194.447 248.295 194.206C248.454 193.964 248.532 193.658 248.529 193.286ZM250.902 196V187.273H252.176V190.516H252.253C252.326 190.379 252.433 190.222 252.572 190.043C252.711 189.864 252.905 189.707 253.152 189.574C253.399 189.438 253.726 189.369 254.132 189.369C254.66 189.369 255.132 189.503 255.547 189.77C255.961 190.037 256.287 190.422 256.523 190.925C256.761 191.428 256.88 192.033 256.88 192.74C256.88 193.447 256.763 194.054 256.527 194.56C256.291 195.062 255.967 195.45 255.555 195.723C255.143 195.993 254.673 196.128 254.145 196.128C253.747 196.128 253.422 196.061 253.169 195.928C252.919 195.794 252.723 195.638 252.581 195.459C252.439 195.28 252.329 195.121 252.253 194.982H252.146V196H250.902ZM252.15 192.727C252.15 193.187 252.217 193.591 252.351 193.938C252.484 194.284 252.677 194.555 252.93 194.751C253.183 194.945 253.493 195.041 253.859 195.041C254.24 195.041 254.558 194.94 254.814 194.739C255.069 194.534 255.263 194.257 255.393 193.908C255.527 193.558 255.594 193.165 255.594 192.727C255.594 192.295 255.528 191.908 255.398 191.564C255.27 191.22 255.076 190.949 254.818 190.75C254.562 190.551 254.243 190.452 253.859 190.452C253.49 190.452 253.177 190.547 252.922 190.737C252.669 190.928 252.477 191.193 252.346 191.534C252.216 191.875 252.15 192.273 252.15 192.727ZM260.412 196.132C259.767 196.132 259.212 195.994 258.746 195.719C258.283 195.44 257.925 195.05 257.672 194.547C257.422 194.041 257.297 193.449 257.297 192.77C257.297 192.099 257.422 191.509 257.672 190.997C257.925 190.486 258.277 190.087 258.729 189.8C259.184 189.513 259.715 189.369 260.323 189.369C260.692 189.369 261.05 189.43 261.397 189.553C261.743 189.675 262.054 189.866 262.33 190.128C262.605 190.389 262.823 190.729 262.982 191.146C263.141 191.561 263.22 192.065 263.22 192.659V193.111H258.017V192.156H261.972C261.972 191.821 261.904 191.524 261.767 191.266C261.631 191.004 261.439 190.798 261.192 190.648C260.948 190.497 260.661 190.422 260.331 190.422C259.973 190.422 259.661 190.51 259.394 190.686C259.13 190.859 258.925 191.087 258.78 191.368C258.638 191.646 258.567 191.949 258.567 192.276V193.021C258.567 193.459 258.644 193.831 258.797 194.138C258.953 194.445 259.171 194.679 259.449 194.841C259.728 195 260.053 195.08 260.425 195.08C260.667 195.08 260.887 195.045 261.086 194.977C261.284 194.906 261.456 194.801 261.601 194.662C261.746 194.523 261.857 194.351 261.934 194.146L263.14 194.364C263.043 194.719 262.87 195.03 262.62 195.297C262.372 195.561 262.061 195.767 261.686 195.915C261.314 196.06 260.89 196.132 260.412 196.132ZM269.425 189.455V190.477H265.85V189.455H269.425ZM266.809 187.886H268.083V194.078C268.083 194.325 268.12 194.511 268.194 194.636C268.268 194.759 268.363 194.842 268.479 194.888C268.599 194.93 268.728 194.952 268.867 194.952C268.969 194.952 269.059 194.945 269.136 194.93C269.212 194.916 269.272 194.905 269.315 194.896L269.545 195.949C269.471 195.977 269.366 196.006 269.229 196.034C269.093 196.065 268.923 196.082 268.718 196.085C268.383 196.091 268.07 196.031 267.78 195.906C267.491 195.781 267.256 195.588 267.077 195.327C266.898 195.065 266.809 194.737 266.809 194.342V187.886ZM272.02 196.145C271.605 196.145 271.23 196.068 270.895 195.915C270.559 195.759 270.294 195.533 270.098 195.237C269.905 194.942 269.808 194.58 269.808 194.151C269.808 193.781 269.879 193.477 270.021 193.239C270.163 193 270.355 192.811 270.596 192.672C270.838 192.533 271.108 192.428 271.406 192.357C271.704 192.286 272.008 192.232 272.318 192.195C272.71 192.149 273.028 192.112 273.272 192.084C273.517 192.053 273.694 192.003 273.805 191.935C273.916 191.866 273.971 191.756 273.971 191.602V191.572C273.971 191.2 273.866 190.912 273.656 190.707C273.449 190.503 273.139 190.401 272.727 190.401C272.298 190.401 271.96 190.496 271.713 190.686C271.469 190.874 271.299 191.082 271.206 191.312L270.008 191.04C270.15 190.642 270.358 190.321 270.63 190.077C270.906 189.83 271.223 189.651 271.581 189.54C271.939 189.426 272.315 189.369 272.71 189.369C272.971 189.369 273.248 189.401 273.541 189.463C273.836 189.523 274.112 189.634 274.368 189.795C274.626 189.957 274.838 190.189 275.003 190.49C275.167 190.788 275.25 191.176 275.25 191.653V196H274.005V195.105H273.954C273.872 195.27 273.748 195.432 273.584 195.591C273.419 195.75 273.207 195.882 272.949 195.987C272.69 196.092 272.38 196.145 272.02 196.145ZM272.297 195.122C272.649 195.122 272.95 195.053 273.2 194.913C273.453 194.774 273.645 194.592 273.775 194.368C273.909 194.141 273.976 193.898 273.976 193.639V192.795C273.93 192.841 273.842 192.884 273.711 192.923C273.584 192.96 273.437 192.993 273.272 193.021C273.108 193.047 272.947 193.071 272.791 193.094C272.635 193.114 272.504 193.131 272.399 193.145C272.152 193.176 271.926 193.229 271.721 193.303C271.52 193.376 271.358 193.483 271.236 193.622C271.116 193.759 271.057 193.94 271.057 194.168C271.057 194.483 271.173 194.722 271.406 194.884C271.639 195.043 271.936 195.122 272.297 195.122ZM278.971 198.591C278.451 198.591 278.004 198.523 277.629 198.386C277.257 198.25 276.953 198.07 276.717 197.845C276.481 197.621 276.305 197.375 276.188 197.108L277.284 196.656C277.36 196.781 277.463 196.913 277.59 197.053C277.721 197.195 277.897 197.315 278.119 197.415C278.343 197.514 278.632 197.564 278.984 197.564C279.467 197.564 279.866 197.446 280.181 197.21C280.497 196.977 280.654 196.605 280.654 196.094V194.807H280.573C280.497 194.946 280.386 195.101 280.241 195.271C280.099 195.442 279.903 195.589 279.653 195.714C279.403 195.839 279.078 195.902 278.677 195.902C278.16 195.902 277.694 195.781 277.279 195.54C276.867 195.295 276.541 194.936 276.299 194.462C276.061 193.984 275.941 193.398 275.941 192.702C275.941 192.006 276.059 191.409 276.295 190.912C276.534 190.415 276.86 190.034 277.275 189.77C277.69 189.503 278.16 189.369 278.686 189.369C279.092 189.369 279.42 189.438 279.67 189.574C279.92 189.707 280.115 189.864 280.254 190.043C280.396 190.222 280.505 190.379 280.582 190.516H280.676V189.455H281.924V196.145C281.924 196.707 281.794 197.169 281.532 197.53C281.271 197.891 280.917 198.158 280.471 198.331C280.028 198.504 279.528 198.591 278.971 198.591ZM278.958 194.845C279.325 194.845 279.635 194.76 279.887 194.589C280.143 194.416 280.336 194.169 280.467 193.848C280.6 193.524 280.667 193.136 280.667 192.685C280.667 192.244 280.602 191.857 280.471 191.521C280.34 191.186 280.149 190.925 279.896 190.737C279.643 190.547 279.331 190.452 278.958 190.452C278.575 190.452 278.255 190.551 278 190.75C277.744 190.946 277.551 191.213 277.42 191.551C277.292 191.889 277.228 192.267 277.228 192.685C277.228 193.114 277.294 193.49 277.424 193.814C277.555 194.138 277.748 194.391 278.004 194.572C278.262 194.754 278.581 194.845 278.958 194.845ZM287.818 191.053L286.663 191.257C286.615 191.109 286.538 190.969 286.433 190.835C286.331 190.702 286.192 190.592 286.015 190.507C285.839 190.422 285.619 190.379 285.355 190.379C284.994 190.379 284.693 190.46 284.451 190.622C284.21 190.781 284.089 190.987 284.089 191.24C284.089 191.459 284.17 191.635 284.332 191.768C284.494 191.902 284.755 192.011 285.116 192.097L286.156 192.335C286.758 192.474 287.207 192.689 287.503 192.979C287.798 193.268 287.946 193.645 287.946 194.108C287.946 194.5 287.832 194.849 287.605 195.156C287.38 195.46 287.067 195.699 286.663 195.872C286.263 196.045 285.798 196.132 285.27 196.132C284.537 196.132 283.939 195.976 283.476 195.663C283.013 195.348 282.728 194.901 282.623 194.321L283.855 194.134C283.932 194.455 284.089 194.697 284.328 194.862C284.567 195.024 284.878 195.105 285.261 195.105C285.679 195.105 286.013 195.018 286.263 194.845C286.513 194.669 286.638 194.455 286.638 194.202C286.638 193.997 286.561 193.825 286.407 193.686C286.257 193.547 286.025 193.442 285.713 193.371L284.605 193.128C283.994 192.989 283.542 192.767 283.25 192.463C282.96 192.159 282.815 191.774 282.815 191.308C282.815 190.922 282.923 190.584 283.139 190.294C283.355 190.004 283.653 189.778 284.034 189.616C284.415 189.452 284.851 189.369 285.342 189.369C286.049 189.369 286.606 189.523 287.013 189.83C287.419 190.134 287.687 190.541 287.818 191.053Z" fill="white"/>
<path d="M291 189C291 187.895 291.895 187 293 187H300C301.105 187 302 187.895 302 189V196C302 197.105 301.105 198 300 198H293C291.895 198 291 197.105 291 196V189Z" fill="black"/>
<path d="M294 190L296.5 192.5M299 195L296.5 192.5M296.5 192.5L299 190L294 195" stroke="white"/>
<rect x="318" y="180" width="55" height="23" rx="2" fill="#007BE5"/>
<rect x="385" y="180" width="56" height="23" rx="2" fill="#007BE5"/>
<path d="M326.601 198.591C326.081 198.591 325.634 198.523 325.259 198.386C324.886 198.25 324.582 198.07 324.347 197.845C324.111 197.621 323.935 197.375 323.818 197.108L324.913 196.656C324.99 196.781 325.092 196.913 325.22 197.053C325.351 197.195 325.527 197.315 325.749 197.415C325.973 197.514 326.261 197.564 326.614 197.564C327.097 197.564 327.496 197.446 327.811 197.21C328.126 196.977 328.284 196.605 328.284 196.094V194.807H328.203C328.126 194.946 328.016 195.101 327.871 195.271C327.729 195.442 327.533 195.589 327.283 195.714C327.033 195.839 326.707 195.902 326.307 195.902C325.79 195.902 325.324 195.781 324.909 195.54C324.497 195.295 324.17 194.936 323.929 194.462C323.69 193.984 323.571 193.398 323.571 192.702C323.571 192.006 323.689 191.409 323.925 190.912C324.163 190.415 324.49 190.034 324.905 189.77C325.32 189.503 325.79 189.369 326.315 189.369C326.722 189.369 327.05 189.438 327.3 189.574C327.55 189.707 327.744 189.864 327.884 190.043C328.026 190.222 328.135 190.379 328.212 190.516H328.305V189.455H329.554V196.145C329.554 196.707 329.423 197.169 329.162 197.53C328.901 197.891 328.547 198.158 328.101 198.331C327.658 198.504 327.158 198.591 326.601 198.591ZM326.588 194.845C326.955 194.845 327.264 194.76 327.517 194.589C327.773 194.416 327.966 194.169 328.097 193.848C328.23 193.524 328.297 193.136 328.297 192.685C328.297 192.244 328.232 191.857 328.101 191.521C327.97 191.186 327.778 190.925 327.526 190.737C327.273 190.547 326.96 190.452 326.588 190.452C326.205 190.452 325.885 190.551 325.629 190.75C325.374 190.946 325.18 191.213 325.05 191.551C324.922 191.889 324.858 192.267 324.858 192.685C324.858 193.114 324.923 193.49 325.054 193.814C325.185 194.138 325.378 194.391 325.634 194.572C325.892 194.754 326.21 194.845 326.588 194.845ZM330.543 196V189.455H331.817V196H330.543ZM331.186 188.445C330.965 188.445 330.774 188.371 330.615 188.223C330.459 188.072 330.381 187.893 330.381 187.686C330.381 187.476 330.459 187.297 330.615 187.149C330.774 186.999 330.965 186.923 331.186 186.923C331.408 186.923 331.597 186.999 331.753 187.149C331.912 187.297 331.992 187.476 331.992 187.686C331.992 187.893 331.912 188.072 331.753 188.223C331.597 188.371 331.408 188.445 331.186 188.445ZM335.866 189.455V190.477H332.291V189.455H335.866ZM333.25 187.886H334.524V194.078C334.524 194.325 334.561 194.511 334.635 194.636C334.709 194.759 334.804 194.842 334.92 194.888C335.04 194.93 335.169 194.952 335.308 194.952C335.41 194.952 335.5 194.945 335.577 194.93C335.653 194.916 335.713 194.905 335.756 194.896L335.986 195.949C335.912 195.977 335.807 196.006 335.67 196.034C335.534 196.065 335.364 196.082 335.159 196.085C334.824 196.091 334.511 196.031 334.222 195.906C333.932 195.781 333.697 195.588 333.518 195.327C333.339 195.065 333.25 194.737 333.25 194.342V187.886ZM337.971 192.114V196H336.697V187.273H337.954V190.52H338.035C338.188 190.168 338.422 189.888 338.738 189.68C339.053 189.473 339.465 189.369 339.974 189.369C340.422 189.369 340.814 189.462 341.15 189.646C341.488 189.831 341.749 190.107 341.934 190.473C342.121 190.837 342.215 191.291 342.215 191.837V196H340.941V191.99C340.941 191.51 340.817 191.138 340.57 190.874C340.323 190.607 339.979 190.473 339.539 190.473C339.238 190.473 338.968 190.537 338.729 190.665C338.493 190.793 338.307 190.98 338.171 191.227C338.037 191.472 337.971 191.767 337.971 192.114ZM347.342 193.286V189.455H348.62V196H347.367V194.866H347.299C347.148 195.216 346.907 195.507 346.575 195.74C346.245 195.97 345.834 196.085 345.343 196.085C344.923 196.085 344.55 195.993 344.227 195.808C343.906 195.621 343.653 195.344 343.468 194.977C343.286 194.611 343.195 194.158 343.195 193.618V189.455H344.469V193.464C344.469 193.911 344.593 194.266 344.84 194.53C345.087 194.794 345.408 194.926 345.803 194.926C346.042 194.926 346.279 194.866 346.515 194.747C346.754 194.628 346.951 194.447 347.107 194.206C347.266 193.964 347.344 193.658 347.342 193.286ZM349.714 196V187.273H350.988V190.516H351.065C351.139 190.379 351.246 190.222 351.385 190.043C351.524 189.864 351.717 189.707 351.964 189.574C352.211 189.438 352.538 189.369 352.944 189.369C353.473 189.369 353.944 189.503 354.359 189.77C354.774 190.037 355.099 190.422 355.335 190.925C355.574 191.428 355.693 192.033 355.693 192.74C355.693 193.447 355.575 194.054 355.339 194.56C355.103 195.062 354.78 195.45 354.368 195.723C353.956 195.993 353.486 196.128 352.957 196.128C352.559 196.128 352.234 196.061 351.981 195.928C351.731 195.794 351.535 195.638 351.393 195.459C351.251 195.28 351.142 195.121 351.065 194.982H350.959V196H349.714ZM350.963 192.727C350.963 193.187 351.03 193.591 351.163 193.938C351.297 194.284 351.49 194.555 351.743 194.751C351.996 194.945 352.305 195.041 352.672 195.041C353.052 195.041 353.371 194.94 353.626 194.739C353.882 194.534 354.075 194.257 354.206 193.908C354.339 193.558 354.406 193.165 354.406 192.727C354.406 192.295 354.341 191.908 354.21 191.564C354.082 191.22 353.889 190.949 353.63 190.75C353.375 190.551 353.055 190.452 352.672 190.452C352.302 190.452 351.99 190.547 351.734 190.737C351.481 190.928 351.29 191.193 351.159 191.534C351.028 191.875 350.963 192.273 350.963 192.727Z" fill="white"/>
<path d="M393.912 189.455V190.477H390.337V189.455H393.912ZM391.295 187.886H392.57V194.078C392.57 194.325 392.607 194.511 392.68 194.636C392.754 194.759 392.849 194.842 392.966 194.888C393.085 194.93 393.214 194.952 393.354 194.952C393.456 194.952 393.545 194.945 393.622 194.93C393.699 194.916 393.759 194.905 393.801 194.896L394.031 195.949C393.957 195.977 393.852 196.006 393.716 196.034C393.58 196.065 393.409 196.082 393.205 196.085C392.869 196.091 392.557 196.031 392.267 195.906C391.977 195.781 391.743 195.588 391.564 195.327C391.385 195.065 391.295 194.737 391.295 194.342V187.886ZM396.02 196L394.094 189.455H395.411L396.694 194.261H396.758L398.045 189.455H399.361L400.64 194.24H400.704L401.978 189.455H403.295L401.373 196H400.073L398.743 191.274H398.645L397.316 196H396.02ZM403.784 196V189.455H405.058V196H403.784ZM404.427 188.445C404.206 188.445 404.015 188.371 403.856 188.223C403.7 188.072 403.622 187.893 403.622 187.686C403.622 187.476 403.7 187.297 403.856 187.149C404.015 186.999 404.206 186.923 404.427 186.923C404.649 186.923 404.838 186.999 404.994 187.149C405.153 187.297 405.233 187.476 405.233 187.686C405.233 187.893 405.153 188.072 404.994 188.223C404.838 188.371 404.649 188.445 404.427 188.445ZM409.107 189.455V190.477H405.532V189.455H409.107ZM406.491 187.886H407.765V194.078C407.765 194.325 407.802 194.511 407.876 194.636C407.95 194.759 408.045 194.842 408.161 194.888C408.281 194.93 408.41 194.952 408.549 194.952C408.651 194.952 408.741 194.945 408.818 194.93C408.894 194.916 408.954 194.905 408.997 194.896L409.227 195.949C409.153 195.977 409.048 196.006 408.911 196.034C408.775 196.065 408.605 196.082 408.4 196.085C408.065 196.091 407.752 196.031 407.463 195.906C407.173 195.781 406.938 195.588 406.759 195.327C406.58 195.065 406.491 194.737 406.491 194.342V187.886ZM412.852 189.455V190.477H409.277V189.455H412.852ZM410.236 187.886H411.51V194.078C411.51 194.325 411.547 194.511 411.621 194.636C411.695 194.759 411.79 194.842 411.906 194.888C412.026 194.93 412.155 194.952 412.294 194.952C412.396 194.952 412.486 194.945 412.562 194.93C412.639 194.916 412.699 194.905 412.741 194.896L412.972 195.949C412.898 195.977 412.793 196.006 412.656 196.034C412.52 196.065 412.349 196.082 412.145 196.085C411.81 196.091 411.497 196.031 411.207 195.906C410.918 195.781 410.683 195.588 410.504 195.327C410.325 195.065 410.236 194.737 410.236 194.342V187.886ZM416.292 196.132C415.648 196.132 415.092 195.994 414.626 195.719C414.163 195.44 413.805 195.05 413.552 194.547C413.302 194.041 413.177 193.449 413.177 192.77C413.177 192.099 413.302 191.509 413.552 190.997C413.805 190.486 414.157 190.087 414.609 189.8C415.064 189.513 415.595 189.369 416.203 189.369C416.572 189.369 416.93 189.43 417.277 189.553C417.623 189.675 417.934 189.866 418.21 190.128C418.486 190.389 418.703 190.729 418.862 191.146C419.021 191.561 419.101 192.065 419.101 192.659V193.111H413.898V192.156H417.852C417.852 191.821 417.784 191.524 417.648 191.266C417.511 191.004 417.319 190.798 417.072 190.648C416.828 190.497 416.541 190.422 416.211 190.422C415.853 190.422 415.541 190.51 415.274 190.686C415.01 190.859 414.805 191.087 414.66 191.368C414.518 191.646 414.447 191.949 414.447 192.276V193.021C414.447 193.459 414.524 193.831 414.677 194.138C414.834 194.445 415.051 194.679 415.329 194.841C415.608 195 415.933 195.08 416.305 195.08C416.547 195.08 416.767 195.045 416.966 194.977C417.165 194.906 417.336 194.801 417.481 194.662C417.626 194.523 417.737 194.351 417.814 194.146L419.02 194.364C418.923 194.719 418.75 195.03 418.5 195.297C418.253 195.561 417.942 195.767 417.567 195.915C417.194 196.06 416.77 196.132 416.292 196.132ZM419.794 196V189.455H421.026V190.494H421.094C421.213 190.142 421.424 189.865 421.725 189.663C422.029 189.459 422.372 189.357 422.756 189.357C422.836 189.357 422.929 189.359 423.037 189.365C423.148 189.371 423.235 189.378 423.297 189.386V190.605C423.246 190.591 423.155 190.575 423.024 190.558C422.894 190.538 422.763 190.528 422.632 190.528C422.331 190.528 422.063 190.592 421.827 190.72C421.594 190.845 421.409 191.02 421.273 191.244C421.137 191.466 421.068 191.719 421.068 192.003V196H419.794Z" fill="white"/>
<path d="M359 188C359 186.895 359.895 186 361 186H368C369.105 186 370 186.895 370 188V195C370 196.105 369.105 197 368 197H361C359.895 197 359 196.105 359 195V188Z" fill="black"/>
<path d="M362 189L364.5 191.5M367 194L364.5 191.5M364.5 191.5L367 189L362 194" stroke="white"/>
<path d="M427 188C427 186.895 427.895 186 429 186H436C437.105 186 438 186.895 438 188V195C438 196.105 437.105 197 436 197H429C427.895 197 427 196.105 427 195V188Z" fill="black"/>
<path d="M430 189L432.5 191.5M435 194L432.5 191.5M432.5 191.5L435 189L430 194" stroke="white"/>
<path d="M86 209.5V229" stroke="#B8B8B8"/>
</svg>
