<svg width="233" height="175" viewBox="0 0 233 175" fill="none" xmlns="http://www.w3.org/2000/svg">

<mask id="mask0_2561_264" style="mask-type:alpha" maskUnits="userSpaceOnUse" x="9" y="33" width="213" height="109">
<path fill-rule="evenodd" clipRule="evenodd" d="M175.034 33.0264C173.93 33.0264 173.034 33.9218 173.034 35.0264V45.717C173.034 46.8216 172.139 47.717 171.034 47.717H39.155C38.9757 47.717 38.802 47.7406 38.6367 47.7849C38.2872 47.8784 37.9381 47.9998 37.5763 47.9998H11C9.89543 47.9998 9 48.8952 9 49.9998V72.9998C9 74.1043 9.89543 74.9998 11 74.9998H35.155C36.2596 74.9998 37.155 75.8952 37.155 76.9998V108.824C37.155 109.09 37.0892 109.35 37.0378 109.611C37.013 109.737 37 109.867 37 110V140C37 141.104 37.8954 142 39 142H188C189.105 142 190 141.104 190 140V128.062C190 126.957 190.895 126.062 192 126.062H219.999C221.104 126.062 221.999 125.166 221.999 124.062V55.3812C222 55.3676 222 55.3539 222 55.3402V35.0264C222 33.9218 221.104 33.0264 220 33.0264H175.034Z" fill="#718095" fill-opacity="0.38"/>
</mask>
<g mask="url(#mask0_2561_264)">
<rect x="5.32812" y="24.458" width="242.379" height="133.431" rx="2" fill="#718095" fill-opacity="0.35"/>
</g>
<path d="M173.223 92H80.7623C78.1005 92 78 93.1193 78 94.5C78 95.8807 78.1005 97 80.7623 97H173.223C175.885 97 176 95.8807 176 94.5C176 93.1193 175.885 92 173.223 92Z" fill="#D1D5DB"/>
<path d="M154.442 85H102.55C101.056 85 101 86.1193 101 87.5C101 88.8807 101.056 90 102.55 90H154.442C155.935 90 156 88.8807 156 87.5C156 86.1193 155.935 85 154.442 85Z" fill="#D1D5DB"/>
</svg>
