<svg width="590" height="443" viewBox="0 0 590 443" fill="none" xmlns="http://www.w3.org/2000/svg">
<path d="M60 93V31.5L113.5 0L167 31.5V93L113.5 125.5L60 93Z" fill="black"/>
<path d="M181 93V31.5L233.5 0L289 31.5V93L233.5 125.5L181 93Z" fill="black"/>
<path d="M300 93V31.5L354.5 0L410 31.5V95.5L354.5 125.5L300 93Z" fill="black"/>
<path d="M422 93V31.5L475 0L530 31.5V95.5L475 125.5L422 93Z" fill="black"/>
<path d="M0 199.5V139L53 105.5L106.5 137V199.5L54.5 230.5L0 199.5Z" fill="black"/>
<path d="M174 231.5L119.5 199.5V137L174 105.5L228.5 137V199.5L174 231.5Z" fill="black"/>
<path d="M240.5 200L240 137L294.5 105.5L349.5 138.5L348.5 199.5L293.5 230.5L240.5 200Z" fill="black"/>
<path d="M360.5 199.5V138.5L415.5 105.5L470 136.5V200.5L415.5 231.5L360.5 199.5Z" fill="black"/>
<path d="M481 200.5V137.5L535.5 105.5L590 136.5V200.5L535.5 231.5L481 200.5Z" fill="black"/>
<path d="M59.5 305.5V242L113.5 211L168.5 242V305.5L113.5 337.5L59.5 305.5Z" fill="black"/>
<path d="M180.5 305.5V242L235 211L289.5 242V305.5L233.5 337.5L180.5 305.5Z" fill="black"/>
<path d="M300 305.5V244L356 211L409.5 242V305.5L356 337.5L300 305.5Z" fill="black"/>
<path d="M421 305.5V242L475.5 211L530.5 242V305.5L475.5 337.5L421 305.5Z" fill="black"/>
<path d="M120 348L173.5 317L229.5 348V411.5L173.5 442.5L120 411.5V348Z" fill="black"/>
<path d="M240.5 411.5V348L295 317L349 348V411.5L295 442.5L240.5 411.5Z" fill="black"/>
<path d="M361 413V348L415 317L470 348V411.5L415 442.5L361 413Z" fill="black"/>
</svg>
