<svg width="101" height="89" viewBox="0 0 101 89" fill="none" xmlns="http://www.w3.org/2000/svg">
<path d="M10.6261 40.4828L18.6166 33.8107L47.9424 9.35976C49.4206 8.12124 51.5781 8.12124 53.0563 9.35976L82.3821 33.8107L90.3726 40.4828L95.8861 45.0775L101 38.9248L58.1709 3.20656C53.7361 -0.508959 47.2639 -0.508959 42.8291 3.20656L0 38.9248L5.11392 45.0775L10.6261 40.4828Z" fill="white"/>
<path d="M78.3897 88.3852C84.9818 88.3852 90.3754 82.9915 90.3754 76.3994V50.8694L50.5022 17.6289L10.6289 50.8694V76.3994C10.6289 82.9915 16.0226 88.3852 22.6147 88.3852H34.1609V59.6193C34.1609 53.0272 39.5145 47.6336 46.1466 47.6336H54.8563C61.4884 47.6336 66.8421 53.0272 66.8421 59.6193V88.3852H78.3897Z" fill="white"/>
<path d="M46.1437 55.625C43.9063 55.625 42.1484 57.4228 42.1484 59.6203V88.3861H58.848V59.6203C58.848 57.4228 57.09 55.625 54.8527 55.625H46.1437Z" fill="white"/>
</svg>
