<svg width="233" height="175" viewBox="0 0 233 175" fill="none" xmlns="http://www.w3.org/2000/svg">
<path d="M120.141 55.3105H45.5078C42.9945 55.3105 40.957 57.3403 40.957 59.8442V125.129C40.957 127.633 42.9945 129.663 45.5078 129.663H120.141C122.654 129.663 124.691 127.633 124.691 125.129V59.8442C124.691 57.3403 122.654 55.3105 120.141 55.3105Z" fill="#718095" fill-opacity="0.35"/>
<path d="M140.164 55.3105H130.152C127.639 55.3105 125.602 57.3403 125.602 59.8442V125.129C125.602 127.633 127.639 129.663 130.152 129.663H140.164C142.677 129.663 144.715 127.633 144.715 125.129V59.8442C144.715 57.3403 142.677 55.3105 140.164 55.3105Z" fill="#718095" fill-opacity="0.35"/>
<path d="M160.188 55.3105H150.176C147.662 55.3105 145.625 57.3403 145.625 59.8442V125.129C145.625 127.633 147.662 129.663 150.176 129.663H160.188C162.701 129.663 164.738 127.633 164.738 125.129V59.8442C164.738 57.3403 162.701 55.3105 160.188 55.3105Z" fill="#718095" fill-opacity="0.35"/>
<path d="M180.211 55.3105H170.199C167.686 55.3105 165.648 57.3403 165.648 59.8442V125.129C165.648 127.633 167.686 129.663 170.199 129.663H180.211C182.724 129.663 184.762 127.633 184.762 125.129V59.8442C184.762 57.3403 182.724 55.3105 180.211 55.3105Z" fill="#718095" fill-opacity="0.35"/>
<path d="M115.59 61.6582H50.0586C48.5506 61.6582 47.3281 62.8761 47.3281 64.3784V120.596C47.3281 122.098 48.5506 123.316 50.0586 123.316H115.59C117.098 123.316 118.32 122.098 118.32 120.596V64.3784C118.32 62.8761 117.098 61.6582 115.59 61.6582Z" fill="white"/>
<path d="M110.129 67.0986H55.5195C54.0115 67.0986 52.7891 68.3165 52.7891 69.8188V116.062C52.7891 117.565 54.0115 118.783 55.5195 118.783H110.129C111.637 118.783 112.859 117.565 112.859 116.062V69.8188C112.859 68.3165 111.637 67.0986 110.129 67.0986Z" fill="#718095"/>
<path d="M141.074 29.0156H91.0156C89.5076 29.0156 88.2852 30.2335 88.2852 31.7358C88.2852 33.2382 89.5076 34.456 91.0156 34.456H141.074C142.582 34.456 143.805 33.2382 143.805 31.7358C143.805 30.2335 142.582 29.0156 141.074 29.0156Z" fill="#D1D5DB"/>
<path d="M165.648 37.1758H67.3516C66.8489 37.1758 66.4414 37.5817 66.4414 38.0825C66.4414 38.5833 66.8489 38.9893 67.3516 38.9893H165.648C166.151 38.9893 166.559 38.5833 166.559 38.0825C166.559 37.5817 166.151 37.1758 165.648 37.1758Z" fill="#3C4148"/>
<path d="M151.086 39.8965H79.1836C78.6809 39.8965 78.2734 40.3024 78.2734 40.8032C78.2734 41.304 78.6809 41.71 79.1836 41.71H151.086C151.589 41.71 151.996 41.304 151.996 40.8032C151.996 40.3024 151.589 39.8965 151.086 39.8965Z" fill="#3C4148"/>
</svg>
